SplineFontDB: 3.0
FontName: F0ntUni-Legacy
FullName: F0ntUni Legacy
FamilyName: F0ntUni
Weight: 400
Copyright: Copyright (c) 2015, Sungsit Sawaiwan (https://sungsit.com | gibbozer [at] gmail [dot] com)
Version: 1.0-beta1
ItalicAngle: 0
UnderlinePosition: -120
UnderlineWidth: 60
Ascent: 960
Descent: 240
InvalidEm: 0
sfntRevision: 0x00010000
LayerCount: 2
Layer: 0 0 "Back" 1
Layer: 1 0 "Fore" 0
XUID: [1021 562 1168208084 12097211]
FSType: 0
OS2Version: 3
OS2_WeightWidthSlopeOnly: 0
OS2_UseTypoMetrics: 1
CreationTime: 1433694685
ModificationTime: 1433703816
PfmFamily: 17
TTFWeight: 400
TTFWidth: 5
LineGap: 90
VLineGap: 0
Panose: 2 0 2 3 0 0 0 0 0 0
OS2TypoAscent: 960
OS2TypoAOffset: 0
OS2TypoDescent: -240
OS2TypoDOffset: 0
OS2TypoLinegap: 90
OS2WinAscent: 1200
OS2WinAOffset: 0
OS2WinDescent: 600
OS2WinDOffset: 0
HheadAscent: 1200
HheadAOffset: 0
HheadDescent: -600
HheadDOffset: 0
OS2SubXSize: 780
OS2SubYSize: 840
OS2SubXOff: 0
OS2SubYOff: 168
OS2SupXSize: 780
OS2SupYSize: 840
OS2SupXOff: 0
OS2SupYOff: 576
OS2StrikeYSize: 59
OS2StrikeYPos: 310
OS2CapHeight: 810
OS2XHeight: 600
OS2Vendor: 'BUni'
OS2CodePages: 00010000.00000000
OS2UnicodeRanges: 81000003.1000200a.00000000.00000000
MarkAttachClasses: 1
DEI: 91125
LangName: 1033 "" "" "" "" "" "" "" "" "BoonUni" "Sungsit Sawaiwan" "" "https://boonuni.com/" "https://sungsit.com/" "" "" "" "F0ntUni"
Encoding: UnicodeFull
Compacted: 1
UnicodeInterp: none
NameList: AGL For New Fonts
DisplaySize: -48
AntiAlias: 1
FitToEm: 1
WinInfo: 0 16 10
BeginPrivate: 3
BlueValues 31 [-30 0 600 630 810 830 840 870]
OtherBlues 21 [-270 -240 1200 1230]
BlueScale 5 0.033
EndPrivate
BeginChars: 1114114 249

StartChar: .notdef
Encoding: 1114112 -1 0
Width: 720
Flags: W
HStem: 0 10<170 550> 30 10<200 520> 560 10<200 520> 590 10<170 550>
VStem: 160 10<10 590> 190 10<40 560> 520 10<40 560> 550 10<10 590>
LayerCount: 2
Back
Fore
SplineSet
200 560 m 1
 200 40 l 1
 520 40 l 1
 520 560 l 1
 200 560 l 1
160 600 m 1
 560 600 l 1
 560 0 l 1
 160 0 l 1
 160 600 l 1
190 570 m 1
 530 570 l 1
 530 30 l 1
 190 30 l 1
 190 570 l 1
170 590 m 1
 170 10 l 1
 550 10 l 1
 550 590 l 1
 170 590 l 1
EndSplineSet
EndChar

StartChar: exclam
Encoding: 33 33 5
Width: 330
GlyphClass: 2
Flags: W
HStem: -5 10<125.887 185.356> 122 10<142.78 204.575> 268 10<138.711 173.21> 826 10<154.186 205.443>
VStem: 81 10<35.3993 76.358> 101 10<734.915 806.059> 125 9.98324<281.702 393.418> 195.015 9.9846<294.697 387.687> 210 10<602.806 820.899> 239 10<49.3844 90.7412>
LayerCount: 2
Back
Fore
SplineSet
136 828 m 2
 176 835 l 2
 179 836 183 836 187 836 c 0
 202 836 220 830 220 812 c 2
 220 811 l 2
 218 725 222 574 205 303 c 0
 204 285 176 268 153 268 c 0
 138 268 126 275 125 295 c 0
 117 433 111 709 101 794 c 1
 101 796 l 2
 101 811 118 825 136 828 c 2
231 112 m 0
 233 110 249 95 249 71 c 0
 249 67 249 62 248 58 c 0
 243 32 210 -5 155 -5 c 0
 105 -5 81 26 81 56 c 0
 81 79 103 132 175 132 c 0
 181 132 187 131 191 130 c 2
 207 126 l 2
 217 123 226 118 231 112 c 0
137.683924195 818.142716482 m 2
 122.355738546 815.588018874 111 803.525325882 111 796 c 0
 111 794.5849456 l 1
 120.984489197 707.916316975 127.012007877 433.082476081 134.983239041 295.578738495 c 0
 135.715961346 280.924292398 141.77264972 278 153 278 c 0
 173.661848251 278 194.511489997 294.484383719 195.015396468 303.554700196 c 0
 212.004361439 574.378788852 207.994434305 724.876938475 210 811.116263352 c 1
 210 812 l 0
 210 820.862305329 201.10758632 826 187 826 c 0
 182.972612571 826 179.757018156 825.711413851 179.16227766 825.513167019 c 0
 178.456559674 825.277927691 l 1
 137.683924195 818.142716482 l 2
223.928932188 104.928932188 m 2
 223.60818136 105.249683017 l 1
 223.317787204 105.598156003 l 0
 220.246833568 109.283300367 212.884151842 113.794447938 204.126521144 116.421737148 c 1
 205.090765898 116.156723835 205.54478625 116.056039374 204.57464375 116.298574999 c 0
 188.57464375 120.298574999 l 0
 185.307232644 121.115427775 179.897242411 122 175 122 c 0
 109.107634346 122 91 74.2238752319 91 56 c 0
 91 31.8615619269 109.664542215 5 155 5 c 0
 205.47384193 5 234.202128287 39.2038762728 238.17993553 59.8884739365 c 0
 238.231872564 60.1585465118 l 1
 238.298574999 60.4253562504 l 0
 238.848597649 62.6254468537 239 67.0343538395 239 71 c 0
 239 90.4761233282 225.859413937 102.998450439 223.928932188 104.928932188 c 2
EndSplineSet
EndChar

StartChar: quotedbl
Encoding: 34 34 6
Width: 510
GlyphClass: 2
Flags: W
HStem: 548 10<133.87 165.818> 553 10<326.87 358.818> 829 10<137.969 185.328 329.608 386.05>
VStem: 107 10<711.143 815.059> 196 10<610.948 820.402> 304 10<671.531 817.059> 313 9.95495<566.922 702.117> 393 10<666.598 822.402>
LayerCount: 2
Back
Fore
SplineSet
347 838 m 2x7d
 366 839 l 1
 368 839 l 2
 389 839 403 827 403 814 c 0
 402 726 397 620 391 586 c 0
 389 571 362 553 340 553 c 0
 326 553 315 560 313 579 c 0x7b
 309 621 309 718 304 804 c 1
 304 806 l 2
 304 818 315 836 347 838 c 2x7d
150 836 m 2
 169 837 l 1
 171 837 l 2
 192 837 206 825 206 812 c 0
 205 724 204 616 198 581 c 0
 196 566 169 548 147 548 c 0xb9
 133 548 122 555 120 574 c 0
 116 615 112 715 107 802 c 1
 107 804 l 2
 107 816 118 834 150 836 c 2
347.574699496 828.016406505 m 2
 319.376125849 826.253995652 314 811.67855257 314 806 c 0
 314 804.293323584 l 1x7d
 318.928900554 718.66301819 319.073910169 620.699058779 322.954954726 579.948090926 c 0
 324.438280837 565.856492873 330.217429431 563 340 563 c 0x7b
 358.878184869 563 380.152368652 580.306494644 381.115559229 587.53042397 c 1
 386.896445997 620.288782322 392.005366004 726.5290247 393 814.056816348 c 1
 393 819.099661306 385.962869009 829 368 829 c 0
 366.262975904 829 l 1
 347.574699496 828.016406505 l 2
150.574699496 826.016406505 m 2
 122.376125849 824.253995652 117 809.67855257 117 804 c 0
 117 802.287989966 l 1
 121.950238353 715.891072561 126.03550083 615.122766115 129.952746339 574.970999643 c 0
 131.440467512 560.8376485 137.216524877 558 147 558 c 0xb9
 165.877179571 558 187.155085889 575.32687392 188.112323958 582.506159436 c 1
 193.82466525 615.828150307 195.00290118 724.312120214 196 812.056816348 c 1
 196 817.099661306 188.962869009 827 171 827 c 0
 169.262975904 827 l 1
 150.574699496 826.016406505 l 2
EndSplineSet
EndChar

StartChar: numbersign
Encoding: 35 35 7
Width: 720
GlyphClass: 2
Flags: W
HStem: -29 10<127.073 163.991> -19 10<397.073 433.991> 241 6.99568<48.5095 160> 284 10<69.7322 172 250 439.703 517 642.77> 521 6.99654<88.5095 214> 564 10<109.966 224 301 492.609 570 682.77> 819 10<285.945 323.345> 829 10<555.945 593.345>
VStem: 111 10<-13.2464 20.2277> 329 10<774.082 813.659> 381 10<-3.24637 31.7353> 599 10<783.553 823.659> 649 10<258.456 278.246> 689 10<538.456 558.246>
LayerCount: 2
Back
Fore
SplineSet
305 829 m 0xbefc
 325 829 339 819 339 804 c 2
 339 801 l 1
 326 718 313 644 301 574 c 1
 365 573 427 573 492 573 c 1
 505 646 517 723 531 809 c 0
 533 825 554 839 575 839 c 0
 595 839 609 829 609 814 c 2
 609 811 l 1
 595 724 583 647 570 574 c 1
 666 574 l 2
 685 574 699 563 699 549 c 2
 699 545 l 2
 696 529 675 516 654 516 c 2
 559 516 l 1
 546 441 532 369 517 294 c 1
 626 294 l 2
 645 294 659 283 659 269 c 2
 659 265 l 2
 656 249 635 236 614 236 c 2
 506 236 l 1
 492 166 476 92 459 10 c 0
 456 -6 435 -19 414 -19 c 0x7dfc
 395 -19 381 -8 381 6 c 2
 381 10 l 1
 398 92 414 166 428 235 c 1
 363 235 303 235 238 236 c 1
 223 163 207 87 189 0 c 0
 186 -16 165 -29 144 -29 c 0
 125 -29 111 -18 111 -4 c 2
 111 0 l 1
 129 87 145 165 160 238 c 1
 126 239 91 240 52 241 c 0
 33 242 20 253 20 266 c 0
 20 268 21 269 21 271 c 0
 25 286 46 299 66 299 c 2
 68 299 l 2
 105 298 139 297 172 296 c 1
 187 371 201 443 214 518 c 1
 176 519 136 520 92 521 c 0
 73 522 60 533 60 546 c 0
 60 548 61 549 61 551 c 0
 65 566 86 579 106 579 c 2
 108 579 l 2
 150 578 188 577 224 576 c 1
 236 645 248 718 261 799 c 0
 263 815 284 829 305 829 c 0xbefc
291 516 m 1
 278 441 265 370 250 295 c 1
 315 294 374 293 439 293 c 1
 454 368 469 440 482 515 c 1
 417 515 355 515 291 516 c 1
305 819 m 0x3efc
 287.14885673 819 272.009575778 806.454028745 270.901205878 797.587069543 c 1
 257.834380472 716.170695855 245.882350423 643.460427281 233.852117548 574.286588252 c 0
 232.369866795 565.763646419 l 1
 223.722329328 566.003855793 l 0
 187.821642338 567.001097099 149.581302666 568.007134919 107.880969248 569 c 1
 106 569 l 0
 89.9902071055 569 73.8184695067 557.714237244 70.9957691004 549.483891961 c 1
 70.9957691004 549.483891961 70.6421691877 547.392104352 70.0169076991 545.412109638 c 1
 70.4189491443 540.39940938 76.7542446689 531.816249012 92.3764851048 530.994025832 c 1
 136.042021809 530.00162727 176.352571159 528.994183816 214.263066821 527.996539194 c 0
 225.829086701 527.692170249 l 1
 223.853080204 516.292132765 l 0
 210.830542613 441.1621082 196.812339839 369.071504061 181.805806757 294.038838649 c 0
 180.147740717 285.748508451 l 1
 171.697108734 286.004588209 l 0
 138.793976908 287.001652809 104.53437519 288.00893282 67.8648895336 289 c 1
 66 289 l 0
 49.9902071055 289 33.8184695067 277.714237244 30.9957691004 269.483891961 c 1
 30.9957691004 269.483891961 30.6421691877 267.392104352 30.0169076991 265.412109638 c 1
 30.4189952687 260.398834295 36.7419660967 251.816895253 52.3910281541 250.993260408 c 1
 91.1142923915 250.000356197 126.363541143 248.993631938 160.293990516 247.995677545 c 0
 172.190933523 247.645767456 l 1
 169.795349186 235.987257017 l 0
 154.847447382 163.240801569 138.94776655 85.7294091454 121 -1.0236136752 c 1
 121 -4 l 0
 121 -10.3625344218 128.151628341 -19 144 -19 c 0xbefc
 162.026216182 -19 177.476532752 -7.19575667109 179.188481992 1.93463927984 c 1
 197.236715262 89.1677667487 213.199043556 164.985454328 228.204650814 238.012742983 c 0
 229.871806193 246.126232497 l 1
 238.15382795 245.998816778 l 0
 303.057655436 245.000296355 362.998287068 245 428 245 c 0
 440.232748646 245 l 1
 437.800305891 233.011532138 l 0
 423.833923233 164.177217609 407.940157801 90.6580014342 391 8.97416198846 c 1
 391 6 l 0
 391 -0.362534421818 398.151628341 -9 414 -9 c 0
 432.026327582 -9 447.476219448 2.80257237464 449.188853575 11.9366210533 c 1
 466.243037447 94.1979785562 482.204428167 168.012335972 496.194193243 237.961161351 c 0
 497.801960973 246 l 1
 614 246 l 0
 631.300392133 246 646.648008815 257.060922139 649 266.07006411 c 1
 649 269 l 0
 649 275.362534422 641.848371659 284 626 284 c 0
 504.801960973 284 l 1
 507.194193243 295.961161351 l 0
 522.187660589 370.928498079 536.16945702 442.83788968 549.146919796 517.707867235 c 0
 550.584222809 526 l 1
 654 526 l 0
 671.300392133 526 686.648008815 537.060922139 689 546.07006411 c 1
 689 549 l 0
 689 555.362534422 681.848371659 564 666 564 c 0
 558.061849363 564 l 1
 560.154891826 575.753238442 l 0
 573.110522411 648.504087113 584.957550051 724.515499035 599 811.799398301 c 1
 599 814 l 0
 599 821.21323053 592.37735643 829 575 829 c 0x7dfc
 557.148444816 829 542.010740771 816.463348682 540.899817243 807.575960465 c 1
 526.842264915 721.222424735 514.889387979 644.495409694 501.845108174 571.246761558 c 0
 500.376506801 563 l 1
 492 563 l 0
 427.000900072 563 364.945484085 562.999631183 300.84376907 564.00122048 c 0
 289.171314212 564.183602587 l 1
 291.143777452 575.689638151 l 0
 303.132365739 645.623069824 315.959325688 718.597203006 329 801.778602882 c 1
 329 804 l 0
 329 811.21323053 322.37735643 819 305 819 c 0x3efc
281.146919796 517.707867235 m 2
 282.607164979 526.132358676 l 1
 291.15623093 525.99877952 l 0
 355.054494507 525.000369152 416.99912147 525 482 525 c 0
 493.882443858 525 l 1
 491.853080204 513.292132765 l 0
 478.815582495 438.075799827 463.79531584 365.986384067 448.805806757 291.038838649 c 0
 447.198039027 283 l 1
 439 283 l 0
 373.895255301 283 314.83425659 284.001366537 249.84617205 285.001183222 c 0
 237.839142324 285.185906756 l 1
 240.194193243 296.961161351 l 0
 255.173996911 371.86017969 268.157038497 442.766244356 281.146919796 517.707867235 c 2
EndSplineSet
EndChar

StartChar: dollar
Encoding: 36 36 8
Width: 720
GlyphClass: 2
Flags: W
HStem: -127 9.99274<343.16 371.235> 46.0106 9.98937<397 433.618> 192 10<114.679 163.091> 584 10<527.81 573.188> 812 10<396 452.927> 916 10<345.781 382.392>
VStem: 70 10<555.116 626.076> 78 10<142.936 170.335> 169 10<573.257 631.847> 319 10<68.2874 376.122 474 733.554> 323 10<-104.397 -19.3966 63 272.064 529.363 738 816 904.97> 382 10<61.0069 350 446.497 739.089> 392 10<-104.332 -22.1257> 504 10<605.466 668.734> 565 10<169.912 234.029> 604 10<619.16 682.591> 664 10<176.73 254.717>
LayerCount: 2
Back
Fore
SplineSet
360 926 m 2xfea780
 365 926 l 2
 383 926 397 917 397 904 c 0
 397 876 396 848 396 822 c 1
 400 822 l 2
 539 822 614 737 614 648 c 0
 614 640 613 633 612 625 c 0
 609 604 581 585 552 584 c 2
 550 584 l 2
 524 584 504 598 504 617 c 2
 504 621 l 2
 505 626 505 631 505 636 c 0
 505 692 458 739 395 744 c 1
 394 637 392 541 392 448 c 1xfeb780
 439 432 486 415 506 408 c 0
 622 371 674 294 674 216 c 0
 674 174 658 131 630 94 c 0
 584 35 503 -13 400 -21 c 1
 401 -45 401 -70 402 -95 c 2
 402 -96 l 2
 402 -110 385 -123 366 -126 c 0
 364 -126 361 -127 359 -127 c 0
 342 -127 329 -117 328 -105 c 0
 327 -76 326 -47 325 -20 c 1
 197 -8 115 60 80 147 c 0xfe8f80
 79 150 78 154 78 157 c 0xfd8780
 78 174 94 192 118 199 c 0
 126 201 134 202 141 202 c 0
 161 202 178 194 184 179 c 0
 208 119 256 78 323 63 c 1
 320 176 318 276 318 375 c 1
 284 387 253 398 236 404 c 0
 123 442 70 515 70 590 c 0
 70 601 71 611 73 622 c 0
 91 709 184 793 322 816 c 1
 322 842 323 868 323 896 c 0
 323 910 340 924 360 926 c 2xfea780
319 474 m 1xfcc780
 319 558 320 643 321 738 c 1
 239 722 192 674 181 622 c 0
 180 615 179 609 179 602 c 0
 179 555 213 509 294 482 c 0
 301 480 309 477 319 474 c 1xfcc780
393 350 m 1
 393 258 394 163 397 56 c 1
 462 59 509 86 537 124 c 0
 555 148 565 176 565 203 c 0
 565 254 531 305 450 330 c 0
 438 334 418 341 393 350 c 1
360.512415766 916 m 1
 344.122913933 914.008121636 333 902.330583643 333 896 c 0
 333 867.757308855 332 841.740456406 332 816 c 0
 332 807.528729116 l 1
 323.643989873 806.136060762 l 0
 188.496969773 783.611557412 99.6549054921 701.475066895 82.8170846814 620.09226631 c 1
 80.9519448514 609.833997245 80 600.314203571 80 590 c 0xfeb780
 80 520.284799129 128.84128142 450.585966176 239.257996389 413.454681497 c 1
 256.43760399 407.391290578 287.289535167 396.443550163 321.328201177 384.429903336 c 0
 328 382.07515081 l 1
 328 375 l 0
 328 276.136029059 329.997468488 176.228073617 332.996477702 63.2653932133 c 0
 333.337022852 50.4381925593 l 1
 320.815276551 53.2415685967 l 0
 250.856108282 68.9040689556 199.913904627 112.289414397 174.715233091 175.286093236 c 0
 170.862823763 184.917116557 158.807569325 192 141 192 c 0
 135.05748645 192 127.427559852 191.049125899 120.613662463 189.345651552 c 1
 99.6221833438 183.223136809 88 167.728127815 88 157 c 0
 88 155.930280571 88.3787620599 153.695799612 89.3847475773 150.464452193 c 1
 123.042445715 67.5726536636 201.046899839 1.66445231508 325.933407087 -10.0436577394 c 0
 334.668432894 -10.8625664088 l 1
 334.993148338 -19.6298833949 l 0
 335.981579014 -46.3175116581 337.004863592 -76.3123194732 337.965457582 -104.169545201 c 1
 338.365962282 -108.975601599 344.31504722 -116.634640157 358.85857845 -117.00725788 c 1
 359.872421085 -116.835420145 359.715116679 -116.58213965 365.375113 -115.964685506 c 1
 380.621758592 -113.256834369 392 -102.104902592 392 -96 c 0
 392 -95.1999200639 l 1xfd8f80
 391.004418471 -70.3103818392 390.993848148 -45.0605985418 390.008669269 -21.4163054471 c 0
 389.607035826 -11.7771028031 l 1
 399.225633187 -11.0300272799 l 0
 499.527905304 -3.23955954271 578.000547443 43.5687674719 622.069397061 100.091857199 c 1
 648.860913319 135.494932255 664 176.572550523 664 216 c 0
 664 289.042373082 615.958717516 362.430585222 502.828222323 398.515312137 c 1
 482.475376381 405.638808217 435.722405408 422.552209574 388.777362022 438.533500939 c 0
 382 440.840688011 l 1
 382 448 l 0xfc9780
 382 541.144996912 384.001091059 637.163471215 385.000436691 744.093453863 c 0
 385.100657746 754.817106725 l 1
 395.79116301 753.968653926 l 0
 463.193463578 748.619264992 515 697.956510857 515 636 c 0
 515 631.206828651 515.09456515 626.344852049 514 620.062271471 c 1
 514 617 l 0
 514 606.247648462 526.544314246 594 550 594 c 0
 551.827637429 594 l 1
 577.602643705 594.88879332 600.155200117 612.797078937 602.088100636 626.327382568 c 1
 603.079615565 634.259502005 604 640.914153598 604 648 c 0
 604 730.723919791 534.671590865 812 400 812 c 0
 386 812 l 1
 386 822 l 0
 386 848.252019356 387 876.234160226 387 904 c 0
 387 908.446822983 380.931878024 916 365 916 c 0
 360.512415766 916 l 1
329 474 m 2xfcc780
 329 460.559693491 l 1
 316.126521144 464.421737148 l 0
 305.643114548 467.566759127 297.929729469 470.477063167 291.043860467 472.444454311 c 1
 207.426957535 500.316755288 169 549.345086349 169 602 c 0
 169 609.985272468 170.12532751 616.587970686 171.100505063 623.414213562 c 0
 171.147593253 623.743830891 l 1
 171.216502969 624.06958591 l 0
 183.207537171 680.754474865 234.126211099 731.23760147 319.084896406 747.81490592 c 0
 331.128605559 750.16489795 l 1
 330.999446029 737.894742673 l 0
 329.999359324 642.886505645 329 557.919668846 329 474 c 2xfcc780
383 350 m 2
 383 364.228264204 l 1
 396.387194683 359.408874119 l 0
 421.260813831 350.454371225 441.453075845 343.389900252 453.056095072 339.522227176 c 1
 536.880633674 313.650456003 575 259.055470927 575 203 c 0
 575 173.534449426 564.153618863 143.538158484 545 118 c 0
 515.194276652 77.5493754562 465.042666875 49.1297855573 397.461047666 46.0106339015 c 0
 387.28930855 45.5411690192 l 1
 387.003928159 55.7197363035 l 0
 384.00102892 162.823142467 383 257.927566939 383 350 c 2
EndSplineSet
EndChar

StartChar: percent
Encoding: 37 37 9
Width: 780
GlyphClass: 2
Flags: W
HStem: -14 10<529.999 601.556> 6 10<86.5411 123.722> 34 10<564.061 583.83> 369 10<547.94 585.432> 374 10<169.999 241.556> 416 10<538.729 609.841> 422 10<204.061 223.83> 757 10<187.94 225.432> 784 10<656.132 694.368> 804 10<178.729 249.841>
VStem: 50 10<530.629 650.488> 70 10<22.1934 40.7429> 120 10<541.446 651.953> 246 10<716.577 736.234> 290 10<536.197 642.056> 320 10<738.008 756.787> 360 10<540.405 654.684> 410 10<142.629 262.488> 480 10<153.446 263.953> 606 10<328.577 348.234> 650 10<148.197 254.056> 680 10<350.008 368.787> 699 10<759.682 779.228> 720 10<152.405 266.684>
LayerCount: 2
Back
Fore
SplineSet
608 347 m 0xf1ffff
 592 363 578 369 566 369 c 0
 558 369 551 366 546 363 c 0
 525 351 490 304 490 206 c 0
 490 83 558 44 581 44 c 2
 583 44 l 2
 595 45 650 77 650 208 c 0
 650 256 634 304 613 322 c 0
 608 326 606 332 606 338 c 0
 606 341 607 344 608 347 c 0xf1ffff
688 351 m 0
 718 316 730 265 730 216 c 0
 730 90 681 -2 583 -13 c 0
 577 -14 571 -14 565 -14 c 0
 468 -14 410 79 410 198 c 0
 410 305 444 378 511 411 c 0
 533 422 554 426 575 426 c 0xe5ffff
 621 426 661 403 685 373 c 0
 688 369 690 365 690 360 c 0
 690 357 689 354 688 351 c 0
248 735 m 0
 232 751 218 757 206 757 c 0
 198 757 191 754 186 751 c 0
 165 739 130 692 130 594 c 0
 130 471 198 432 221 432 c 2
 223 432 l 2xe3ffff
 235 433 290 465 290 596 c 0
 290 644 274 692 253 710 c 0
 248 714 246 720 246 726 c 0
 246 729 247 732 248 735 c 0
328 739 m 0
 358 704 370 653 370 604 c 0
 370 478 321 386 223 375 c 0
 217 374 211 374 205 374 c 0xe9ffff
 108 374 50 467 50 586 c 0
 50 693 84 766 151 799 c 0
 173 810 194 814 215 814 c 0
 261 814 301 791 325 761 c 0
 328 757 330 753 330 748 c 0
 330 745 329 742 328 739 c 0
690 792 m 0
 703 788 709 780 709 770 c 0
 709 765 708 760 704 755 c 0
 542 534 305 218 143 23 c 0
 134 13 119 6 104 6 c 0
 99 6 93 7 88 9 c 0
 77 13 70 22 70 31 c 0
 70 36 73 42 77 47 c 0
 237 240 474 554 636 775 c 0
 645 787 660 794 676 794 c 0
 681 794 686 793 690 792 c 0
615.071067812 354.071067812 m 2
 619.441228056 349.700907567 l 1
 617.486832981 343.83772234 l 0
 616.470548336 340.788868407 616 338.787916536 616 338 c 0
 616 334.063183171 617.09053336 331.533821787 619.379263122 329.702837977 c 1
 644.545409124 308.13185569 660 257.738728091 660 208 c 0
 660 75.188678171 604.595720073 35.7649811904 583.830454799 34.0345424176 c 0
 583.415945788 34 l 1
 581 34 l 0
 550.010101102 34 480 79.7005008951 480 206 c 0
 480 306.051113071 515.415555663 357.040685734 540.946254776 371.629656655 c 1
 546.709523731 375.087618028 555.520837016 379 566 379 c 0xf1ffff
 581.532135615 379 597.977193615 371.164942008 615.071067812 354.071067812 c 2
680.407433976 344.492086265 m 2
 676.722715833 348.7909241 l 1
 678.513167019 354.16227766 l 0
 679.529451664 357.211131593 680 359.212083464 680 360 c 0
 680 362.069295883 679.305907695 363.925456407 677.093727123 366.875030503 c 1
 655.026815722 394.458669754 617.586367668 416 575 416 c 0xe5ffff
 555.287481929 416 536.031809278 412.335564751 515.472135955 402.05572809 c 0
 453.062009765 371.316412205 420 303.175016509 420 198 c 0
 420 81.2885187377 476.103229581 -4 565 -4 c 0
 571.009177018 -4 576.425110725 -3.95787732861 581.356010127 -3.13606076168 c 0
 581.619299916 -3.09217913022 l 1
 581.884555722 -3.06240551936 l 0
 672.401792349 7.09769246941 720 91.7817899139 720 216 c 0
 720 263.543626224 708.150190753 312.125536693 680.407433976 344.492086265 c 2
255.071067812 742.071067812 m 2
 259.441228056 737.700907567 l 1
 257.486832981 731.83772234 l 0
 256.470548336 728.788868407 256 726.787916536 256 726 c 0
 256 722.063183171 257.09053336 719.533821787 259.379263122 717.702837977 c 1
 284.545409124 696.13185569 300 645.738728091 300 596 c 0
 300 463.188678171 244.595720073 423.76498119 223.830454799 422.034542418 c 0
 223.415945788 422 l 1
 221 422 l 0xe3ffff
 190.010101102 422 120 467.700500895 120 594 c 0
 120 694.051113071 155.415555663 745.040685734 180.946254776 759.629656655 c 1
 186.709523731 763.087618028 195.520837016 767 206 767 c 0
 221.532135615 767 237.977193615 759.164942008 255.071067812 742.071067812 c 2
320.407433976 732.492086265 m 2
 316.722715833 736.7909241 l 1
 318.513167019 742.16227766 l 0
 319.529451664 745.211131593 320 747.212083464 320 748 c 0
 320 750.069295883 319.305907695 751.925456407 317.093727123 754.875030503 c 1
 295.026815722 782.458669754 257.586367668 804 215 804 c 0
 195.287481929 804 176.031809278 800.335564751 155.472135955 790.05572809 c 0
 93.0620097652 759.316412205 60 691.175016509 60 586 c 0
 60 469.288518738 116.103229581 384 205 384 c 0xe9ffff
 211.009177018 384 216.425110725 384.042122671 221.356010127 384.863939238 c 0
 221.619299916 384.90782087 l 1
 221.884555722 384.937594481 l 0
 312.401792349 395.097692469 360 479.781789914 360 604 c 0
 360 651.543626224 348.150190753 700.125536693 320.407433976 732.492086265 c 2
687.358581111 782.35434198 m 0
 684.214080539 783.11041795 679.564795471 784 676 784 c 0
 662.863297785 784 650.874300337 778.165733783 644.032845731 769.043794308 c 1
 482.052227208 548.070234471 244.874967754 233.830615584 84.754201706 40.684941539 c 1
 81.6380802466 36.7897897147 80 32.207735673 80 31 c 0
 80 27.2782690919 83.2755967045 21.3586011172 91.5665666244 18.3437029645 c 1
 95.4288415856 16.79879298 100.208217001 16 104 16 c 0
 115.95729993 16 128.718993866 22.0806865706 135.434613058 29.5424856726 c 1
 296.934998395 223.941097652 533.921633468 539.894106328 696.059518244 761.082208398 c 1
 698.679458335 764.357133513 699 766.298807907 699 770 c 0
 699 775.092534212 697.670927501 778.886423116 687.358581111 782.35434198 c 0
EndSplineSet
EndChar

StartChar: ampersand
Encoding: 38 38 10
Width: 800
GlyphClass: 2
Flags: W
HStem: -25 10<225.999 384.164 681.422 727.459> 39 10<272.466 362.63> 389 10<634.921 680.408> 734 10<343.862 404.346> 796 10<341.521 435.086>
VStem: 66 10<115.662 188.555> 164 10<131.033 194.626> 202 10<575.987 670.94> 296 10<579.773 673.569> 450 10<620.717 688.395> 538 10<622.929 700.956> 694.999 10.0011<353.393 376.8> 749 10<2.61628 26.6662>
LayerCount: 2
Back
Fore
SplineSet
352 475 m 1
 403 519 436 575 446 624 c 0
 448 636 450 647 450 657 c 0
 450 708 420 734 373 734 c 0
 360 734 352 732 346 730 c 0
 323 721 306 681 306 629 c 0
 306 584 319 529 352 475 c 1
659 399 m 0
 685 399 705 384 705 366 c 0
 705 364 704 362 704 360 c 0
 690 298 667 226 627 161 c 1
 670 115 712 71 751 34 c 0
 757 29 759 23 759 16 c 0
 759 5 752 -8 738 -16 c 0
 728 -22 715 -25 703 -25 c 0
 690 -25 677 -21 669 -14 c 0
 638 16 604 49 570 85 c 1
 507 18 421 -29 302 -29 c 0
 153 -29 66 51 66 154 c 0
 66 258 171 341 274 417 c 1
 232 476 202 555 202 626 c 0
 202 691 227 751 294 785 c 0
 321 799 354 806 387 806 c 0
 503 806 548 737 548 664 c 0
 548 651 547 637 544 624 c 0
 530 554 483 478 404 418 c 0
 402 417 401 415 399 414 c 1
 442 365 497 302 556 237 c 1
 573 275 587 317 596 360 c 0
 601 381 630 399 659 399 c 0
507 153 m 1
 440 226 373 300 323 358 c 1
 233 286 174 228 174 166 c 0
 174 93 229 49 318 49 c 0
 395 49 459 90 507 153 c 1
358.532332565 467.428432708 m 2
 349.611152943 459.73172872 l 1
 343.467181663 469.785499905 l 0
 309.498291542 525.370956468 296 582.11087532 296 629 c 0
 296 681.874425506 312.215353285 727.518259142 342.356006514 739.312427797 c 0
 342.594629931 739.405802178 l 1
 342.83772234 739.486832981 l 0
 349.546292976 741.723023192 358.994914044 744 373 744 c 0
 424.625189 744 460 713.214398338 460 657 c 0
 460 645.564608279 457.88668535 634.492486799 455.83420573 622.177609076 c 1
 445.221029554 570.173045816 411.093825388 512.775602986 358.532332565 467.428432708 c 2
659 389 m 0
 633.082227574 389 609.117121917 371.917845764 605.759818485 357.817171346 c 1
 596.665585305 314.366946154 582.378907048 271.476782465 565.128182519 232.916339399 c 0
 558.879607551 218.94893653 l 1
 548.595446859 230.278944072 l 0
 489.514873787 295.367711016 434.471867424 358.417633854 391.483743109 407.404101096 c 0
 382.93368999 417.147184883 l 1
 394.076408528 422.718544151 l 1
 394.434563971 423.076699595 394.150537323 423.208790782 397.975427914 426.046612834 c 1
 475.17321582 484.97911733 520.686517106 558.422780664 534.223027617 626.10533322 c 1
 537.055846412 638.38088133 538 651.422143929 538 664 c 0
 538 732.141033911 497.844189285 796 387 796 c 0
 355.386379632 796 323.873855839 789.225772416 298.603171645 776.122454686 c 0
 235.331780467 744.014584536 212 688.409285809 212 626 c 0
 212 557.707794608 241.214308974 480.299511735 282.146653883 422.799312934 c 0
 287.847953825 414.790343969 l 1
 279.93731881 408.95337056 l 0
 176.200341963 332.409581818 76 251.18889443 76 154 c 0
 76 57.904721351 156.479907589 -19 302 -19 c 0
 418.174036799 -19 501.290905579 26.5264210956 562.714808666 91.8502545377 c 0
 569.983991047 99.5809723073 l 1
 577.270131525 91.8662353296 l 0
 611.156375232 55.98668317 643.817655199 24.2874849426 675.784131155 -6.64939052997 c 1
 681.05373613 -11.0077454443 691.843884573 -15 703 -15 c 0
 713.445737294 -15 724.723141637 -12.3042112282 732.946254776 -7.37034334486 c 1
 744.370916457 -0.841965241106 749 9.11165496379 749 16 c 0
 749 20.9820255016 748.11630308 23.3859979733 744.598156003 26.317787204 c 0
 744.350894823 26.5238381873 l 1
 744.117395681 26.7453630149 l 0
 704.849681493 63.9993482697 662.742851618 108.119682928 619.694730607 154.171161219 c 0
 614.485302253 159.744038063 l 1
 618.483416833 166.240974257 l 0
 657.386426064 229.458364256 680.264622491 300.561816932 693.985722845 361.054998535 c 1
 694.19303523 362.547647705 694.906861073 365.845263781 694.998871006 366.25930848 c 1
 694.705822058 375.623186748 682.438905911 389 659 389 c 0
514.367350745 159.761815067 m 2
 520.026112229 153.596298823 l 1
 514.9543172 146.939567847 l 0
 465.673705142 82.258764521 398.839138892 39 318 39 c 0
 225.679768862 39 164 86.2688207422 164 166 c 0
 164 234.440627138 227.214603424 294.177931214 316.753049524 365.808688094 c 0
 324.280154745 371.830372271 l 1
 330.574099616 364.529396221 l 0
 380.441959647 306.682678585 447.401672703 232.7244195 514.367350745 159.761815067 c 2
EndSplineSet
EndChar

StartChar: quotesingle
Encoding: 39 39 11
Width: 330
GlyphClass: 2
Flags: W
HStem: 544 10<136.082 171.047> 832 10<138.676 200.399>
VStem: 110 10<695.06 817.267> 209 10<639.997 824.194>
LayerCount: 2
Back
Fore
SplineSet
158 841 m 2
 179 842 l 1
 181 842 l 2
 205 842 219 828 219 814 c 0
 218 726 215 616 209 581 c 0
 206 564 175 544 151 544 c 0
 136 544 123 551 121 573 c 0
 117 614 115 716 110 803 c 1
 110 805 l 2
 110 818 121 839 158 841 c 2
158.507707266 831.012845088 m 2
 125.76157256 829.242783753 120 812.141693264 120 805 c 0
 120 803.289011043 l 1
 124.939423366 716.765819478 127.058124508 613.890873408 130.952746339 573.970999643 c 0
 132.496822117 556.986166082 139.838766187 554 151 554 c 0
 171.997869106 554 197.521585015 573.497903421 199.152164412 582.737853339 c 0
 204.811219844 615.749010028 208.00572752 726.560838097 209 814.056816348 c 1
 209 820.680989607 201.457737232 832 181 832 c 0
 179 832 l 1
 179.999716994 832.023789307 180.474519632 832.058883772 179.475651494 832.011318623 c 0
 158.507707266 831.012845088 l 2
EndSplineSet
EndChar

StartChar: parenleft
Encoding: 40 40 12
Width: 360
GlyphClass: 2
Flags: W
HStem: -112 10<218.597 255.55> 882 10<229.731 267.501>
VStem: 55 10<319.596 505.542> 135 10<321.345 520.702> 270 10<-90.6361 -66.3908 854.51 878.519>
LayerCount: 2
Back
Fore
SplineSet
262 -105 m 0
 253 -110 244 -112 235 -112 c 0
 224 -112 214 -108 207 -100 c 0
 149 -35 55 149 55 415 c 0
 55 617 116 769 209 874 c 0
 219 885 234 892 249 892 c 0
 255 892 260 891 266 889 c 0
 277 885 281 877 281 869 c 0
 281 862 278 854 271 846 c 0
 194 759 145 619 145 425 c 0
 145 169 227 -9 273 -60 c 0
 278 -66 280 -72 280 -79 c 0
 280 -89 275 -98 262 -105 c 0
257.201078546 -96.2264784287 m 0
 267.8565983 -90.4888908689 270 -85.0679978605 270 -79 c 0
 270 -74.1100563915 268.846634349 -70.6364605708 265.443148372 -66.5522773988 c 1
 217.057225447 -12.9070150253 135 167.008461105 135 425 c 0
 135 620.587010249 184.34635773 763.181065674 263.511677486 852.627595788 c 0
 269.215000807 859.145679583 271 864.929917133 271 869 c 0
 271 873.317648461 269.633292662 877.038166386 262.709545297 879.5558927 c 1
 257.609025916 881.256065828 253.774982578 882 249 882 c 0
 237.072613937 882 224.495225044 876.178678802 216.442953262 867.321179841 c 1
 125.318059877 764.438235696 65 614.95496176 65 415 c 0
 65 151.340628369 158.580537214 -30.7170043439 214.461413013 -93.3421237732 c 0
 219.481574216 -99.0794508625 226.394619946 -102 235 -102 c 0
 242.530208649 -102 249.59323327 -100.453059138 257.201078546 -96.2264784287 c 0
EndSplineSet
EndChar

StartChar: parenright
Encoding: 41 41 13
Width: 360
GlyphClass: 2
Flags: W
HStem: -112 10<92.499 130.269> 882 10<104.45 141.403>
VStem: 79 10<-97.9029 -75.9842 847.345 869.683> 215 10<259.298 458.655> 295 10<274.458 460.404>
LayerCount: 2
Back
Fore
SplineSet
98 885 m 0
 107 890 116 892 125 892 c 0
 136 892 146 888 153 880 c 0
 211 815 305 631 305 365 c 0
 305 163 244 11 151 -94 c 0
 141 -105 126 -112 111 -112 c 0
 105 -112 100 -111 94 -109 c 0
 83 -105 79 -97 79 -89 c 0
 79 -82 82 -74 89 -66 c 0
 166 21 215 161 215 355 c 0
 215 611 133 789 87 840 c 0
 82 846 80 852 80 859 c 0
 80 869 85 878 98 885 c 0
102.798921454 876.226478429 m 0
 92.1434016997 870.488890869 90 865.067997861 90 859 c 0
 90 854.110056392 91.1533656508 850.636460571 94.5568516275 846.552277399 c 1
 142.942774553 792.907015025 225 612.991538895 225 355 c 0
 225 159.412989751 175.65364227 16.8189343257 96.4883225138 -72.627595788 c 0
 90.7849991934 -79.1456795828 89 -84.9299171334 89 -89 c 0
 89 -93.3176484614 90.3667073375 -97.0381663857 97.2904547031 -99.5558927005 c 1
 102.390974084 -101.256065828 106.225017422 -102 111 -102 c 0
 122.927386063 -102 135.504774956 -96.1786788015 143.557046738 -87.3211798406 c 1
 234.681940123 15.5617643039 295 165.04503824 295 365 c 0
 295 628.659371631 201.419462786 810.717004344 145.538586987 873.342123773 c 0
 140.518425784 879.079450862 133.605380054 882 125 882 c 0
 117.469791351 882 110.40676673 880.453059138 102.798921454 876.226478429 c 0
EndSplineSet
EndChar

StartChar: asterisk
Encoding: 42 42 14
Width: 600
GlyphClass: 2
Flags: W
HStem: 392 10<280.839 320.403> 488 10<104.583 144.683> 495 10<453.869 491.825> 735 10<108.979 148.589> 742 10<455.843 495.831> 839.006 9.99351<287.417 318.087>
VStem: 84 10<702.683 722.691> 89 10<503.788 521.934> 256 10<765.835 825.392> 265 10<407.878 569.276> 272 9.99315<418.345 572 673 704.869> 326 10<502.904 571 664 831.287> 335 10<414.318 511.712> 501 10<718.454 736.956> 506 10<517.148 535.987>
LayerCount: 2
Back
Fore
SplineSet
293 848 m 0xd680
 296 848 299 849 301 849 c 0
 319 849 333 839 334 826 c 0
 335 809 336 792 336 775 c 0
 336 739 334 702 333 664 c 1
 372 690 410 718 446 743 c 0
 455 749 466 752 477 752 c 0x8e90
 487 752 495 750 502 745 c 0
 508 741 511 735 511 729 c 0x9694
 511 721 506 712 496 705 c 0
 454 676 406 650 358 623 c 1
 408 597 458 573 503 547 c 0
 511 542 516 535 516 527 c 0
 516 520 512 513 505 507 c 0
 496 499 484 495 472 495 c 0
 464 495 456 497 449 501 c 0
 411 523 374 547 335 571 c 1
 339 520 345 471 345 424 c 0
 345 409 327 394 305 392 c 2
 300 392 l 2
 280 392 265 402 265 416 c 0xb44a
 265 466 270 518 272 572 c 1
 230 545 191 518 151 495 c 0xb420
 142 490 133 488 123 488 c 0
 112 488 102 491 96 497 c 0
 92 501 89 507 89 512 c 0
 89 521 96 531 107 537 c 0
 153 564 206 589 257 617 c 1
 204 645 148 667 99 691 c 0xc520
 89 696 84 703 84 712 c 0
 84 718 87 725 93 731 c 0
 102 740 116 745 130 745 c 0
 137 745 143 744 149 741 c 0
 190 722 229 698 270 673 c 1
 266 722 260 769 256 814 c 1
 256 815 l 2
 256 830 272 845 293 848 c 0xd680
293.615999421 837.978975655 m 0
 277.066941148 835.274745401 266 823.111915139 266 815 c 0
 266 814.443360973 l 1
 269.909537589 770.741082924 275.967104037 722.810461083 279.966846158 673.813620095 c 0
 281.565039696 654.235749255 l 1
 264.793925757 664.462038242 l 0
 223.683331932 689.529473501 185.251162679 713.17909678 144.66067048 731.989324872 c 1
 140.038110034 734.300605095 136.136367027 735 130 735 c 0
 118.25039288 735 106.75296787 730.610832247 100.071067812 723.928932188 c 0
 95.5857971043 719.443661481 94 714.717206751 94 712 c 0x9694
 94 707.400783699 95.6758061373 703.842436819 103.472135955 699.94427191 c 0
 151.778921686 676.28380543 208.072413602 654.158279282 261.671210331 625.841933841 c 0
 278.087237131 617.169315909 l 1
 261.812588122 608.234214492 l 0
 210.368853882 579.990595694 157.686857294 555.155646365 111.926479797 528.296294356 c 1
 102.860711931 523.351330066 99 515.957264425 99 512 c 0
 99 510.70214692 100.632064501 506.510071123 103.071067812 504.071067812 c 0
 106.344381921 500.797753703 113.606289297 498 123 498 c 0
 131.61370411 498 138.752375531 499.635353229 146.079162596 503.705790488 c 1
 185.43368592 526.334641399 224.448056125 553.318976778 266.592424087 580.411784754 c 0
 282.701964428 590.76791783 l 1
 281.993148338 571.629883395 l 0xd520
 279.979129235 517.251367622 275 465.335254946 275 416 c 0
 275 410.491992553 282.132282852 402 300 402 c 0
 304.54334124 402 l 1
 322.937771329 404.032276193 335 416.645434308 335 424 c 0
 335 470.152052983 329.052623374 518.93749636 325.030616222 570.218087547 c 0
 323.492972435 589.823045826 l 1
 340.240974257 579.516583167 l 0
 379.372532189 555.435624439 416.305110827 531.483619206 454.010362705 509.654262855 c 0
 459.302146412 506.630386451 465.681196402 505 472 505 c 0
 481.858639205 505 491.363531609 508.258244296 498.42369032 514.533940928 c 1
 504.199007654 519.484212928 506 523.934865125 506 527 c 0xa44a
 506 530.454117914 503.759866511 534.732607016 497.847068108 538.428106017 c 1
 453.663418766 563.956436748 403.467335555 588.085783268 353.386472634 614.127831988 c 0
 336.988750959 622.654647259 l 1
 353.097387604 631.715755371 l 0
 401.186517937 658.765891184 448.944293262 684.661345495 490.318092829 713.228969006 c 0
 498.324991154 718.833797833 501 725.231521808 501 729 c 0xa404
 501 731.629007036 499.946467824 734.350517199 496.318831271 736.768941568 c 1
 491.082794464 740.508967859 485.753590646 742 477 742 c 0
 467.826442598 742 458.613549917 739.390529026 451.625986961 734.732153722 c 1
 415.966483231 709.968609466 377.755444261 681.818458589 338.547001962 655.679497057 c 0
 322.495980524 644.978816098 l 1
 323.003460806 664.263066821 l 0
 324.008192667 702.442877505 326 739.36998531 326 775 c 0
 326 791.54743214 325.010179108 808.533091504 324.022546111 825.32285245 c 1
 323.610892971 830.674343271 317.050020902 838.645180535 301.150651818 839.006487635 c 1
 300.240699744 838.866495008 299.688814457 838.424103458 293.615999421 837.978975655 c 0
EndSplineSet
EndChar

StartChar: plus
Encoding: 43 43 15
Width: 600
GlyphClass: 2
Flags: W
HStem: 145 10<280.974 320.887> 302 10<154.628 259 349 482.665> 362 10<173.18 257 347 502.324> 370 10<108.5 254.621> 525 10<278.605 318.244>
VStem: 80 10<329.718 346.893> 250 10<375.29 509.324> 259 9.99688<165.717 303 373 438.693> 340 10<171.832 302 372 432.744> 510 10<331.616 354.601>
LayerCount: 2
Back
Fore
SplineSet
81 349 m 0xedc0
 86 367 107 380 130 380 c 2
 135 380 l 2xddc0
 170 377 211 374 257 373 c 1
 256 417 253 457 250 494 c 2
 250 497 l 2
 250 515 269 532 292 535 c 2
 299 535 l 2
 320 535 338 523 340 506 c 0
 344 465 346 420 347 372 c 1
 388 372 432 373 478 375 c 2
 480 375 l 2
 502 375 520 361 520 343 c 2
 520 342 l 2
 519 323 496 306 472 305 c 0
 429 303 388 302 349 302 c 1
 350 264 350 225 350 184 c 0
 350 165 329 147 305 145 c 2
 300 145 l 2
 278 145 260 158 260 176 c 0xeec0
 260 220 260 263 259 303 c 1
 205 304 157 306 115 310 c 0
 94 312 80 326 80 342 c 0
 80 344 80 347 81 349 c 0xedc0
90.6351790963 346.323561362 m 2
 90.376502256 345.392324737 l 1
 89.9292886605 344.497897546 90.5681055783 345.775531382 90.1208919828 344.881104191 c 1
 90.1201859852 344.875720959 90 343.320834526 90 342 c 0
 90 332.394885154 98.6784213312 321.599685164 115.948090926 319.954954726 c 0
 157.547225887 315.993132349 205.323320463 313.995727115 259.18515344 312.998285763 c 0
 268.757599056 312.821018252 l 1
 268.996876464 303.249921912 l 0xddc0
 270.001320341 263.072166837 270 220.001021921 270 176 c 0
 270 165.715513873 281.105113462 155 300 155 c 0
 304.582553641 155 l 1
 324.553332458 157.03902802 340 172.069873379 340 184 c 0
 340 225.000493171 339.998716703 263.917209102 339.003460806 301.736933179 c 0
 338.733380101 312 l 1
 349 312 l 0
 387.829085044 312 428.67556488 312.995720808 471.535386006 314.989200861 c 0
 492.176189961 315.849234359 509.007254646 330.51255445 510 342.274606062 c 1
 510 343 l 0
 510 353.558328874 498.478093825 365 480 365 c 0
 478.217288664 365 l 1
 432.590419777 363.016223092 388.018623197 362 347 362 c 0
 337.20616343 362 l 1
 337.002169433 371.791711863 l 0
 336.006628445 419.577679256 333.997179161 464.542263983 330.056893842 504.930188503 c 1
 328.897103566 514.788405843 316.914917824 525 299 525 c 0
 292.677806795 525 l 1
 273.907550497 522.203259667 260 508.136351839 260 497 c 0
 260 494.404825995 l 1xeec0
 262.923477889 458.298566118 265.996285701 417.277050869 266.997418355 373.227214054 c 0
 267.234965537 362.775138079 l 1
 256.782660046 363.002362112 l 0
 210.566808255 364.007054542 170.504005052 366.928893071 134.572191547 370 c 1
 130 370 l 0
 110.167752427 370 94.0240833558 358.523616696 90.6351790963 346.323561362 c 2
EndSplineSet
EndChar

StartChar: comma
Encoding: 44 44 16
Width: 330
GlyphClass: 2
Flags: W
HStem: -182 10<79.4306 121.417> 48 10<82.5668 124.612> 117 10<128.333 193.204>
VStem: 61 10<-163.56 -142.334 70.8514 79.7134> 170 10<-25.4093 39.7363> 251 10<-23.1687 51.5253>
LayerCount: 2
Back
Fore
SplineSet
73 58 m 0
 68 63 65 69 65 75 c 0
 65 85 72 95 85 103 c 0
 89 106 93 109 98 111 c 0
 117 121 141 127 163 127 c 2
 168 127 l 2
 201 125 223 110 236 94 c 0
 252 74 261 46 261 15 c 0
 261 -50 222 -129 126 -176 c 0
 118 -180 108 -182 99 -182 c 0
 85 -182 73 -177 66 -169 c 0
 63 -165 61 -160 61 -155 c 0
 61 -143 69 -131 84 -124 c 0
 144 -94 170 -36 170 9 c 0
 170 28 165 45 157 55 c 0
 152 61 148 62 148 62 c 1
 148 62 144 62 135 57 c 0
 125 51 113 48 102 48 c 0
 90 48 80 51 73 58 c 0
80.0710678119 65.0710678119 m 0
 84.5736050696 60.5685305541 91.5468374955 58 102 58 c 0
 111.300090165 58 121.44047521 60.5261889158 129.997918257 65.6606547437 c 1
 139.666798659 71.0322549673 144.969045011 71.8765745101 147.496365724 71.9884028603 c 1
 147.496365724 71.9884028603 -84.9004367545 61.7044554867 149.278314865 72.0663471513 c 1
 150.376133901 71.7305436815 l 1
 152.360949821 71.1234235176 158.199084519 69.1815979295 164.746224835 61.3250295494 c 1
 174.935314372 48.5886676281 180 29.6558827156 180 9 c 0
 180 -39.5465990185 152.296897708 -101.031891033 88.35128948 -133.004695147 c 1
 75.7791879315 -138.87167587 71 -147.66303731 71 -155 c 0
 71 -157.273047145 71.7730071654 -159.808052817 73.7739333102 -162.694481992 c 1
 78.1055945497 -167.371932497 87.2336389895 -172 99 -172 c 0
 106.566928132 -172 115.272708597 -170.183305814 121.527864045 -167.05572809 c 0
 214.519557485 -121.528544843 251 -46.0117086866 251 15 c 0
 251 44.1123197194 242.492549597 69.8765024107 228.191311906 87.7530495245 c 0
 216.808958601 101.762099745 198.74179726 114.802814039 167.73441471 117 c 1
 163 117 l 0
 142.765947609 117 120.095240307 111.328594607 102.657464328 102.150817776 c 0
 102.19701786 101.90847753 l 1
 101.713906764 101.715233091 l 0
 98.2272714241 100.320578955 95.028288026 98.0212160195 91 95 c 0
 90.6323570144 94.7242677608 l 1
 90.2409742566 94.483416833 l 0
 78.7665780678 87.4222499475 75 80.0352824709 75 75 c 0
 75 72.4013673827 76.4094485425 68.7326870812 80.0710678119 65.0710678119 c 0
EndSplineSet
EndChar

StartChar: hyphen
Encoding: 45 45 17
Width: 600
GlyphClass: 2
Flags: W
HStem: 301 10<155.011 482.056> 363 10<177.704 507.453> 371 10<110.344 333.347>
VStem: 75 10<328.705 351.385> 514 10<333.228 356.488>
LayerCount: 2
Back
Fore
SplineSet
77 349 m 0xd8
 84 367 108 381 133 381 c 2
 138 381 l 1xb8
 191 376 259 373 337 373 c 0
 382 373 430 374 480 376 c 2
 482 376 l 2
 506 376 524 363 524 346 c 2
 524 342 l 2
 521 323 497 305 470 304 c 0
 418 302 369 301 322 301 c 0
 242 301 170 304 112 309 c 0
 90 311 75 324 75 340 c 0
 75 343 76 346 77 349 c 0xd8
86.3979636753 345.575895285 m 0
 85.5794189638 343.089565724 85 340.649471093 85 340 c 0
 85 331.159617879 93.7964290255 320.696107377 112.90535746 318.958932065 c 0
 170.437952287 313.999225614 242.283232543 311 322 311 c 0
 368.85805907 311 417.728738954 311.996960599 469.615668779 313.992611746 c 0
 492.717295857 314.848227564 511.264332975 330.16631525 514 342.867715318 c 1
 514 346 l 0
 514 354.83326305 503.403788876 366 482 366 c 0
 480.199920064 366 l 1
 430.538356932 364.013537475 382.018652214 363 337 363 c 0xd8
 258.899676666 363 191.618006437 365.932280664 137.529800697 371 c 1
 133 371 l 0
 111.09815957 371 91.2233869898 357.984126665 86.3979636753 345.575895285 c 0
EndSplineSet
EndChar

StartChar: period
Encoding: 46 46 18
Width: 330
GlyphClass: 2
Flags: W
HStem: -5 10<125.887 185.356> 122 10<142.78 204.575>
VStem: 81 10<35.3993 76.358> 239 10<49.3844 90.7412>
LayerCount: 2
Back
Fore
SplineSet
231 112 m 0
 233 110 249 95 249 71 c 0
 249 67 249 62 248 58 c 0
 243 32 210 -5 155 -5 c 0
 105 -5 81 26 81 56 c 0
 81 79 103 132 175 132 c 0
 181 132 187 131 191 130 c 2
 207 126 l 2
 217 123 226 118 231 112 c 0
223.928932188 104.928932188 m 2
 223.60818136 105.249683017 l 1
 223.317787204 105.598156003 l 0
 220.246833568 109.283300367 212.884151842 113.794447938 204.126521144 116.421737148 c 1
 205.090765898 116.156723835 205.54478625 116.056039374 204.57464375 116.298574999 c 0
 188.57464375 120.298574999 l 0
 185.307232644 121.115427775 179.897242411 122 175 122 c 0
 109.107634346 122 91 74.2238752319 91 56 c 0
 91 31.8615619269 109.664542215 5 155 5 c 0
 205.47384193 5 234.202128287 39.2038762728 238.17993553 59.8884739365 c 0
 238.231872564 60.1585465118 l 1
 238.298574999 60.4253562504 l 0
 238.848597649 62.6254468537 239 67.0343538395 239 71 c 0
 239 90.4761233282 225.859413937 102.998450439 223.928932188 104.928932188 c 2
EndSplineSet
EndChar

StartChar: slash
Encoding: 47 47 19
Width: 480
GlyphClass: 2
Flags: W
HStem: -29 9.99457<62.1588 93.2757> 818 10<385.428 423.934>
VStem: 41 10<-12.7097 2.25678> 429 10<787.163 800.839 801.12 813.094>
LayerCount: 2
Back
Fore
SplineSet
409 828 m 2
 427 827 439 817 439 804 c 0
 439 802 439 799 438 797 c 0
 347 520 244 259 117 -6 c 0
 111 -19 92 -29 74 -29 c 0
 72 -29 69 -28 67 -28 c 0
 51 -26 41 -15 41 -3 c 0
 41 0 42 3 43 6 c 0
 168 269 271 528 362 803 c 0
 367 818 386 828 406 828 c 2
 409 828 l 2
408.771990255 818 m 1
 406 818 l 0
 388.571588576 818 374.50207266 808.883441379 371.486832981 799.83772234 c 0
 280.406760308 524.595744484 177.675716759 266.161013378 52.2929035146 2.25677504717 c 1
 51.7017520531 0.461152482934 51 -2.52309041528 51 -3 c 0
 51 -8.87019558734 56.3028570407 -16.2629387555 66.945108231 -17.890527822 c 1
 70.8593510536 -18.31753613 72.126391898 -18.6657274304 74.1306588038 -19.0054336856 c 1
 88.9613521165 -18.7027952557 104.116138565 -10.0519980029 107.950785529 -1.74359624808 c 1
 234.827320316 262.998779489 337.60185152 523.4325309 428.499537217 800.121090661 c 0
 428.728151774 800.816983324 l 1
 429.17536537 801.711410515 428.431894422 800.224468618 428.879108017 801.118895809 c 1
 428.879814015 801.124279041 429 802.679165474 429 804 c 0
 429 809.643062336 424.305873405 816.798773819 408.771990255 818 c 1
EndSplineSet
EndChar

StartChar: zero
Encoding: 48 48 20
Width: 720
GlyphClass: 2
Flags: W
HStem: -24 10<311.129 400.874> 46 10<351.3 387.146> 742 10<321.162 387.652> 811 10<319.99 415.233>
VStem: 66 10<308.703 474.095> 164 10<320.862 476.539> 456 10<651.163 678.538> 546 10<313.873 468.059> 564 10<691.137 717.424> 644 10<325.433 490.442>
LayerCount: 2
Back
Fore
SplineSet
567 685 m 1
 629 620 654 516 654 416 c 0
 654 162 556 -4 386 -22 c 0
 376 -23 366 -24 357 -24 c 0
 185 -24 66 145 66 384 c 0
 66 599 136 737 257 795 c 0
 294 813 332 821 368 821 c 0
 449 821 522 781 568 723 c 0
 572 718 574 711 574 705 c 0
 574 698 572 691 567 685 c 1
464 686 m 1
 428 727 389 742 355 742 c 0
 336 742 319 738 304 730 c 0
 248 701 174 600 174 396 c 0
 174 153 308 56 379 56 c 2
 386 56 l 1
 438 62 546 143 546 404 c 0
 546 501 514 601 466 642 c 0
 459 648 456 656 456 664 c 0
 456 671 458 679 464 686 c 1
559.76391768 678.09789071 m 2
 553.608700957 684.5509405 l 1
 559.317787204 691.401843997 l 0
 562.648094676 695.398212963 564 699.900335641 564 705 c 0
 564 708.933198959 562.418463556 713.969109961 560.191311906 716.753049524 c 0
 515.897165017 772.602191254 445.676867607 811 368 811 c 0
 333.479749683 811 296.994996956 803.336463054 261.374657188 786.007649113 c 0
 145.100504273 730.272931186 76 597.15408681 76 384 c 0
 76 147.437734467 193.044227767 -14 357 -14 c 0
 365.271085974 -14 375.011645154 -13.0489598635 385.00496281 -12.0496280979 c 0
 547.243577073 5.12857811818 644 163.698602492 644 416 c 0
 644 514.589009392 619.047308529 615.94594869 559.76391768 678.09789071 c 2
471.514402251 692.598011732 m 2
 477.238452796 686.078954166 l 1
 471.592566024 679.492086265 l 0
 467.394497168 674.594339267 466 669.131004215 466 664 c 0
 466 658.510742994 467.886832632 653.553492683 472.507913735 649.592566024 c 0
 524.299416336 605.353990885 556 502.681609687 556 404 c 0
 556 140.982348264 446.988032772 52.9707327596 387.14624108 46.0659106413 c 0
 386.575015522 46 l 1
 379 46 l 0
 300.058513517 46 164 149.826712954 164 396 c 0
 164 602.08883551 238.601236797 707.394115502 299.347616558 738.852062164 c 1
 315.808265195 747.631074771 334.621247444 752 355 752 c 0
 392.070437871 752 433.908033781 735.427486934 471.514402251 692.598011732 c 2
EndSplineSet
EndChar

StartChar: one
Encoding: 49 49 21
Width: 720
GlyphClass: 2
Flags: W
HStem: -19 10<149.367 300.708> -9 10<341.199 663.537> 49.0092 9.99083<163.547 370.234> 57.0057 9.99426<254.187 373 621.402 654.918> 591 10<150.396 197.992> 802 10<423.202 463.997>
VStem: 126 10<2.34323 27.532 613.596 637.621> 364 10<89.5113 676> 371 10<67.189 423.805 432.425 676> 462 10<103.123 768.563> 469 10<89.0906 434.887 444.413 796.659> 677 10<10.7165 31.9941>
LayerCount: 2
Back
Fore
SplineSet
130 610 m 0x1f10
 127 614 126 619 126 624 c 0
 126 639 139 656 159 664 c 0
 239 696 321 733 384 791 c 1
 384 791 420 812 448 812 c 0
 465 812 479 804 479 778 c 2
 479 775 l 1x1f30
 474 635 472 534 472 440 c 0x1e50
 472 331 475 232 479 97 c 0
 480 74 547 84 649 68 c 0
 656 67 687 41 687 19 c 0
 687 4 672 -9 623 -9 c 2
 621 -9 l 1
 549 -9 l 2x5e30
 421 -9 322 -13 175 -19 c 1
 172 -19 l 2
 145 -19 126 -5 126 14 c 2
 126 18 l 2
 129 39 155 58 185 59 c 0xae30
 255 62 314 65 373 67 c 1
 372 71 371 77 371 83 c 0x1eb0
 367 219 364 318 364 429 c 0
 364 502 365 579 368 676 c 1
 312 642 253 617 201 596 c 0
 192 592 183 591 174 591 c 0
 155 591 137 598 130 610 c 0x1f10
138 616 m 2
 138.34666496 615.537780053 l 1
 138.637789009 615.038710255 l 0
 142.824125003 607.862134265 156.844781253 601 174 601 c 0
 182.371196167 601 189.490824159 601.827986072 197.095837078 605.207991814 c 1
 249.332945573 626.303747168 307.518788318 650.978078161 362.810218658 684.547875152 c 0
 378.564985721 694.113269441 l 1
 377.995220773 675.690869461 l 0
 374.998110956 578.78431869 374 501.907673908 374 429 c 0x4f30
 374 318.091990513 376.989514547 219.503532437 381 83.1470270339 c 1
 381 77.9194127199 381.863745911 72.7760726105 382.701425001 69.4253562504 c 0
 385.701559684 57.4248175194 l 1
 373.338788457 57.0057405286 l 0x5e90
 314.454570445 55.0096653418 255.475300469 52.0111905598 185.428178384 49.0091710418 c 0
 159.062950232 48.1303301034 138.832930541 31.7709208105 136 17.2320620429 c 1
 136 14 l 0
 136 3.05613432441 147.608082138 -9 172 -9 c 0
 174.796003295 -9 l 1xae90
 321.305105208 -3.02003665662 420.912507132 1 549 1 c 0
 623 1 l 0
 672.222928609 1 677 13.6710803843 677 19 c 0
 677 32.081227522 654.697126843 54.4856910976 646.960196834 58.1984018479 c 1
 555.188207599 72.3943806408 470.650550456 58.8200508386 469.006434699 96.6347132519 c 1
 465.002041779 231.782974312 462 330.761719667 462 440 c 0x4ed0
 462 534.027147144 464.012257129 635.521714139 469 775.178514522 c 1
 469 778 l 0
 469 798.749039227 460.819981185 802 448 802 c 0
 426.727010888 802 395.852362285 786.174528388 389.928879972 782.866777367 c 1
 325.441934041 724.094535028 242.683247343 686.702969323 162.713906764 654.715233091 c 0
 145.417375416 647.796620552 136 633.433843257 136 624 c 0
 136 620.234319597 136.807380987 617.590158684 138 616 c 2
EndSplineSet
EndChar

StartChar: two
Encoding: 50 50 22
Width: 720
GlyphClass: 2
Flags: W
HStem: -13 10<205.468 432.328> 61 10<209.997 495.746> 74 10<545.485 625.19> 620 10<104.256 149.505> 740 10<311.759 397.621> 809 10<317.009 425.029>
VStem: 71 10<43.5365 99.3699> 81 10<641.131 667.745> 501 10<563.175 637.078> 599 10<567.036 651.002> 639 10<38.2531 62.5953>
LayerCount: 2
Back
Fore
SplineSet
111 622 m 0xfee0
 92 626 81 639 81 654 c 0xfde0
 81 660 82 666 86 672 c 0
 137 754 235 806 335 817 c 0
 348 818 360 819 373 819 c 0
 502 819 609 745 609 606 c 0
 609 355 193 261 180 81 c 1
 206 74 262 71 328 71 c 0
 418 71 526 76 595 84 c 1
 603 84 l 2
 629 84 649 70 649 51 c 0
 649 30 625 9 595 6 c 0
 524 -1 408 -13 303 -13 c 0
 207 -13 120 -3 86 28 c 0
 78 36 71 46 71 59 c 0
 71 320 501 406 501 594 c 0
 501 703 426 740 356 740 c 0
 349 740 342 740 335 739 c 0
 279 733 219 703 184 648 c 0
 173 632 149 620 126 620 c 0
 121 620 116 621 111 622 c 0xfee0
113.010684365 631.795902154 m 0
 118.021983754 630.793642276 122.331500435 630 126 630 c 0
 145.855048574 630 167.146209134 641.136747686 175.65884662 653.518765847 c 1
 212.383470162 711.228888556 275.547751776 742.687350433 333.759844332 748.92436035 c 1
 341.285748217 749.999489476 349.117156083 750 356 750 c 0
 429.563338643 750 511 709.40943022 511 594 c 0
 511 392.925074114 81 309.993720654 81 59 c 0xfee0
 81 49.9387492351 85.1521904407 43.1550804025 92.8871366162 35.2525061418 c 1
 122.546638739 8.73025232163 206.833797825 -3 303 -3 c 0
 407.280170031 -3 523.013005243 8.95117459113 594.018841549 15.9517500016 c 0
 620.979051399 18.6477709866 639 37.5638558632 639 51 c 0
 639 61.7523515381 626.455685754 74 603 74 c 0
 595.576487778 74 l 1
 527.222093023 66.1303697722 418.035228976 61 328 61 c 0
 261.581263891 61 205.648804071 63.7384665825 177.400265266 71.3438424148 c 0
 169.431512485 73.4892758556 l 1
 170.025978661 81.7203459856 l 0
 183.985028957 274.999503923 599 364.025757275 599 606 c 0
 599 738.41011839 498.261521455 809 373 809 c 0
 360.629360088 809 348.600440517 808.01664557 335.930434929 807.042029756 c 1
 238.697001607 796.34635209 143.530450837 745.565422997 94.4081491906 666.584467409 c 1
 91.580675613 662.343257042 91 658.959268256 91 654 c 0
 91 644.467690433 97.6560329988 635.028460337 113.010684365 631.795902154 c 0
EndSplineSet
EndChar

StartChar: three
Encoding: 51 51 23
Width: 720
GlyphClass: 2
Flags: W
HStem: -27 10<295.904 417.269> 44 10<320.015 424.186> 150 10<104.23 149.279> 361 10<214.189 288.97> 372 10<299.404 431.826> 630 10<100.022 145.223> 741 10<306.184 392.124> 810 10<309.73 419.972>
VStem: 66 10<102.531 128.021> 76 10<651.991 677.925> 203 10<373.051 399.455> 491 10<565.983 646.042> 546 10<175.74 269.271> 589 10<575.416 658.98> 644 10<185.146 280.895>
LayerCount: 2
Back
Fore
SplineSet
103 633 m 0xffbe
 86 638 76 651 76 664 c 0xff7e
 76 671 78 677 83 684 c 0
 138 760 234 808 329 818 c 0
 342 819 354 820 366 820 c 0
 493 820 599 749 599 616 c 0
 599 535 547 473 488 436 c 1
 576 418 654 352 654 236 c 0
 654 126 598 44 504 3 c 0
 457 -18 406 -27 355 -27 c 0
 238 -27 124 23 71 98 c 0
 67 103 66 108 66 114 c 0
 66 129 77 144 97 153 c 0
 107 157 118 160 128 160 c 0
 145 160 161 153 169 142 c 0
 210 84 297 54 374 54 c 0
 405 54 434 59 458 69 c 0
 502 88 546 131 546 224 c 0
 546 347 461 372 376 372 c 0
 346 372 316 369 290 366 c 0
 268 364 252 361 232 361 c 0
 210 361 203 370 203 382 c 0
 203 405 229 437 229 437 c 1
 306 457 491 446 491 604 c 0
 491 705 421 741 351 741 c 0
 344 741 336 741 329 740 c 0
 274 734 214 707 177 656 c 0
 165 640 143 630 121 630 c 0
 115 630 109 631 103 633 c 0xffbe
105.992923914 642.543284229 m 0
 111.103102429 640.839891391 116.115185939 640 121 640 c 0
 140.154557891 640 159.293379815 649.057839754 168.952383951 661.936511935 c 1
 207.892716303 715.611024096 270.837186555 743.714293947 327.750310591 749.922998387 c 1
 335.395645697 751.015189116 344.085690674 751 351 751 c 0
 424.467480273 751 501 711.479105513 501 604 c 0
 501 437.674887614 307.992486621 445.585868324 234.779486804 428.134136696 c 1
 228.972406234 420.382603808 213 395.819520977 213 382 c 0
 213 376.07180604 213.26616935 371 232 371 c 0
 250.834755061 371 266.708252414 373.92380569 288.97405032 375.947969136 c 1
 314.817493784 378.92990492 345.419526126 382 376 382 c 0
 462.605739115 382 556 354.519034541 556 224 c 0
 556 127.300914887 509.237451016 80.2327566057 461.905417979 59.793924158 c 1
 436.238369752 49.0993207301 406.094700544 44 374 44 c 0
 294.923742711 44 204.596484891 74.3200546843 160.873064178 136.172698619 c 1
 155.415832934 143.67639158 142.494404286 150 128 150 c 0
 120.071735867 150 109.756640946 147.332326764 100.910529709 143.793882269 c 1
 83.5791607938 135.994766257 76 123.791154828 76 114 c 0xffbe
 76 109.107103465 76.5063646038 107.124854839 78.8086880944 104.246950476 c 0
 78.9947607376 104.014359672 l 1
 79.1666598107 103.771106266 l 0
 129.622321426 32.3715851122 240.514536774 -17 355 -17 c 0
 404.83480034 -17 454.417372685 -8.20114184199 499.920599378 12.1300871062 c 0
 590.635003241 51.69700794 644 129.717448099 644 236 c 0
 644 346.630676342 570.450473846 408.928079635 485.996037639 426.202850677 c 0
 461.534063054 431.206436388 l 1
 482.687109626 444.471906272 l 0
 539.917616695 480.362224264 589 539.621879078 589 616 c 0
 589 742.152794404 489.509063562 810 366 810 c 0
 354.652815394 810 342.626586043 809.018656765 329.907085531 808.040233648 c 1
 237.618466038 798.325642123 144.0459389 751.297361923 91.101166941 678.137313398 c 0
 87.0347992097 672.444398574 86 668.881779737 86 664 c 0
 86 656.302355268 92.0315851392 646.649560339 105.992923914 642.543284229 c 0
EndSplineSet
EndChar

StartChar: four
Encoding: 52 52 24
Width: 720
GlyphClass: 2
Flags: W
HStem: -30 10<485.011 530.089> 174 10<170.507 453.109> 243 10<185.537 456> 259 10<577.964 664.354> 609 10<492.612 539.354> 819 10<312.612 360.19>
VStem: 31 10<223.099 251.258> 276 10<719.435 796.646> 374 9.99992<727.294 807.595> 455 10<5.34873 179 257 586.261> 554 10<18.7519 186.364 263 596.779> 679 10<222.405 246.779>
LayerCount: 2
Back
Fore
SplineSet
330 829 m 2
 338 829 l 2
 364 829 384 815 384 796 c 0
 383 545 208 340 152 262 c 1
 190 256 244 253 307 253 c 0
 353 253 404 254 456 257 c 1
 456 310 455 366 455 420 c 0
 455 474 456 527 456 575 c 0
 456 596 480 616 510 619 c 2
 517 619 l 2
 544 619 564 604 564 585 c 0
 564 537 563 483 563 428 c 0
 563 373 564 317 564 263 c 1
 589 265 613 267 637 269 c 2
 642 269 l 2
 669 269 689 254 689 235 c 2
 689 234 l 2
 688 213 663 193 633 191 c 0
 612 189 589 188 564 186 c 1
 565 115 567 54 569 17 c 2
 569 16 l 2
 569 -5 546 -25 517 -29 c 0
 514 -29 510 -30 507 -30 c 0
 481 -30 462 -16 461 3 c 0
 459 42 457 105 456 179 c 1
 400 176 341 174 286 174 c 0
 147 174 31 187 31 234 c 0
 31 314 275 501 276 784 c 0
 276 805 300 826 330 829 c 2
330.503781971 819 m 1
 304.439015803 816.01341221 286 797.706268603 286 784 c 0
 284.985963506 497.027672324 41 302.091560904 41 234 c 0
 41 201.78221923 141.22533319 184 286 184 c 0
 340.759309364 184 399.60376276 185.993112214 455.465052786 188.985681323 c 0
 465.858447219 189.54247031 l 1
 465.99908705 179.135122798 l 0
 466.997597783 105.245328513 468.996900614 42.3166799281 470.986876635 3.51214751973 c 0
 471.595512529 -8.05193447089 483.942346331 -20 507 -20 c 0
 508.388003201 -20 510.397581527 -19.3331863739 516.298739335 -18.9991585735 c 1
 541.294923694 -15.1974501815 559 2.20034556211 559 16 c 0
 559 16.7294595952 l 1
 557.037244421 53.319331828 555.000115057 114.921411933 554.000991719 185.859168897 c 0
 553.869128193 195.221479219 l 1
 563.202547777 195.968152785 l 0
 588.526836019 197.994095845 611.227921736 198.971717837 632.193197 200.968410719 c 1
 659.117182117 202.76334306 677.966521669 220.361827004 679 234.238420958 c 1
 679 235 l 0
 679 245.919366768 666.226717526 259 642 259 c 0
 637.415947688 259 l 1
 614.203631128 257.065655411 589.667252569 255.021431242 564.797452223 253.031847215 c 0
 554 252.168051037 l 1
 554 263 l 0
 554 316.878003806 553 372.880203614 553 428 c 0
 553 483.118185477 554 537.135545527 554 585 c 0
 554 595.919366768 541.226717526 609 517 609 c 0
 510.502447994 609 l 1
 484.151202988 605.996778176 466 588.509175401 466 575 c 0
 466 526.864006319 465 473.878794757 465 420 c 0
 465 366.121032674 466 310.12329624 466 257 c 0
 466 247.56029489 l 1
 456.575965351 247.016600583 l 0
 404.328844726 244.002343624 353.145447576 243 307 243 c 0
 243.664545301 243 189.333885616 245.981289607 150.440374265 252.122370347 c 0
 134.414683043 254.652742645 l 1
 143.876762664 267.832067831 l 0
 200.447086369 346.626447278 373.017584256 549.433568468 374.000079363 796.039840321 c 0
 374.000079363 806.727772144 361.455603172 819 338 819 c 0
 330.503781971 819 l 1
EndSplineSet
EndChar

StartChar: five
Encoding: 53 53 25
Width: 720
GlyphClass: 2
Flags: W
HStem: -26 10<291.177 410.422> 43 10<322.651 412.831> 150 10<113.68 159.362> 334 10<120.776 160.687> 409 10<337.373 436.145> 477 10<342.278 465.594> 716 10<236 527.623> 784 10<249.654 521.699> 795 10<151.671 233.831 536.497 599.535>
VStem: 76 10<100.754 126.706> 106 10<348.593 423.941> 125 10<534.426 757 757.002 781.437> 226 10<572.959 719> 541 10<188.509 295.002> 614 10<757.22 782.23> 639 10<201.43 311.413>
LayerCount: 2
Back
Fore
SplineSet
109 154 m 0
 118 158 128 160 137 160 c 0
 155 160 172 153 180 141 c 0
 214 87 297 53 369 53 c 0
 377 53 384 53 391 54 c 0
 460 61 541 101 541 244 c 0
 541 305 524 345 500 370 c 0
 474 397 436 409 389 409 c 0
 330 409 259 389 189 350 c 1
 189 350 160 334 136 334 c 0
 119 334 106 342 106 368 c 2
 106 377 l 1
 114 461 128 593 128 696 c 0
 128 718 127 738 126 757 c 2
 126 757 125 760 125 764 c 0
 125 778 132 805 178 805 c 0
 184 805 190 805 197 804 c 0
 239 799 301 794 383 794 c 0
 470 794 526 798 567 804 c 0
 570 804 574 805 577 805 c 0
 602 805 622 792 624 773 c 2
 624 770 l 2
 624 750 602 730 573 726 c 0
 520 718 458 716 367 716 c 0
 317 716 274 717 236 719 c 1
 236 704 l 2
 236 623 229 529 221 451 c 1
 281 474 346 487 407 487 c 0
 497 487 578 458 620 383 c 0
 639 349 649 306 649 256 c 0
 649 90 536 -9 391 -24 c 0
 377 -25 364 -26 351 -26 c 0
 237 -26 129 22 80 99 c 0
 77 103 76 108 76 113 c 0
 76 128 89 146 109 154 c 0
112.889028724 144.785281875 m 0
 95.8143703309 137.955418518 86 122.619296088 86 113 c 0
 86 109.234319597 86.8073809871 106.590158684 88 105 c 0
 88.2304288624 104.692761517 l 1
 88.4366148773 104.368754922 l 0
 134.934218752 31.3010916898 239.459959727 -16 351 -16 c 0
 363.378387057 -16 376.458664491 -15.0131890738 390.129049186 -14.0367330241 c 1
 530.666082611 0.501580778407 639 95.4622890181 639 256 c 0
 639 304.69133741 629.241701198 345.962911441 611.270565179 378.121786423 c 0
 571.694095829 448.79405312 495.124499118 477 407 477 c 0
 347.408928467 477 283.511231749 464.25308962 224.579360116 441.662538827 c 0
 209.392772797 435.841013688 l 1
 211.052185614 452.020288655 l 0
 219.028647827 529.79079523 226 623.560401207 226 704 c 0
 226 729.540156627 l 1
 236.525588331 728.986178293 l 0
 274.304638016 726.997807257 317.133115915 726 367 726 c 0
 457.912584456 726 519.342501854 728.014032946 571.570491491 735.89750308 c 1
 597.851303398 739.522442654 614 757.361893213 614 770 c 0
 614 772.421672052 l 1
 612.547842292 783.30701414 599.540261097 795 577 795 c 0
 575.62975543 795 573.565758931 794.331111306 567.73054121 794.000815963 c 1
 527.681228724 788.184430612 469.857982753 784 383 784 c 0
 300.517797152 784 238.342932372 789.007609964 195.701650939 794.083952992 c 1
 189.237208674 795.007444744 184.088133433 795 178 795 c 0
 137.747584087 795 135 774.147027016 135 764 c 0
 135 761.489358087 135.578262852 759.873478856 135.578262852 759.873478856 c 0
 135.92310346 758.724010163 l 1
 135.986178293 757.525588331 l 0
 136.987101489 738.508047616 138 718.303530387 138 696 c 0
 138 592.284510682 124.077686262 461.247585153 116 376.52479507 c 1
 116 368 l 0
 116 346.847997391 123.470217265 344 136 344 c 0
 156.441994357 344 184.196953744 358.771017425 184.196953744 358.771017425 c 0
 255.275819103 398.372099553 327.826122393 419 389 419 c 0
 437.579327786 419 478.700719053 406.535149302 507.203202135 376.936416871 c 0
 533.38450547 349.664225897 551 306.827221018 551 244 c 0
 551 95.7343221947 464.481522508 51.403319162 392.212267128 44.0716555727 c 1
 384.736336573 43.0036654935 376.851264672 43 369 43 c 0
 294.499773977 43 208.1468022 77.527953996 171.607157162 135.561507879 c 1
 166.341607588 143.459832241 152.73439693 150 137 150 c 0
 129.361484744 150 120.894737294 148.343374573 112.889028724 144.785281875 c 0
EndSplineSet
EndChar

StartChar: six
Encoding: 54 54 26
Width: 720
GlyphClass: 2
Flags: W
HStem: -29 10<311.098 425.897> 39 10<343.704 429.03> 251 10<60.6936 90> 397 10<362.898 442.186> 466 10<366.612 474.962> 819 10<403.731 451.73>
VStem: 32 10<272.687 294.208> 90 9.98883<209.892 251> 188 10<226.2 320.573> 464 10<781.257 807.893> 560 10<184.025 268.724> 658 10<189.733 287.272>
LayerCount: 2
Back
Fore
SplineSet
45 262 m 0
 36 267 32 274 32 282 c 0
 32 293 40 304 52 314 c 0
 62 322 72 330 82 337 c 0
 86 340 91 343 95 346 c 0
 96 353 98 361 99 368 c 0
 127 514 216 677 381 813 c 0
 394 823 412 829 429 829 c 0
 440 829 450 827 458 822 c 0
 469 815 474 805 474 795 c 0
 474 785 469 775 459 767 c 0
 333 663 254 539 219 423 c 1
 291 458 361 476 423 476 c 0
 595 476 668 354 668 240 c 0
 668 222 666 205 663 188 c 0
 642 85 547 -29 367 -29 c 0
 183 -29 97 103 90 251 c 1
 86 251 l 2
 72 251 55 256 45 262 c 0
199 318 m 1
 199 306 l 2
 199 299 198 292 198 285 c 0
 198 137 278 49 383 49 c 0
 481 49 539 103 556 187 c 0
 559 201 560 215 560 228 c 0
 560 320 496 397 407 397 c 0
 364 397 303 382 221 332 c 0
 214 328 206 323 199 318 c 1
50.0020817434 270.660654744 m 0
 58.1020833141 265.800653801 74.2111682728 261 86 261 c 0
 99.5382059503 261 l 1
 99.9888335596 251.472444831 l 0
 106.820554865 107.030337222 189.280117864 -19 367 -19 c 0
 542.175877546 -19 633.099095719 91.3998410088 653.175152935 189.86812164 c 1
 656.057671391 206.202392887 658 222.824109095 658 240 c 0
 658 349.72305114 588.92477798 466 423 466 c 0
 362.925103189 466 294.311045668 448.490615222 223.371927069 414.006321459 c 0
 202.827892848 404.019638157 l 1
 209.426292163 425.888618744 l 0
 245.060246517 543.989724602 325.148760431 669.486029638 452.693330738 774.760913065 c 1
 460.911857744 781.33573467 464 788.45974756 464 795 c 0
 464 801.501924565 461.03875046 808.213154425 452.631245078 813.563385123 c 0
 446.966672239 817.103743147 438.820332997 819 429 819 c 0
 414.328017803 819 398.023077099 813.478352025 387.230492978 805.176364239 c 1
 224.240765807 670.833316389 136.275099124 509.269914191 108.880768646 366.428048129 c 1
 107.751479254 359.064050764 105.778889149 350.741545924 104.899494937 344.585786438 c 0
 104.313708499 340.485281374 l 1
 101 338 l 0
 96.3171227504 334.487842063 91.5726967551 331.679522566 87.8688876853 328.901665764 c 1
 77.9751828571 321.976072384 68.2264132786 314.174882148 58.3250295494 306.253775165 c 1
 47.2122041364 296.99308732 42 288.027893498 42 282 c 0
 42 277.751389692 43.2660919319 274.402871306 50.0020817434 270.660654744 c 0
189 323.146178953 m 1
 193.187618063 326.137334712 l 0
 200.475400943 331.342893912 208.933150041 336.622168235 215.915241801 340.611934955 c 1
 298.750148039 391.121024125 361.703105403 407 407 407 c 0
 502.48018333 407 570 324.397038598 570 228 c 0
 570 214.523847234 568.953408835 199.723171019 565.789977326 184.960490646 c 1
 547.97343642 96.9258179306 485.442254928 39 383 39 c 0
 271.134988438 39 188 133.480756772 188 285 c 0
 188 292.950535784 189 299.950535784 189 306 c 0
 189 323.146178953 l 1
EndSplineSet
EndChar

StartChar: seven
Encoding: 55 55 27
Width: 720
GlyphClass: 2
Flags: W
HStem: -19 10<298.674 344.781> 554 10<132.2 175.95> 716 10<242.035 519.478> 784 10<132.17 523.907> 795 10<107.237 150.275 573.576 640.107>
VStem: 69 10<748.72 780.558> 199 10<582.65 627.12> 274 10.0011<3.79906 27.1365> 648 10<762.606 788.145>
LayerCount: 2
Back
Fore
SplineSet
368 794 m 0
 470 794 538 800 603 804 c 2
 603 804 608 805 615 805 c 0
 631 805 658 801 658 779 c 0
 658 773 656 766 651 756 c 0
 521 509 451 325 383 19 c 0
 378 -2 349 -19 320 -19 c 0
 294 -19 274 -3 274 15 c 0
 274 17 275 19 275 21 c 0
 339 309 407 494 522 721 c 1
 475 718 420 716 352 716 c 0
 291 716 232 722 182 725 c 1
 191 689 202 646 209 599 c 1
 209 595 l 2
 209 577 190 560 165 555 c 0
 161 554 157 554 153 554 c 0
 131 554 114 565 111 581 c 0
 100 649 82 709 71 754 c 2
 71 754 69 759 69 766 c 0
 69 780 76 801 123 801 c 2
 130 801 l 2
 178 799 277 794 368 794 c 0
368 784 m 0
 276.80765169 784 177.234047804 789.023237884 129.791757011 791 c 1
 123 791 l 0
 79.9990544123 791 79 774.733139727 79 766 c 0
 79 760.554214461 80.36 757.52 80.36 757.52 c 0
 80.5713900239 756.957894709 l 1
 80.713990065 756.374530905 l 0
 91.5944103348 711.86372071 109.776467657 651.185436663 120.851733798 582.720155064 c 1
 122.583779694 573.482576954 133.781665876 564 153 564 c 0
 157.027596317 564 160.106679947 564.084434051 162.57464375 564.701425001 c 0
 162.805499263 564.75913888 l 1
 163.038838649 564.805806757 l 0
 185.735642529 569.345167533 199 584.242599282 199 595 c 0
 199 598.257453617 l 1
 192.277979257 642.937758147 181.192399699 686.999344949 172.298574999 722.57464375 c 0
 168.99262942 735.798426064 l 1
 182.598922907 734.982048455 l 0
 232.908058797 731.963500301 291.640906124 726 352 726 c 0
 419.805181297 726 474.57747531 727.99338084 521.362998458 730.979690829 c 0
 538.830684677 732.094649523 l 1
 530.920568998 716.48076901 l 0
 416.356161233 490.340590204 348.814534416 306.744070491 285.022001559 20.000617179 c 1
 284.799228009 18.3966476159 284.09841514 15.1784791784 284.001120781 14.7406545608 c 1
 284.302000126 5.11166377181 296.931501512 -9 320 -9 c 0
 346.21251108 -9 369.918513968 7.23182495736 373.254480011 21.2428823372 c 1
 441.330765835 327.586168544 511.96586311 513.306050462 642.102307786 760.565295347 c 1
 646.684473103 769.729625982 648 775.361859508 648 779 c 0
 648 789.968200078 632.478876558 795 615 795 c 0
 608.736255252 795 604.847956684 794.17223036 604.847956684 794.17223036 c 0
 604.235865118 794.057136219 l 1
 603.614222689 794.018881301 l 0
 538.811327117 790.031010804 470.389140369 784 368 784 c 0
EndSplineSet
EndChar

StartChar: eight
Encoding: 56 56 28
Width: 720
GlyphClass: 2
Flags: W
HStem: -24 10<293.289 414.158> 44 10<321.982 420.234> 394 9<337.011 352.733> 610 10<533.805 580.259> 651 10<510.375 558.233> 741 10<294.272 377.411> 809 10<294.125 406.582>
VStem: 76 10<150.786 229.447> 87 10<577.961 647.261> 174 10<168.386 239.374> 185 10<595.84 653.537> 549 10<162.722 234.52> 584 10<682.709 707.401> 594 10<572.468 599.199> 649 10<170.278 250.384>
LayerCount: 2
Back
Fore
SplineSet
242 428 m 1xfff6
 135 476 87 545 87 613 c 0
 87 623 88 633 90 643 c 0
 108 734 214 819 348 819 c 0
 471 819 548 764 588 713 c 0
 592 708 594 702 594 696 c 0xfffa
 594 682 583 667 565 658 c 0
 555 653 544 651 533 651 c 0
 516 651 501 657 492 667 c 0
 460 706 407 741 332 741 c 0
 268 741 209 700 197 643 c 0
 196 637 195 631 195 625 c 0
 195 579 229 525 333 486 c 1
 341 491 348 497 356 502 c 0
 460 569 516 607 516 607 c 2
 528 615 543 620 558 620 c 0
 571 620 584 616 593 609 c 0
 601 603 604 595 604 587 c 0
 604 575 597 563 585 554 c 0
 583 552 532 517 436 455 c 1
 586 405 659 307 659 211 c 0
 659 167 644 124 614 86 c 0
 563 21 468 -24 352 -24 c 0
 173 -24 76 86 76 188 c 0
 76 293 152 367 242 428 c 1xfff6
340 394 m 0
 241 329 184 283 184 200 c 0
 184 128 255 54 368 54 c 0
 451 54 500 84 528 127 c 0
 542 148 549 174 549 200 c 0
 549 274 491 357 346 393 c 0
 344 393 342 394 340 394 c 0
246.093007268 437.123995369 m 2
 262.45551753 429.78380385 l 1
 247.610514981 419.722191012 l 0
 158.099699019 359.053749082 86 287.565375422 86 188 c 0
 86 92.7260980876 177.082225499 -14 352 -14 c 0
 465.514587567 -14 557.448997632 30.125116641 606.132618419 92.172868625 c 0
 634.887894064 128.596217775 649 169.305456612 649 211 c 0
 649 301.464092833 580.212116011 396.388369129 432.83772234 445.513167019 c 0
 413.077314666 452.099969578 l 1
 430.574745685 463.400393778 l 0
 521.481710966 522.111142188 572.463011031 556.955817628 578.242220789 561.384356412 c 1
 578.431457505 561.573593129 l 1
 579 562 l 0
 589.194571394 569.645928545 594 579.00302435 594 587 c 0xfff6
 594 592.444294654 592.394274643 596.954294018 586.92982996 601.05262753 c 1
 579.952618733 606.479347373 569.067205348 610 558 610 c 0
 545.204374864 610 531.984314528 605.637705434 521.547001962 598.679497057 c 0
 521.547001962 598.679497057 465.565585591 560.690004331 361.358118515 493.556347656 c 1
 354.059100842 488.994461611 347.174499537 483.066585795 338.2999894 477.52001696 c 0
 334.112471733 474.902818418 l 1
 329.488765584 476.636708224 l 0
 223.592866022 516.34767056 185 573.288076772 185 625 c 0
 185 632.241610807 186.092466363 638.382423482 187.170875436 644.852877916 c 1
 200.436554187 707.864851986 264.141812717 751 332 751 c 0
 410.0653374 751 465.203056697 715.093294011 499.613288013 673.487715772 c 1
 506.105347159 666.591987178 518.158058767 661 533 661 c 0
 542.806573588 661 552.214328235 662.787504005 560.527864045 666.94427191 c 0
 576.355344756 674.858012266 584 687.259805152 584 696 c 0
 584 699.777580209 582.758440458 703.544138834 580.191311906 706.753049524 c 0
 541.757072345 755.756704965 467.835104852 809 348 809 c 0
 217.813007935 809 116.637973133 726.134675711 99.8099310517 641.059574078 c 0
 97.9261892433 631.640865035 97 622.345996111 97 613 c 0
 97 550.241445499 141.141065154 484.20524043 246.093007268 437.123995369 c 2
334.51159136 402.359268544 m 2
 337.010551577 404 l 1
 340 404 l 0
 343.558063815 404 345.469505033 403.176640871 346.264388953 403 c 1
 347.22281719 403 l 1
 348.409604009 402.70534948 l 0
 496.191930345 366.01456501 559 279.850375517 559 200 c 0
 559 172.275768781 551.541282672 144.28416763 536.350485862 121.497972415 c 1
 506.41081073 75.5191856053 453.529733365 44 368 44 c 0
 250.828330685 44 174 121.179534431 174 200 c 0
 174 288.903920076 235.959202486 337.653154637 334.51159136 402.359268544 c 2
EndSplineSet
EndChar

StartChar: nine
Encoding: 57 57 29
Width: 720
GlyphClass: 2
Flags: W
HStem: -29 10<268.27 316.269> 324 10<245.038 353.388> 393 10<277.814 357.102> 539 10<630 659.306> 751 10<290.97 376.296> 819 10<294.103 408.902>
VStem: 52 10<512.728 610.267> 150 10<531.276 615.975> 246 10<-7.8932 18.7431> 521 10<478.729 579.874> 620.011 9.98883<549 590.108> 678 10<505.792 527.313>
LayerCount: 2
Back
Fore
SplineSet
675 538 m 0
 684 533 688 526 688 518 c 0
 688 507 680 496 668 486 c 0
 658 478 648 470 638 463 c 0
 634 460 629 457 625 454 c 0
 624 447 622 439 621 432 c 0
 593 286 504 123 339 -13 c 0
 326 -23 308 -29 291 -29 c 0
 280 -29 270 -27 262 -22 c 0
 251 -15 246 -5 246 5 c 0
 246 15 251 25 261 33 c 0
 387 137 466 261 501 377 c 1
 429 342 359 324 297 324 c 0
 125 324 52 446 52 560 c 0
 52 578 54 595 57 612 c 0
 78 715 173 829 353 829 c 0
 537 829 623 697 630 549 c 1
 634 549 l 2
 648 549 665 544 675 538 c 0
521 482 m 1
 521 494 l 2
 521 501 522 508 522 515 c 0
 522 663 442 751 337 751 c 0
 239 751 181 697 164 613 c 0
 161 599 160 585 160 572 c 0
 160 480 224 403 313 403 c 0
 356 403 417 418 499 468 c 0
 506 472 514 477 521 482 c 1
669.997918257 529.339345256 m 0
 661.897916686 534.199346199 645.788831727 539 634 539 c 0
 620.46179405 539 l 1
 620.01116644 548.527555169 l 0
 613.179445135 692.969662778 530.719882136 819 353 819 c 0
 177.824122454 819 86.9009042806 708.600158991 66.8248470646 610.13187836 c 1
 63.9423286092 593.797607113 62 577.175890905 62 560 c 0
 62 450.27694886 131.07522202 334 297 334 c 0
 357.074896811 334 425.688954332 351.509384778 496.628072931 385.993678541 c 0
 517.172107152 395.980361843 l 1
 510.573707837 374.111381256 l 0
 474.939753483 256.010275398 394.851239569 130.513970362 267.306669262 25.2390869351 c 1
 259.088142256 18.6642653301 256 11.5402524398 256 5 c 0
 256 -1.50192456496 258.96124954 -8.21315442513 267.368754922 -13.5633851227 c 0
 273.033327761 -17.1037431469 281.179667003 -19 291 -19 c 0
 305.671982197 -19 321.976922901 -13.4783520246 332.769507022 -5.17636423911 c 1
 495.759234193 129.166683611 583.724900876 290.730085809 611.119231354 433.571951871 c 1
 612.248520746 440.935949236 614.221110851 449.258454076 615.100505063 455.414213562 c 0
 615.686291501 459.514718626 l 1
 619 462 l 0
 623.68287725 465.512157937 628.427303245 468.320477434 632.131112315 471.098334236 c 1
 642.024817143 478.023927616 651.773586721 485.825117852 661.674970451 493.746224835 c 1
 672.787795864 503.00691268 678 511.972106502 678 518 c 0
 678 522.248610308 676.733908068 525.597128694 669.997918257 529.339345256 c 0
531 476.853821047 m 1
 526.812381937 473.862665288 l 0
 519.524599057 468.657106088 511.066849959 463.377831765 504.084758199 459.388065045 c 1
 421.249851961 408.878975875 358.296894597 393 313 393 c 0
 217.51981667 393 150 475.602961402 150 572 c 0
 150 585.476152766 151.046591165 600.276828981 154.210022674 615.039509354 c 1
 172.02656358 703.074182069 234.557745072 761 337 761 c 0
 448.865011562 761 532 666.519243228 532 515 c 0
 532 507.049464216 531 500.049464216 531 494 c 0
 531 476.853821047 l 1
EndSplineSet
EndChar

StartChar: colon
Encoding: 58 58 30
Width: 330
GlyphClass: 2
Flags: W
HStem: -5 10<125.887 185.356> 122 10<142.78 204.575> 475 10<125.887 185.356> 602 10<142.78 204.575>
VStem: 81 10<35.3993 76.358 515.399 556.358> 238.18 9.82006<47.8281 92.2648 527.828 572.265>
LayerCount: 2
Back
Fore
SplineSet
231 592 m 0
 233 590 249 575 249 551 c 0
 249 547 249 542 248 538 c 0
 243 512 210 475 155 475 c 0
 105 475 81 506 81 536 c 0
 81 559 103 612 175 612 c 0
 181 612 187 611 191 610 c 2
 207 606 l 2
 217 603 226 598 231 592 c 0
231 112 m 0
 233 110 249 95 249 71 c 0
 249 67 249 62 248 58 c 0
 243 32 210 -5 155 -5 c 0
 105 -5 81 26 81 56 c 0
 81 79 103 132 175 132 c 0
 181 132 187 131 191 130 c 2
 207 126 l 2
 217 123 226 118 231 112 c 0
223.928932188 584.928932188 m 2
 223.60818136 585.249683017 l 1
 223.317787204 585.598156003 l 0
 220.246833568 589.283300367 212.884151842 593.794447938 204.126521144 596.421737148 c 1
 205.090765898 596.156723835 205.54478625 596.056039374 204.57464375 596.298574999 c 0
 188.57464375 600.298574999 l 0
 185.307232644 601.115427775 179.897242411 602 175 602 c 0
 109.107634346 602 91 554.223875232 91 536 c 0
 91 511.861561927 109.664542215 485 155 485 c 0
 205.47384193 485 234.202128287 519.203876273 238.17993553 539.888473937 c 0
 238.231872564 540.158546512 l 1
 238.298574999 540.42535625 l 0
 238.848597649 542.625446854 239 547.034353839 239 551 c 0
 239 570.476123328 225.859413937 582.998450439 223.928932188 584.928932188 c 2
223.928932188 104.928932188 m 2
 223.60818136 105.249683017 l 1
 223.317787204 105.598156003 l 0
 220.246833568 109.283300367 212.884151842 113.794447938 204.126521144 116.421737148 c 1
 205.090765898 116.156723835 205.54478625 116.056039374 204.57464375 116.298574999 c 0
 188.57464375 120.298574999 l 0
 185.307232644 121.115427775 179.897242411 122 175 122 c 0
 109.107634346 122 91 74.2238752319 91 56 c 0
 91 31.8615619269 109.664542215 5 155 5 c 0
 205.47384193 5 234.202128287 39.2038762728 238.17993553 59.8884739365 c 0
 238.231872564 60.1585465118 l 1
 238.298574999 60.4253562504 l 0
 238.848597649 62.6254468537 239 67.0343538395 239 71 c 0
 239 90.4761233282 225.859413937 102.998450439 223.928932188 104.928932188 c 2
EndSplineSet
EndChar

StartChar: semicolon
Encoding: 59 59 31
Width: 330
GlyphClass: 2
Flags: W
HStem: -182 10<79.4306 121.417> 48 10<82.5668 124.612> 117 10<128.333 193.204> 475 10<125.887 185.356> 602 10<142.78 204.575>
VStem: 61 10<-163.56 -142.334 70.8514 79.7134> 81 10<515.399 556.358> 170 10<-25.4093 39.7363> 239 10<529.384 570.741> 251 10<-23.1687 51.5253>
LayerCount: 2
Back
Fore
SplineSet
231 592 m 0
 233 590 249 575 249 551 c 0
 249 547 249 542 248 538 c 0
 243 512 210 475 155 475 c 0
 105 475 81 506 81 536 c 0
 81 559 103 612 175 612 c 0
 181 612 187 611 191 610 c 2
 207 606 l 2
 217 603 226 598 231 592 c 0
73 58 m 0
 68 63 65 69 65 75 c 0
 65 85 72 95 85 103 c 0
 89 106 93 109 98 111 c 0
 117 121 141 127 163 127 c 2
 168 127 l 2
 201 125 223 110 236 94 c 0
 252 74 261 46 261 15 c 0
 261 -50 222 -129 126 -176 c 0
 118 -180 108 -182 99 -182 c 0
 85 -182 73 -177 66 -169 c 0
 63 -165 61 -160 61 -155 c 0
 61 -143 69 -131 84 -124 c 0
 144 -94 170 -36 170 9 c 0
 170 28 165 45 157 55 c 0
 152 61 148 62 148 62 c 1
 148 62 144 62 135 57 c 0
 125 51 113 48 102 48 c 0
 90 48 80 51 73 58 c 0
223.928932188 584.928932188 m 2
 223.60818136 585.249683017 l 1
 223.317787204 585.598156003 l 0
 220.246833568 589.283300367 212.884151842 593.794447938 204.126521144 596.421737148 c 1
 205.090765898 596.156723835 205.54478625 596.056039374 204.57464375 596.298574999 c 0
 188.57464375 600.298574999 l 0
 185.307232644 601.115427775 179.897242411 602 175 602 c 0
 109.107634346 602 91 554.223875232 91 536 c 0
 91 511.861561927 109.664542215 485 155 485 c 0
 205.47384193 485 234.202128287 519.203876273 238.17993553 539.888473937 c 0
 238.231872564 540.158546512 l 1
 238.298574999 540.42535625 l 0
 238.848597649 542.625446854 239 547.034353839 239 551 c 0
 239 570.476123328 225.859413937 582.998450439 223.928932188 584.928932188 c 2
80.0710678119 65.0710678119 m 0
 84.5736050696 60.5685305541 91.5468374955 58 102 58 c 0
 111.300090165 58 121.44047521 60.5261889158 129.997918257 65.6606547437 c 1
 139.666798659 71.0322549673 144.969045011 71.8765745101 147.496365724 71.9884028603 c 1
 147.496365724 71.9884028603 -84.9004367545 61.7044554867 149.278314865 72.0663471513 c 1
 150.376133901 71.7305436815 l 1
 152.360949821 71.1234235176 158.199084519 69.1815979295 164.746224835 61.3250295494 c 1
 174.935314372 48.5886676281 180 29.6558827156 180 9 c 0
 180 -39.5465990185 152.296897708 -101.031891033 88.35128948 -133.004695147 c 1
 75.7791879315 -138.87167587 71 -147.66303731 71 -155 c 0
 71 -157.273047145 71.7730071654 -159.808052817 73.7739333102 -162.694481992 c 1
 78.1055945497 -167.371932497 87.2336389895 -172 99 -172 c 0
 106.566928132 -172 115.272708597 -170.183305814 121.527864045 -167.05572809 c 0
 214.519557485 -121.528544843 251 -46.0117086866 251 15 c 0
 251 44.1123197194 242.492549597 69.8765024107 228.191311906 87.7530495245 c 0
 216.808958601 101.762099745 198.74179726 114.802814039 167.73441471 117 c 1
 163 117 l 0
 142.765947609 117 120.095240307 111.328594607 102.657464328 102.150817776 c 0
 102.19701786 101.90847753 l 1
 101.713906764 101.715233091 l 0
 98.2272714241 100.320578955 95.028288026 98.0212160195 91 95 c 0
 90.6323570144 94.7242677608 l 1
 90.2409742566 94.483416833 l 0
 78.7665780678 87.4222499475 75 80.0352824709 75 75 c 0
 75 72.4013673827 76.4094485425 68.7326870812 80.0710678119 65.0710678119 c 0
EndSplineSet
EndChar

StartChar: less
Encoding: 60 60 32
Width: 600
GlyphClass: 2
Flags: W
HStem: 65 10<455.67 502.098> 606 10<459.711 502.779>
VStem: 63 10<326.483 346.732> 514 10<573.05 596.337> 524 10<92.588 116.518>
LayerCount: 2
Back
Fore
SplineSet
521 80 m 0xe8
 510 70 494 65 478 65 c 0
 468 65 459 67 451 71 c 0
 368 118 195 229 78 313 c 0
 72 317 63 326 63 337 c 0
 63 346 69 356 89 367 c 0
 196 426 356 540 443 603 c 0
 454 611 468 616 482 616 c 0
 493 616 504 613 512 607 c 0
 520 601 524 594 524 586 c 0xf0
 524 576 518 565 507 557 c 0
 430 501 301 407 190 341 c 1
 301 264 449 169 519 129 c 0
 529 123 534 115 534 106 c 0
 534 97 530 88 521 80 c 0xe8
514.314608204 87.4369790469 m 0
 521.621650703 93.9321279343 524 100.140303271 524 106 c 0xe8
 524 110.850906659 521.668808375 115.736811185 513.946254776 120.370343345 c 1
 443.634126884 160.54870214 295.525403577 255.627192035 184.300204281 332.783411367 c 0
 171.522236338 341.647407147 l 1
 184.889246071 349.59535888 l 0
 295.27720697 415.231443739 424.147062198 509.108291152 501.118283023 565.087360843 c 0
 510.10086221 571.620145706 514 579.991175205 514 586 c 0
 514 590.295099411 512.295418482 594.278436138 506 599 c 0
 500.213202536 603.340098098 491.265486309 606 482 606 c 0
 470.36220565 606 458.261362819 601.73419977 448.881716977 594.912639157 c 0
 361.710695725 531.788796182 201.771591149 417.762991461 93.8286097589 358.243029759 c 0
 74.9275091986 347.847424451 73 340.675028303 73 337 c 0
 73 331.448997904 78.6485605163 324.586130574 83.691244778 321.224341066 c 1
 200.568640342 237.312364764 372.136773034 127.208225435 455.73179688 79.8124711534 c 1
 461.75509979 76.9340786124 469.400748599 75 478 75 c 0
 492.049952822 75 505.564268499 79.4821247693 514.314608204 87.4369790469 c 0
EndSplineSet
EndChar

StartChar: equal
Encoding: 61 61 33
Width: 600
GlyphClass: 2
Flags: W
HStem: 201 10<155.011 482.056> 263 10<177.704 507.453> 271 10<110.344 333.347> 401 10<155.011 482.056> 463 10<177.704 507.453> 471 10<110.344 333.347>
VStem: 75 10<228.705 251.385 428.705 451.385> 514 10<233.228 256.488 433.228 456.488>
LayerCount: 2
Back
Fore
SplineSet
77 249 m 0xd3
 84 267 108 281 133 281 c 2
 138 281 l 1xb3
 191 276 259 273 337 273 c 0
 382 273 430 274 480 276 c 2
 482 276 l 2
 506 276 524 263 524 246 c 2
 524 242 l 2
 521 223 497 205 470 204 c 0
 418 202 369 201 322 201 c 0
 242 201 170 204 112 209 c 0
 90 211 75 224 75 240 c 0
 75 243 76 246 77 249 c 0xd3
77 449 m 0
 84 467 108 481 133 481 c 2
 138 481 l 1x97
 191 476 259 473 337 473 c 0x9b
 382 473 430 474 480 476 c 2
 482 476 l 2
 506 476 524 463 524 446 c 2
 524 442 l 2
 521 423 497 405 470 404 c 0
 418 402 369 401 322 401 c 0
 242 401 170 404 112 409 c 0
 90 411 75 424 75 440 c 0
 75 443 76 446 77 449 c 0
86.3979636753 245.575895285 m 0
 85.5794189638 243.089565724 85 240.649471093 85 240 c 0
 85 231.159617879 93.7964290255 220.696107377 112.90535746 218.958932065 c 0
 170.437952287 213.999225614 242.283232543 211 322 211 c 0
 368.85805907 211 417.728738954 211.996960599 469.615668779 213.992611746 c 0
 492.717295857 214.848227564 511.264332975 230.16631525 514 242.867715318 c 1
 514 246 l 0
 514 254.83326305 503.403788876 266 482 266 c 0
 480.199920064 266 l 1
 430.538356932 264.013537475 382.018652214 263 337 263 c 0xd3
 258.899676666 263 191.618006437 265.932280664 137.529800697 271 c 1
 133 271 l 0xb3
 111.09815957 271 91.2233869898 257.984126665 86.3979636753 245.575895285 c 0
86.3979636753 445.575895285 m 0
 85.5794189638 443.089565724 85 440.649471093 85 440 c 0
 85 431.159617879 93.7964290255 420.696107377 112.90535746 418.958932065 c 0
 170.437952287 413.999225614 242.283232543 411 322 411 c 0
 368.85805907 411 417.728738954 411.996960599 469.615668779 413.992611746 c 0
 492.717295857 414.848227564 511.264332975 430.16631525 514 442.867715318 c 1
 514 446 l 0
 514 454.83326305 503.403788876 466 482 466 c 0
 480.199920064 466 l 1
 430.538356932 464.013537475 382.018652214 463 337 463 c 0x9b
 258.899676666 463 191.618006437 465.932280664 137.529800697 471 c 1
 133 471 l 0x97
 111.09815957 471 91.2233869898 457.984126665 86.3979636753 445.575895285 c 0
EndSplineSet
EndChar

StartChar: greater
Encoding: 62 62 34
Width: 600
GlyphClass: 2
Flags: W
HStem: 64 10<97.2206 140.289> 605 10<97.9019 144.33>
VStem: 66 10<563.482 587.412> 76 10<83.663 106.95> 527 10<333.268 353.517>
LayerCount: 2
Back
Fore
SplineSet
79 600 m 0xe8
 90 610 106 615 122 615 c 0
 132 615 141 613 149 609 c 0
 232 562 405 451 522 367 c 0
 528 363 537 354 537 343 c 0
 537 334 531 324 511 313 c 0
 404 254 244 140 157 77 c 0
 146 69 132 64 118 64 c 0
 107 64 96 67 88 73 c 0
 80 79 76 86 76 94 c 0xd8
 76 104 82 115 93 123 c 0
 170 179 299 273 410 339 c 1
 299 416 151 511 81 551 c 0
 71 557 66 565 66 574 c 0
 66 583 70 592 79 600 c 0xe8
85.6853917958 592.563020953 m 0
 78.3783492974 586.067872066 76 579.859696729 76 574 c 0xe8
 76 569.149093341 78.3311916252 564.263188815 86.0537452242 559.629656655 c 1
 156.365873116 519.45129786 304.474596423 424.372807965 415.699795719 347.216588633 c 0
 428.477763662 338.352592853 l 1
 415.110753929 330.40464112 l 0
 304.72279303 264.768556261 175.852937802 170.891708848 98.8817169768 114.912639157 c 0
 89.8991377903 108.379854294 86 100.008824795 86 94 c 0
 86 89.7049005887 87.7045815179 85.7215638616 94 81 c 0
 99.7867974643 76.6599019018 108.734513691 74 118 74 c 0
 129.63779435 74 141.738637181 78.2658002305 151.118283023 85.087360843 c 0
 238.289304275 148.211203818 398.228408851 262.237008539 506.171390241 321.756970241 c 0
 525.072490801 332.152575549 527 339.324971697 527 343 c 0
 527 348.551002096 521.351439484 355.413869426 516.308755222 358.775658934 c 1
 399.431359658 442.687635236 227.863226966 552.791774565 144.26820312 600.187528847 c 1
 138.24490021 603.065921388 130.599251401 605 122 605 c 0
 107.950047178 605 94.4357315011 600.517875231 85.6853917958 592.563020953 c 0
EndSplineSet
EndChar

StartChar: question
Encoding: 63 63 35
Width: 480
GlyphClass: 2
Flags: W
HStem: -5 10<196.887 256.356> 122 10<213.78 275.575> 255 10<193.651 231.881> 594 10<52.8979 96.7845> 784 10<188.123 268.111> 846 10<189.415 293.924>
VStem: 11 10<654.638 721.009> 98 10<676.155 725.359> 120 10<622.652 646.651> 152 10<35.3993 76.358> 161 10<312.486 384.648> 241 10<321.564 382.625> 254 10<283.197 309.947> 310 10<49.3844 90.7412> 351 10<637.295 702.791> 439 10<634.621 719.725>
LayerCount: 2
Back
Fore
SplineSet
229 258 m 0xffbf
 222 256 215 255 209 255 c 0
 194 255 184 262 178 275 c 0
 166 303 161 328 161 351 c 0
 161 492 351 559 351 665 c 0
 351 693 344 715 334 732 c 0
 312 769 271 784 230 784 c 0
 208 784 187 780 168 773 c 0
 137 760 108 738 108 702 c 0
 108 687 114 669 126 648 c 0
 128 644 130 639 130 635 c 0
 130 621 118 607 99 599 c 0
 91 596 82 594 74 594 c 0
 57 594 41 601 34 612 c 0
 18 638 11 664 11 689 c 0
 11 753 60 807 131 835 c 0
 166 849 205 856 243 856 c 0
 318 856 390 828 426 768 c 0
 441 742 449 711 449 675 c 0
 449 503 251 466 251 354 c 0
 251 339 254 323 262 305 c 0
 263 302 264 298 264 295 c 0
 264 280 250 265 229 258 c 0xffbf
302 112 m 0
 304 110 320 95 320 71 c 0
 320 67 320 62 319 58 c 0
 314 32 281 -5 226 -5 c 0
 176 -5 152 26 152 56 c 0xffdf
 152 79 174 132 246 132 c 0
 252 132 258 131 262 130 c 2
 278 126 l 2
 288 123 297 118 302 112 c 0
226.043860467 267.555545689 m 0
 244.89859852 273.840458374 254 286.3910264 254 295 c 0
 254 295.988851487 253.567248714 298.477620325 252.661307301 301.387613956 c 1
 244.690201042 319.691708451 241 337.803342576 241 354 c 0
 241 478.253176845 439 511.130940783 439 675 c 0
 439 709.482596719 431.323910255 738.760780864 417.380974346 762.92853644 c 1
 383.916991757 818.701840756 315.805459901 846 243 846 c 0
 206.217334479 846 168.40967982 839.193542314 134.713906764 825.715233091 c 0
 65.8885728239 798.572847876 21 747.420276044 21 689 c 0
 21 665.927226871 27.4450135668 641.732274857 42.4770805802 617.30516596 c 1
 46.8171681964 610.485028278 59.3682472268 604 74 604 c 0
 80.2631196124 604 88.6366289497 605.793740538 95.3026373376 608.293493683 c 1
 112.012970795 615.32942356 120 626.946491533 120 635 c 0
 120 635.779736074 118.63474356 640.369833106 117.19773341 643.243853404 c 1
 105.052178618 664.764924177 98 684.353215857 98 702 c 0
 98 744.364746979 131.958315951 768.729446246 164.33605958 782.307209704 c 1
 184.86346436 789.869937781 206.675554993 794 230 794 c 0
 273.190866953 794 318.221253959 778.103566751 342.59535888 737.110753929 c 0
 353.529583955 718.522571302 361 694.700452145 361 665 c 0
 361 547.937861097 171 483.413138974 171 351 c 0xffbf
 171 329.570394136 175.714471823 305.718809432 187.137251485 279.065656889 c 1
 191.652571757 269.282462965 197.679735302 265 209 265 c 0
 213.779973728 265 220.35748931 265.930868216 226.043860467 267.555545689 c 0
294.928932188 104.928932188 m 2
 294.60818136 105.249683017 l 1
 294.317787204 105.598156003 l 0
 291.246833568 109.283300367 283.884151842 113.794447938 275.126521144 116.421737148 c 1
 276.090765898 116.156723835 276.54478625 116.056039374 275.57464375 116.298574999 c 0
 259.57464375 120.298574999 l 0
 256.307232644 121.115427775 250.897242411 122 246 122 c 0
 180.107634346 122 162 74.2238752319 162 56 c 0xffdf
 162 31.8615619269 180.664542215 5 226 5 c 0
 276.47384193 5 305.202128287 39.2038762728 309.17993553 59.8884739365 c 0
 309.231872564 60.1585465118 l 1
 309.298574999 60.4253562504 l 0
 309.848597649 62.6254468537 310 67.0343538395 310 71 c 0
 310 90.4761233282 296.859413937 102.998450439 294.928932188 104.928932188 c 2
EndSplineSet
EndChar

StartChar: at
Encoding: 64 64 36
Width: 1020
GlyphClass: 2
Flags: W
HStem: -179 10<429.609 552.21> -131 10<442.961 553.31> -76 10<682.347 720.417> 38 10<419.397 499.35 678.205 710.703> 92 10<450.826 496.764> 352 10<624.9 661.977> 399 10<641.079 682.131> 490 10<538.334 588.11> 544 10<536.703 624.301> 711 10<496.367 613.949> 759 10<502.708 631.419>
VStem: 74 10<167.266 307.646> 143 10<178.723 309.799> 293 10<171.501 278.71> 372 10<189.539 284.349> 622 10<417.306 447.057> 670 10<149.517 296.388> 702 10<425.474 467.252> 726 10<-100.23 -81.7885> 865 10<333.756 451.557> 935 10<338.713 458.779>
LayerCount: 2
Back
Fore
SplineSet
690 345 m 1
 685 301 680 251 680 220 c 0
 680 146 692 107 705 99 c 0
 707 100 712 102 719 106 c 0
 814 165 865 279 865 393 c 0
 865 485 832 576 762 638 c 0
 710 684 641 711 552 711 c 0
 352 711 205 547 164 346 c 0
 157 311 153 276 153 242 c 0
 153 48 268 -121 508 -121 c 0
 571 -121 650 -88 674 -74 c 0
 683 -69 692 -66 702 -66 c 0
 713 -66 723 -69 729 -75 c 0
 733 -79 736 -85 736 -90 c 0
 736 -99 729 -109 718 -116 c 0
 682 -138 591 -179 496 -179 c 0
 196 -179 74 25 74 235 c 0
 74 272 78 310 85 346 c 0
 127 553 291 769 564 769 c 0
 677 769 765 733 826 678 c 0
 905 607 945 504 945 398 c 0
 945 270 886 139 765 64 c 0
 746 52 723 43 698 41 c 2
 692 41 l 2
 640 41 620 90 615 159 c 1
 587 93 543 38 465 38 c 0
 336 38 293 129 293 222 c 0
 293 245 295 268 300 290 c 0
 324 405 415 554 585 554 c 0
 701 554 712 456 712 436 c 0
 712 419 691 402 667 399 c 2
 660 399 l 2
 639 399 622 411 622 426 c 0
 622 446 601 490 571 490 c 0
 492 490 411 405 388 290 c 0
 384 270 382 251 382 234 c 0
 382 154 422 102 479 102 c 0
 525 102 570 196 603 331 c 0
 607 348 620 362 643 362 c 0
 661 362 690 345 690 345 c 1
679.310336764 339.450241749 m 1
 670.971447966 343.778825246 652.075439887 352 643 352 c 0
 624.837202613 352 615.857166129 341.982333059 612.734171683 328.709606663 c 0
 580.296546679 196.010231644 536.373960574 92 479 92 c 0
 414.391084623 92 372 151.230676981 372 234 c 0
 372 251.780723425 374.080975011 271.395070192 378.194193243 291.961161351 c 0
 401.71056898 409.543040034 484.85635581 500 571 500 c 0
 610.409501271 500 632 448.753254556 632 426 c 0
 632 419.378796802 641.582675223 409 660 409 c 0
 666.355332955 409 l 1
 686.893605506 411.923084489 702 426.739967059 702 436 c 0
 702 454.467816963 692.682861638 544 585 544 c 0
 421.898418887 544 333.338018487 400.795647981 309.770980205 287.870256211 c 1
 304.937221235 266.601716744 303 244.46134683 303 222 c 0
 303 131.985353952 342.815450865 48 465 48 c 0
 537.189692902 48 578.316369271 98.1363680367 605.794182181 162.905498469 c 0
 621.978765941 201.054874473 l 1
 624.97384796 159.722742606 l 0
 629.988643376 90.518565862 649.087855845 51 692 51 c 0
 697.608115552 51 l 1
 720.041310059 52.9728581543 741.805088876 61.1780587926 759.660070086 72.4548890303 c 0
 877.465560434 145.474821064 935 272.946670426 935 398 c 0
 935 501.537271387 895.939305119 601.697996728 819.315555819 670.56237901 c 0
 760.276343762 723.794455455 674.861615998 759 564 759 c 0
 297.12564015 759 136.174663246 547.928007672 94.8003058912 344.011532138 c 0
 87.9478133861 308.770142111 84 271.242155078 84 235 c 0
 84 29.0825229798 202.0453127 -169 496 -169 c 0
 588.166327679 -169 678.189877407 -128.608950968 712.707935239 -107.514582293 c 1
 721.905920693 -101.661318822 726 -93.8927559888 726 -90 c 0
 726 -88.7021469204 724.367935499 -84.5100711231 721.928932188 -82.0710678119 c 0
 718.655618079 -78.797753703 711.393710703 -76 702 -76 c 0
 694.117173414 -76 686.781959408 -78.3385004855 678.948114044 -82.6906367989 c 1
 653.605328436 -97.4739284033 574.114111516 -131 508 -131 c 0
 261.91338791 -131 143 43.8521455001 143 242 c 0
 143 276.784072278 147.086643638 312.423413328 154.194193243 347.961161351 c 0
 195.840604693 552.13015407 345.848672516 721 552 721 c 0
 643.063443854 721 714.7072713 693.18707151 768.625738822 645.489965625 c 0
 841.173470819 581.233402999 875 487.305920931 875 393 c 0
 875 276.208403022 823.027609874 158.835017872 724.120337337 97.4083959808 c 1
 716.347658419 92.9668651703 710.766419076 90.7028696507 709.472135955 90.05572809 c 0
 704.496623677 87.5679719509 l 1
 699.759025743 90.483416833 l 0
 679.658627403 102.852892735 670 146.471313009 670 220 c 0
 670 250.752536686 674.37943975 295.334605299 679.310336764 339.450241749 c 1
EndSplineSet
EndChar

StartChar: A
Encoding: 65 65 37
Width: 810
GlyphClass: 2
Flags: W
HStem: -16 10<59.176 105.442> 3 10<691.91 743.511> 179 10<55.363 115.989> 209 10<345.555 531.532> 271 10<367.469 561.372> 810 10<388.548 432.83>
VStem: 33 10<199.266 219.86> 39 10<2.88916 27.7617> 763 10<27.8384 58.9924>
LayerCount: 2
Back
Fore
SplineSet
232 196 m 1xfe80
 199 124 167 60 137 11 c 0
 128 -5 104 -16 81 -16 c 0
 77 -16 73 -16 69 -15 c 0
 50 -11 39 0 39 14 c 0xfd80
 39 19 40 24 43 29 c 0
 67 69 95 124 124 185 c 1
 111 183 98 182 88 180 c 0
 84 179 80 179 76 179 c 0
 53 179 35 191 33 207 c 2
 33 209 l 2
 33 227 55 245 82 250 c 0
 103 253 129 257 158 260 c 1
 239 444 321 662 360 774 c 0
 362 779 364 784 365 788 c 0
 373 812 390 820 408 820 c 0
 435 820 464 802 464 802 c 1
 609 532 730 186 767 64 c 0
 768 60 770 57 771 53 c 0
 772 49 773 45 773 41 c 0
 773 15 744 3 717 3 c 0
 697 3 677 10 670 24 c 0
 624 119 631 209 481 209 c 0
 428 209 324 204 232 196 c 1xfe80
265 269 m 1
 353 276 444 281 499 281 c 0
 531 281 561 277 585 272 c 1
 541 389 483 529 421 659 c 1
 379 547 323 401 265 269 c 1
222.909351771 200.166547105 m 2
 225.334665969 205.45814172 l 1
 231.133703836 205.962405882 l 0
 323.449320252 213.989850788 427.466121463 219 481 219 c 0
 637.942634117 219 635.029238762 119.168079854 678.972695355 28.4152890655 c 1
 683.118348369 20.1239830365 698.497996593 13 717 13 c 0
 743.014497553 13 763 24.3904981088 763 41 c 0
 763 43.3371527975 762.303973469 46.5530498673 761.298574999 50.5746437496 c 0
 760.883461856 52.2350963214 758.666513148 56.1533601384 757.430415911 61.0977490877 c 1
 720.644242706 182.392698574 600.909127718 525.026696386 456.519367323 794.79023691 c 1
 450.240321817 798.318824445 426.973090473 810 408 810 c 0
 393.470394354 810 381.656620983 805.216048217 374.63480072 785.283619997 c 1
 373.497375176 781.147063419 371.007344543 774.620310227 369.443829864 770.711523529 c 1
 330.34730448 658.434322427 248.321215413 440.354390931 167.15241672 255.970946987 c 0
 164.810560764 250.651175433 l 1
 159.028991511 250.053082062 l 0
 130.49751554 247.101550065 104.194907364 243.069175606 83.6182401601 240.12965172 c 1
 58.6521998757 235.506310927 43 219.008630077 43 209 c 0
 43 207.681972138 l 1xfe80
 44.5993580296 199.351867623 55.8097172837 189 76 189 c 0
 80.0275963165 189 83.1066799471 189.084434051 85.5746437496 189.701425001 c 0
 85.8054992628 189.75913888 l 1
 86.0388386486 189.805806757 l 0
 96.9880475172 191.995648531 109.938739166 192.954380209 122.479428157 194.883716977 c 0
 141.135904433 197.753944096 l 1
 133.031340046 180.706412109 l 0
 103.955307587 119.546481765 75.8785570319 64.361088737 51.5749292571 23.8550424457 c 0
 49.6191792804 20.5954591511 49 17.6574055073 49 14 c 0
 49 6.24564353577 54.4682775967 -1.7214858946 71.2435184365 -5.25311554508 c 1
 74.1168012497 -5.97143624837 76.8653585588 -6 81 -6 c 0
 101.457307893 -6 121.756598054 4.29790737389 128.374916584 16.0638069843 c 1
 158.235205966 64.8356129741 189.948077402 128.251039391 222.909351771 200.166547105 c 2
265.792949815 259.031488045 m 2
 249.11418269 257.704767933 l 1
 255.84480546 273.022736995 l 0
 313.709767643 404.715409551 369.66235682 550.57963067 411.636708224 662.511234416 c 0
 419.897913015 684.541113856 l 1
 430.026036812 663.304725249 l 0
 492.182822113 532.975981877 550.266344805 392.769037679 594.36 275.52 c 0
 600.759943042 258.50196964 l 1
 582.960457459 262.210195803 l 0
 559.542449997 267.088947357 530.167358897 271 499 271 c 0
 444.541349926 271 353.599755395 266.016120307 265.792949815 259.031488045 c 2
EndSplineSet
EndChar

StartChar: B
Encoding: 66 66 38
Width: 800
GlyphClass: 2
Flags: W
HStem: -22 10<231.878 378.811> 49 10<256.633 392.047> 395 10<411.309 537.522> 634 10<152.763 199.793> 661 10<47.1698 97.186> 742 10<316.487 425.686> 809 10<324.524 455.462>
VStem: 26 10<680.77 707.664> 116 10<544.644 612.723> 121 10<35.9824 583.89> 223 10<68.4774 383 421 569.286> 537 10<589.018 653.502> 636 10<265.141 321.063 596.163 672.089> 735 10<249.683 330.082>
LayerCount: 2
Back
Fore
SplineSet
233 353 m 2xff3c
 232 239 229 126 229 72 c 1
 245 64 279 59 322 59 c 0
 403 59 514 79 577 139 c 0
 607 168 631 208 636 266 c 0
 636 271 637 276 637 281 c 0
 637 369 569 395 482 395 c 0
 471 395 460 395 449 394 c 0
 430 393 410 390 391 387 c 0
 352 373 309 360 266 352 c 1
 266 352 246 366 233 383 c 1
 233 353 l 2xff3c
233 421 m 1
 239 424 l 2
 245 427 251 429 258 431 c 0
 290 443 327 453 366 461 c 1
 393 471 418 481 441 492 c 0
 503 520 537 572 537 622 c 0
 537 644 530 666 516 685 c 0
 494 716 449 742 374 742 c 0
 309 742 221 722 104 668 c 0
 93 663 81 661 70 661 c 0
 53 661 39 666 31 677 c 0
 27 682 26 688 26 694 c 0
 26 709 37 723 56 732 c 0
 187 792 300 819 392 819 c 0
 461 819 519 804 562 777 c 0
 618 742 646 689 646 634 c 0
 646 577 616 517 558 470 c 1
 661 456 745 400 745 292 c 0
 745 286 745 280 744 274 c 0
 729 83 536 0 380 -17 c 0
 353 -20 326 -22 300 -22 c 0
 225 -22 157 -8 130 27 c 0
 124 34 121 44 121 54 c 0xff7c
 121 110 125 247 125 376 c 0
 125 463 123 547 116 596 c 1
 116 600 l 2xffbc
 116 620 138 638 165 643 c 0
 169 644 173 644 177 644 c 0
 201 644 221 632 224 614 c 0
 230 567 232 497 233 422 c 2
 233 421 l 1
223 353.043858805 m 2
 223 412.53918043 l 1
 240.94357833 389.074501076 l 0
 249.546722572 377.824235528 262.131703269 367.450793848 268.427500949 362.639371231 c 1
 308.588681643 370.465992737 350.359473244 383.0358875 387.621352464 396.411946708 c 0
 388.508906236 396.730555754 l 1
 389.440374265 396.877629653 l 0
 408.371458424 399.866748205 429.057116074 402.964215367 448.28426771 403.976170717 c 1
 459.443740905 404.99066828 471.125834128 405 482 405 c 0
 570.103574039 405 647 377.171236362 647 281 c 0
 647 274.671714404 646 269.671714404 646 266 c 0
 646 265.569763377 l 1
 645.96304769 265.141116578 l 0
 640.750348416 204.673805007 615.389212151 162.201141049 583.950220968 131.81011624 c 0
 517.61188636 68.6307499459 404.237827355 49 322 49 c 0
 278.250438799 49 243.507214735 53.5660527449 224.527864045 63.05572809 c 0
 219 65.8196601125 l 1
 219 72 l 0
 219 126.286883644 222.000740309 239.128254072 223 353.043858805 c 2
223 404.819660113 m 1
 223 421.933336296 l 1
 222.003886357 496.641859525 220.077911445 565.189782883 214.101603321 612.570739243 c 1
 212.027095066 623.118925383 198.712314276 634 177 634 c 0
 172.972403683 634 169.893320053 633.915565949 167.42535625 633.298574999 c 0
 167.125157357 633.223525275 l 1
 166.820892602 633.16717995 l 0
 141.752952958 628.524968905 126 612.410812067 126 600 c 0
 126 596.705971141 l 1xffbc
 132.851243335 548.121440997 135 462.797186918 135 376 c 0
 135 246.845159083 131 109.667517819 131 54 c 0
 131 45.8942853441 133.568758223 38.2023561684 137.592566024 33.5079137346 c 0
 137.760349008 33.3121669195 l 1
 137.917822556 33.1080345429 l 0
 161.1187981 3.03269587458 225.389231127 -12 300 -12 c 0
 325.488794035 -12 352.138251373 -10.0342108051 378.895684739 -7.06116265326 c 0
 533.676223889 9.80594738231 719.642116422 91.5683489997 734.030696053 274.782929629 c 0
 734.064686942 275.215746956 l 1
 734.136060762 275.643989873 l 0
 734.957877329 280.574889275 735 285.990822982 735 292 c 0
 735 393.232773134 657.294196278 446.411749833 556.653161104 460.091113837 c 0
 533.732987193 463.206477281 l 1
 551.704165017 477.769328277 l 0
 607.825131123 523.246662879 636 580.574890832 636 634 c 0
 636 685.463179813 610.03204256 735.187496985 556.7000106 768.52001696 c 0
 515.684289707 794.274074265 459.59624243 809 392 809 c 0
 301.973828503 809 190.169790787 782.45282178 60.2226853109 722.935063546 c 1
 43.3166473555 714.926940304 36 703.691448295 36 694 c 0
 36 688.992804219 36.8446746344 685.701967301 38.8086880944 683.246950476 c 0
 38.9522203387 683.06753517 l 1
 39.087360843 682.881716977 l 0
 44.4863313699 675.458132502 54.729590542 671 70 671 c 0
 79.8098542409 671 90.4414260609 672.821599095 99.861970557 677.103664775 c 0
 217.598916444 731.443793646 306.987595399 752 374 752 c 0
 451.244223316 752 499.896235325 724.970375504 524.10345932 690.860196239 c 1
 539.257102423 670.294537742 547 646.1067796 547 622 c 0
 547 567.376896834 509.933846714 512.158929902 445.215717068 482.931387481 c 1
 422.028370021 471.841786719 396.556135387 461.653250107 369.473143558 451.622512393 c 0
 368.757268103 451.357373335 l 1
 368.009441437 451.203972994 l 0
 329.398440914 443.283767758 292.853401951 433.39002105 261.511234416 421.636708224 c 0
 261.134294206 421.495355646 l 1
 260.747211279 421.384760524 l 0
 253.970964416 419.448689991 248.660956606 417.650138415 243.472135955 415.05572809 c 0
 223 404.819660113 l 1
EndSplineSet
EndChar

StartChar: C
Encoding: 67 67 39
Width: 750
GlyphClass: 2
Flags: W
HStem: -20 10<354.527 476.283> 52 10<388.534 479.399> 169 10<643.447 693.984> 586 10<594.671 644.096> 739 10<388.014 470.714> 811 10<390.736 497.863>
VStem: 68 10<313.378 457.553> 172 10<324.223 475.525> 569 10<608.622 653.845> 673 10<618.735 669.383> 707 10<131.981 157.39>
LayerCount: 2
Back
Fore
SplineSet
684 178 m 0
 705 174 717 160 717 145 c 0
 717 140 715 134 712 128 c 0
 664 50 565 -6 457 -18 c 0
 442 -20 428 -20 413 -20 c 0
 229 -20 68 109 68 387 c 0
 68 651 225 799 407 819 c 0
 420 820 432 821 445 821 c 0
 576 821 683 747 683 632 c 0
 683 610 657 589 626 586 c 2
 618 586 l 2
 591 586 569 600 569 620 c 0
 569 699 501 739 429 739 c 0
 422 739 414 739 407 738 c 0
 320 729 182 648 182 399 c 0
 182 137 325 62 432 62 c 0
 440 62 449 62 457 63 c 0
 520 70 578 101 608 150 c 0
 619 168 645 179 670 179 c 0
 675 179 679 179 684 178 c 0
682.083818467 168.185197279 m 0
 678.121172005 168.977726572 675.063820862 169 670 169 c 0
 647.364531016 169 624.95177243 158.561970241 616.532818337 144.785499905 c 0
 584.499369168 92.4641995961 523.416104439 60.3180281175 458.172386296 53.0687261016 c 1
 449.437834097 51.9769070768 439.972157265 52 432 52 c 0
 319.518147739 52 172 132.438561936 172 399 c 0
 172 652.367348812 313.914517116 738.423832624 405.777937219 747.926945048 c 1
 413.35979348 749.010067371 422.103371629 749 429 749 c 0
 504.055029412 749 579 706.367656025 579 620 c 0
 579 608.669785132 593.13407 596 618 596 c 0
 625.514856621 596 l 1
 652.961031909 599.027694261 673 617.65142215 673 632 c 0
 673 739.46458233 572.921075632 811 445 811 c 0
 432.629003695 811 420.601156343 810.016700634 407.929893495 809.041988107 c 1
 231.449520878 789.648540567 78 646.560864682 78 387 c 0
 78 113.586465451 234.609995385 -10 413 -10 c 0
 428.090314794 -10 441.353006659 -9.99776847849 455.786878394 -8.07325224716 c 1
 561.227298599 3.64234999784 656.715354337 57.8778790085 703.256477452 132.87234038 c 1
 705.403177446 137.333343682 707 142.740557886 707 145 c 0
 707 154.156430788 699.674357478 164.83461842 682.083818467 168.185197279 c 0
EndSplineSet
EndChar

StartChar: D
Encoding: 68 68 40
Width: 810
GlyphClass: 2
Flags: W
HStem: -21 10<246.612 381.964> 49 10<275.315 392.527> 634 10<152.763 199.793> 661 10<49.5117 98.3649> 742 10<301.447 415.31> 810 10<300.992 442.369>
VStem: 26 10<682.33 708.001> 116 10<542.185 612.723> 121 10<46.8737 577.758> 223 10<75.3163 569.889> 630 10<328.701 673> 729 10<335.833 492.802>
LayerCount: 2
Back
Fore
SplineSet
34 675 m 0xff70
 28 681 26 687 26 694 c 0
 26 707 35 721 51 730 c 0
 125 771 206 800 287 813 c 0
 317 818 346 820 375 820 c 0
 562 820 711 717 734 494 c 0
 737 465 739 438 739 412 c 0
 739 123 550 1 370 -18 c 0
 351 -20 332 -21 313 -21 c 0
 228 -21 151 -1 127 42 c 0
 123 48 121 56 121 64 c 0xfef0
 121 118 125 247 125 369 c 0
 125 458 123 544 116 596 c 1
 116 600 l 2
 116 620 138 638 165 643 c 0
 169 644 173 644 177 644 c 0
 201 644 221 632 224 614 c 0
 231 560 233 475 233 388 c 0
 233 265 229 137 229 80 c 1
 241 70 282 59 333 59 c 0
 386 59 449 70 502 106 c 0
 568 150 630 236 630 400 c 0
 630 424 629 449 626 476 c 0
 605 673 490 742 361 742 c 0
 339 742 317 740 295 736 c 0
 235 726 170 704 109 670 c 0
 98 664 86 661 74 661 c 0
 58 661 43 666 34 675 c 0xff70
42.1595217488 680.982613875 m 0
 48.596176851 674.545958773 59.9085560793 671 74 671 c 0
 84.3311063474 671 94.6689262849 673.573927143 104.211478693 678.778955729 c 0
 166.046776302 713.244531445 232.303989122 735.688602404 293.283485083 745.851851731 c 1
 315.707380276 749.928923584 338.430699899 752 361 752 c 0
 494.404140355 752 614.448024375 678.709546366 635.943662963 477.059984377 c 0
 638.98269486 449.7086973 640 424.263995566 640 400 c 0
 640 233.318743641 576.439986513 143.608153424 507.547001962 97.6794970566 c 0
 452.410522818 60.2283036757 387.260569949 49 333 49 c 0
 280.829427871 49 238.528743371 59.0422977306 222.598156003 72.317787204 c 0
 219 75.3162505402 l 1
 219 80 l 0
 219 137.342025527 223 265.168130657 223 388 c 0
 223 474.785624291 221.068314978 558.214307163 214.102482962 612.566266559 c 1
 212.026456136 623.122174132 198.712507126 634 177 634 c 0
 172.972403683 634 169.893320053 633.915565949 167.42535625 633.298574999 c 0
 167.125157357 633.223525275 l 1
 166.820892602 633.16717995 l 0
 141.752952958 628.524968905 126 612.410812067 126 600 c 0
 126 596.666266891 l 1xff70
 132.859811996 545.090542005 135 457.806327707 135 369 c 0
 135 246.834830099 131 117.650668139 131 64 c 0
 131 57.6014690499 132.722377977 51.4441894122 135.320502943 47.5470019623 c 0
 135.539533862 47.2184555843 l 1
 135.73197702 46.8736615926 l 0
 156.230316403 10.1474701978 228.352969656 -11 313 -11 c 0
 331.649105455 -11 350.298280994 -10.0186161193 368.953152155 -8.05494547079 c 0
 545.117613235 10.5401920876 729 128.593622175 729 412 c 0
 729 437.485743439 727.034704016 464.148662935 724.053082062 492.971008489 c 0
 701.583566258 710.827618239 557.820306052 810 375 810 c 0
 346.459071519 810 318.038361985 808.03512278 288.643989873 803.136060762 c 0
 208.777173052 790.317929667 128.922042442 761.740718871 55.8463898688 721.25285731 c 0
 42.2312142227 713.594321009 36 702.32738271 36 694 c 0
 36 689.114826639 37.4268579223 685.715277701 42.1595217488 680.982613875 c 0
EndSplineSet
EndChar

StartChar: E
Encoding: 69 69 41
Width: 740
GlyphClass: 2
Flags: W
HStem: -24 10<236.786 450.375> -9 9.99232<532.96 646.453> 46 10<259.747 470.642> 59 10<533.244 660.633> 361 9.99198<89.2904 108.2 227 256 389.855 537.23> 423 10<524.046 524.493 525.2 558.182> 726 10<219 531.225> 794 10<120.668 529.264> 799 10<94.7811 331.987> 804 10<533.228 630.19>
VStem: 66 10<382.98 399.838 400.143 408.231> 106 10<56.1975 175.35> 121 10<279.079 360 438.475 688.277> 204 10<82.3995 104.665> 220 10<304.674 356 435 699.471> 564 10<392.738 417.491> 644 10<767.907 792.595> 674 10<22.4688 47.6568>
LayerCount: 2
Back
Fore
SplineSet
684 32 m 2xfe7fc0
 681 11 655 -8 625 -9 c 0
 523 -13 414 -24 323 -24 c 0
 198 -24 106 -3 106 86 c 2
 106 96 l 1
 111 173 116 261 119 360 c 1
 115 360 112 361 108 361 c 0
 83 362 66 377 66 395 c 0
 66 398 66 400 67 403 c 0
 72 422 96 437 121 439 c 1
 121 469 122 502 122 534 c 0
 122 566 121 600 121 634 c 0
 120 703 109 719 86 729 c 0
 83 730 78 732 73 733 c 1
 73 733 72 742 72 754 c 0
 72 777 77 809 109 809 c 2
 111 809 l 1xfebfc0
 196 805 271 804 335 804 c 0xff3fc0
 469 804 557 810 600 814 c 1
 608 814 l 2
 634 814 654 800 654 781 c 0
 654 760 630 739 600 736 c 0
 551 731 463 726 330 726 c 0
 296 726 259 726 219 727 c 1
 226 705 229 677 229 646 c 0
 229 608 230 572 230 537 c 0
 230 502 229 468 229 435 c 1
 265 434 297 433 329 433 c 0
 386 433 443 435 524 439 c 1
 527 439 l 2
 554 439 574 425 574 406 c 2
 574 403 l 2
 572 382 546 362 516 361 c 0
 433 357 372 355 311 355 c 0
 284 355 256 355 227 356 c 1
 224 262 219 179 214 104 c 1
 214 101 l 2
 214 67 247 56 331 56 c 0
 398 56 496 63 635 69 c 1
 638 69 l 2
 665 69 684 55 684 36 c 2
 684 32 l 2xfe7fc0
674 32.7679379571 m 1
 674 36 l 0
 674 46.9438656756 662.391917862 59 638 59 c 0
 635.215726896 59 l 1
 496.821309639 53.0261402623 398.513718967 46 331 46 c 0
 249.570967227 46 204 56.0752538496 204 101 c 0
 204 104.332963784 l 1
 204.022148421 104.665190105 l 0
 209.018985142 179.617740913 214.010390227 262.485094299 217.005088915 356.318986524 c 0
 217.324894702 366.339567858 l 1
 227.344622758 365.994059994 l 0
 256.123153668 365.001696859 284.000047253 365 311 365 c 0
 371.823847531 365 432.487996062 366.986931092 515.592718925 370.991977977 c 1
 542.131474452 371.876603162 562.312047261 389.708085128 564 403.526955693 c 1
 564 406 l 0
 564 416.654489363 551.605130609 429 527 429 c 0
 524 429 l 1
 524.999695679 429.024668813 525.492009022 429.061493619 524.493226123 429.012171007 c 0
 443.435304279 425.009310669 386.243266472 423 329 423 c 0
 296.788569522 423 264.699040408 424.004502708 228.722329328 425.003855793 c 0
 219 425.273920497 l 1
 219 435 l 0
 219 468.201854199 220 502.190318795 220 537 c 0
 220 571.808637455 219 607.82383807 219 646 c 0
 219 676.362511469 215.987241469 703.487537154 209.4707422 723.967963427 c 0
 205.21352581 737.347786367 l 1
 219.249921912 736.996876464 l 0
 259.09631451 736.000716649 296.000424776 736 330 736 c 0
 462.737034049 736 550.490374877 740.999924258 598.98486312 745.948341425 c 0
 626.007268286 748.650581942 644 767.562883626 644 781 c 0
 644 791.752351538 631.455685754 804 608 804 c 0
 600.463219524 804 l 1xfe7fc0
 558.195104801 800.084285305 469.00638012 794 335 794 c 0xff3fc0
 270.894944313 794 195.726991971 795.001780896 110.529931967 799.011054308 c 1
 111.529655572 798.987544408 112 799 111 799 c 0
 109 799 l 0
 86.9898606883 799 82 777.779744546 82 754 c 0
 82 748.812797437 82.1416178977 745.274114501 82.4037012373 740.818697728 c 1
 83.9269325689 740.320149827 88.1149669266 738.835936558 89.1622776602 738.486832981 c 0
 89.5817586286 738.347005991 l 1
 89.9872611141 738.170700563 l 0
 118.135511766 725.932330714 129.993208385 703.54108137 131 634.072459963 c 1
 131 600.106129459 132 566.246972668 132 534 c 0
 132 501.797370659 131 468.784063347 131 439 c 0
 131 429.768051037 l 1
 121.797452223 429.031847215 l 0
 99.2998960752 427.232042723 80.0643167816 413.350638361 76.6707453726 400.455067007 c 0
 76.5887360089 400.143431425 l 1
 76.4868329805 399.83772234 l 0
 75.9454634297 398.213613687 76 398.149341705 76 395 c 0
 76 384.152420926 86.9039224111 371.851839906 108.199920064 371 c 1
 113.597642844 371 116.978971855 370 119 370 c 0
 129.307620618 370 l 1
 128.995411791 359.697108734 l 0
 125.990896088 260.548090534 121.068668511 173.817962483 116 95.6755411237 c 1
 116 86 l 0
 116 7.60196612826 196.32000201 -14 323 -14 c 0
 413.234752822 -14 522.200372044 -3.02367156285 624.608144333 0.992319507315 c 0
 650.906190861 1.86892105825 671.167483984 18.2312065714 674 32.7679379571 c 1
EndSplineSet
EndChar

StartChar: F
Encoding: 70 70 42
Width: 710
GlyphClass: 2
Flags: W
HStem: -14 10<140.646 186.771> 355 10<232 511.757> 360 10<91.2951 124 315.859 534.904> 423 10<524.046 524.499 525.2 558.182> 726 10<219 530.688> 794 10<116.558 529.264> 798.843 10.1574<111 331.992> 804 10<533.228 630.19>
VStem: 59 10<743.275 758.497> 66 10<382.98 399.838 400.143 408.223> 116 10<8.22061 354.371> 124 10<25.883 360 438.634 668.442> 214.014 9.98602<17.405 350.613> 222 10<34.311 356 435 687.869> 564 10<392.738 417.491> 644 10<767.907 792.595>
LayerCount: 2
Back
Fore
SplineSet
654 781 m 0x9983
 654 760 630 739 600 736 c 0
 551 731 461 726 329 726 c 0
 295 726 259 726 219 727 c 1
 227 703 229 677 229 646 c 0
 230 575 231 504 231 435 c 1
 267 434 298 433 330 433 c 0
 387 433 444 435 524 439 c 1
 527 439 l 2
 554 439 574 425 574 406 c 2
 574 403 l 2
 572 382 546 362 516 361 c 0
 434 357 374 355 313 355 c 0
 287 355 260 355 232 356 c 1xd987
 232 241 230 131 224 29 c 0
 223 8 198 -12 168 -14 c 2
 163 -14 l 2
 136 -14 116 1 116 20 c 2
 116 21 l 1xd92b
 122 125 124 240 124 360 c 1
 119 360 113 361 108 361 c 0
 83 362 66 377 66 395 c 0xb853
 66 398 66 400 67 403 c 0
 72 422 97 437 123 439 c 1
 122 503 122 568 121 634 c 0
 120 703 109 719 86 729 c 0
 83 730 78 732 73 733 c 0
 63 736 59 742 59 748 c 0
 59 771 111 809 111 809 c 1xba83
 196 805 271 804 335 804 c 0x9c83
 469 804 557 810 600 814 c 1
 608 814 l 2
 634 814 654 800 654 781 c 0x9983
644 781 m 0
 644 791.752351538 631.455685754 804 608 804 c 0
 600.463219524 804 l 1xd907
 558.195104801 800.084285305 469.00638012 794 335 794 c 0x9c07
 271.407882716 794 199.66920881 794.908300574 114.138904334 798.842632068 c 1
 102.364422373 789.761419343 69 759.21912776 69 748 c 0x9a87
 69 747.103111556 68.5238628923 745.06935133 75.3644834205 742.733743043 c 1
 80.593020341 741.536699596 86.8690769799 739.251233207 89.1622776602 738.486832981 c 0
 89.5817586286 738.347005991 l 1
 89.9872611141 738.170700563 l 0
 118.126114604 725.936416437 129.994130976 703.477422621 130.998949966 634.144912318 c 0
 132.000240239 568.059754284 132.000487989 503.046888923 132.99877952 439.15623093 c 0
 133.145737828 429.75089921 l 1
 123.766964989 429.029455145 l 0
 99.9922791747 427.200633159 79.9967894369 413.094034451 76.6707453726 400.455067007 c 0
 76.5887360089 400.143431425 l 1
 76.4868329805 399.83772234 l 0
 75.9454634297 398.213613687 76 398.149341705 76 395 c 0
 76 384.152420926 86.9039224111 371.851839906 108.199920064 371 c 1
 113.963016824 371 120.35392055 370 124 370 c 0
 134 370 l 1
 134 360 l 0xba53
 134 239.819381392 132.060683623 126.243100315 126 20.710984328 c 1
 126 20 l 0
 126 9.08063323208 138.773282474 -4 163 -4 c 0
 167.689201065 -4 l 1
 194.063387699 -1.86287979586 213.354080486 15.6736506163 214.013975811 29.5314524419 c 1xba2b
 220.004561922 131.371416332 222 241.079737955 222 356 c 0
 222 366.363518376 l 1
 232.356915305 365.993628543 l 0
 260.127865419 365.001808897 287.00005377 365 313 365 c 0
 373.825421967 365 433.477428823 366.986399334 515.589788693 370.991880303 c 1
 542.13392772 371.876684937 562.312031101 389.707952826 564 403.526955693 c 1
 564 406 l 0
 564 416.654489363 551.605130609 429 527 429 c 0
 524 429 l 1
 524.999688036 429.0249766 525.498128508 429.062414228 524.499376169 429.012476611 c 0
 444.437286851 425.009372145 387.242753045 423 330 423 c 0
 297.78676462 423 266.692151532 424.004694066 230.722329328 425.003855793 c 0
 221 425.273920497 l 1
 221 435 l 0
 221 503.950726216 220.002311433 574.765469242 219 645.929580957 c 1
 219 676.700301735 216.987527756 701.414640132 209.513167019 723.83772234 c 0
 205.008100466 737.352922 l 1
 219.249921912 736.996876464 l 0
 259.099842562 736.000628448 294.999596406 736 329 736 c 0
 460.731099441 736 550.507384725 741.001659956 598.98486312 745.948341425 c 0
 626.007268286 748.650581942 644 767.562883626 644 781 c 0
EndSplineSet
EndChar

StartChar: G
Encoding: 71 71 43
Width: 790
GlyphClass: 2
Flags: W
HStem: -24 10<357.775 471.748> 44 10<385.75 473.855> 290 10<410.236 457.936> 390 10<566.014 638.514> 587 10<595.81 643.388> 741 10<388.453 470.583> 810 10<391.909 498.316>
VStem: 71 10<306.574 457.556> 169 10<322.563 475.569> 386 10<311.901 338.364> 572 10<608.466 653.923> 615 10<202.964 281.16> 670 10<619.226 669.091> 715 10<212.274 308.262>
LayerCount: 2
Back
Fore
SplineSet
387 316 m 0
 386 319 386 322 386 325 c 0
 386 343 403 360 428 367 c 0
 467 378 548 395 596 399 c 0
 600 399 603 400 606 400 c 0
 615 400 624 399 632 397 c 0
 703 383 725 324 725 264 c 0
 725 244 723 225 719 206 c 0
 699 107 608 -24 412 -24 c 0
 210 -24 71 128 71 387 c 0
 71 651 228 799 408 818 c 0
 421 819 433 820 446 820 c 0
 576 820 680 746 680 632 c 0
 680 611 656 590 626 587 c 2
 618 587 l 2
 592 587 572 601 572 620 c 0
 572 699 504 741 430 741 c 0
 423 741 415 741 408 740 c 0
 318 730 179 648 179 399 c 0
 179 152 312 54 428 54 c 0
 536 54 594 121 611 206 c 0
 614 219 615 231 615 242 c 0
 615 284 599 315 590 321 c 1
 562 318 478 300 452 293 c 0
 446 291 439 290 433 290 c 0
 411 290 392 300 387 316 c 0
396.516663134 319.0727872 m 0
 399.621590096 309.137020922 413.358835972 300 433 300 c 0
 437.912951439 300 444.079889114 300.900888572 448.83772234 302.486832981 c 0
 449.116505885 302.579760829 l 1
 449.400265266 302.656157585 l 0
 476.237975397 309.881694928 559.510627667 327.790515707 588.934668764 330.943091539 c 0
 592.534564411 331.328794644 l 1
 595.547001962 329.320502943 l 0
 609.820821507 319.804623247 625 285.89852681 625 242 c 0
 625 230.482965806 623.895989201 217.410406326 620.776972383 203.89466678 c 1
 603.122614821 115.622878968 541.136210346 44 428 44 c 0
 305.518535792 44 169 148.121675949 169 399 c 0
 169 652.447462937 311.973498131 739.391927724 406.740428301 749.921586631 c 1
 414.408470354 751.01702121 423.079366039 751 430 751 c 0
 507.201926381 751 582 706.272457745 582 620 c 0
 582 609.247648462 594.544314246 597 618 597 c 0
 625.496218029 597 l 1
 651.560984197 599.98658779 670 618.293731397 670 632 c 0
 670 738.608630293 572.793231813 810 446 810 c 0
 433.614939746 810 421.629404202 809.018873546 408.908527482 808.040344568 c 1
 234.472192516 789.627620321 81 646.591962336 81 387 c 0
 81 131.788347746 216.404750253 -14 412 -14 c 0
 602.697586531 -14 689.959768184 112.75085251 709.198019802 207.98019802 c 0
 713.0952464 226.492024362 715 244.625657441 715 264 c 0
 715 321.988826843 694.641798693 374.455543975 630.065419755 387.18891447 c 0
 629.818652669 387.237572769 l 1
 629.57464375 387.298574999 l 0
 622.519210018 389.062433432 614.260887386 390 606 390 c 0
 604.314740728 390 604.59885417 389.367768442 595.928098902 388.958126461 c 1
 551.21997052 385.122075451 468.411352377 368.007920112 430.71460165 357.37550324 c 0
 407.874323156 350.980225262 396 336.374711825 396 325 c 0
 396 321.895649466 396.093418124 320.342522229 396.516663134 319.0727872 c 0
EndSplineSet
EndChar

StartChar: H
Encoding: 72 72 44
Width: 820
GlyphClass: 2
Flags: W
HStem: -14 10<134.81 182.388 647.353 665.467> 355 10<86.9039 111 271.14 529.054> 423 10<221 606> 794 10<642.612 690.19> 799 10<137.916 185.251>
VStem: 66 10<382.686 408.461> 101 10<698.701 777.723> 111 9.99956<7.46706 361 436.617 645.684> 211 10<21.2249 357 436 643.159> 605 10<28.2833 358 435 770.523> 704 10<39.87 365.24 438.498 782.534> 744 10<392.084 418.433>
LayerCount: 2
Back
Fore
SplineSet
666 -9 m 0xf6f0
 663 -9 660 -10 657 -10 c 0
 631 -10 612 5 611 24 c 0
 609 107 607 228 606 358 c 1
 536 356 460 355 383 355 c 0
 328 355 273 356 221 357 c 1
 221 247 220 134 219 31 c 0
 219 10 195 -11 165 -14 c 2
 157 -14 l 2
 131 -14 111 0 111 19 c 0xf5f0
 112 126 113 246 113 361 c 1
 108 361 l 2
 83 362 66 377 66 395 c 0
 66 398 66 400 67 403 c 0
 72 420 91 434 113 438 c 1
 112 563 109 678 101 762 c 1
 101 765 l 2
 101 785 122 803 151 808 c 0
 155 809 159 809 163 809 c 0xeef0
 188 809 207 796 209 778 c 0
 217 688 220 566 221 436 c 1
 291 434 368 433 445 433 c 0
 500 433 555 434 606 435 c 1
 606 490 605 545 605 600 c 0
 605 655 606 709 606 759 c 0
 606 780 630 801 660 804 c 2
 668 804 l 2
 694 804 714 790 714 771 c 0
 714 719 713 664 713 608 c 0
 713 552 714 495 714 439 c 1
 738 437 754 424 754 406 c 2
 754 403 l 2
 752 386 736 370 714 364 c 1
 715 236 717 118 719 36 c 2
 719 35 l 2
 719 14 695 -5 666 -9 c 0xf6f0
665.374337627 1.01200766094 m 0
 690.715572007 4.84183527677 709 21.646537379 709 35 c 0
 709 35.8780669118 l 1
 707.005240093 117.663223079 705.000123458 235.945135447 704.000305162 363.921877384 c 0
 703.940150798 371.6216359 l 1
 711.368825942 373.647638212 l 0
 730.278077047 378.804706696 742.344964929 392.145753499 744 403.642220553 c 1
 744 406 l 0
 744 416.799563742 734.519179717 427.255406208 713.169545201 429.034542418 c 0
 704 429.798671184 l 1
 704 439 l 0
 704 494.881859373 703 551.881860196 703 608 c 0
 703 664.117985508 704 719.127025062 704 771 c 0
 704 781.752351538 691.455685754 794 668 794 c 0
 660.503781971 794 l 1xf5f0
 634.439015803 791.01341221 616 772.706268603 616 759 c 0
 616 708.868715347 615 654.880356329 615 600 c 0
 615 545.121208301 616 490.121208309 616 435 c 0
 616 425.194156279 l 1
 606.196040749 425.001921783 l 0
 555.184912371 424.00170358 500.120361951 423 445 423 c 0
 367.913044212 423 290.827965071 424.000834484 220.714402261 426.004079135 c 0
 211.07447718 426.279505566 l 1
 211.000295845 435.923079199 l 0
 210.001777067 565.730520376 206.977700349 687.807301097 199.049013956 777.005023016 c 1
 197.867378617 787.639741069 185.232098245 799 163 799 c 0
 158.972403683 799 155.893320053 798.915565949 153.42535625 798.298574999 c 0
 153.065057096 798.20850021 l 1
 152.699069165 798.145398843 l 0
 125.702729977 793.490857603 111 777.544974684 111 765 c 0
 111 762.474615 l 1xeef0
 118.904105733 678.970776621 122.001103791 562.902025458 122.999680015 438.07999744 c 0
 123.066988665 429.666416223 l 1
 114.788854382 428.161300899 l 0
 95.3329367901 424.623861337 80.1570971336 412.294039961 76.5432842291 400.007076086 c 1
 75.8808147779 398.019667732 76 398.238554015 76 395 c 0
 76 384.152420926 86.9039224111 371.851839906 108.199920064 371 c 1
 123 371 l 1
 123 361 l 0
 123 245.942846746 121.99964129 125.914890131 120.999563309 18.9065461373 c 0
 120.999563309 8.30530460558 133.54476865 -4 157 -4 c 0
 164.496218029 -4 l 1
 190.560984197 -1.01341220991 209 17.2937313974 209 31 c 0
 210.00212872 134.219258179 211 246.995458464 211 357 c 0
 211 367.194156634 l 1
 221.192272142 366.9981514 l 0
 273.184207311 365.998306493 328.12055486 365 383 365 c 0
 459.913149843 365 535.825442331 365.999093438 605.714402261 367.995920865 c 0
 615.921160911 368.28754254 l 1
 615.999704155 358.076920801 l 0
 616.998541581 228.22805548 619.003368704 106.980663211 620.993666157 24.3833189156 c 1
 621.605229698 12.7636116388 634.316822857 0 657 0 c 0
 658.331853755 0 658.88014856 0.584406734732 665.374337627 1.01200766094 c 0
EndSplineSet
EndChar

StartChar: I
Encoding: 73 73 45
Width: 480
GlyphClass: 2
Flags: W
HStem: -3 10<93.7562 329.085> 3 9.98969<72.438 238.75> 59 10<90.7898 192> 67 10<295.973 413.015> 729 9.99445<288 380.635> 788 10<102.028 407.145>
VStem: 53 10<20.8931 38.7946> 77 10.0585<741.737 769.218> 188 10<65 566.138> 194 10<101.403 699.664> 282 10<81.273 579.105> 288 10<115.368 714.656> 414 10<49.1783 63.6951 758.957 781.798>
LayerCount: 2
Back
Fore
SplineSet
55 38 m 0x4f28
 63 55 90 69 116 69 c 2
 119 69 l 2
 145 68 170 66 192 65 c 1
 189 75 188 83 188 93 c 0x6fa8
 188 273 194 406 194 574 c 0
 194 606 193 638 193 673 c 0
 192 728 171 714 89 732 c 0
 85 733 81 733 77 734 c 1
 77 739 l 2
 77 754 80 798 117 798 c 2
 119 798 l 2
 172 796 222 795 268 795 c 0
 309 795 347 796 381 798 c 2
 386 798 l 2
 409 798 426 787 426 772 c 2
 426 768 l 2
 423 750 397 734 369 732 c 0
 343 730 318 730 288 729 c 1
 294 717 297 703 297 687 c 0
 297 652 298 619 298 587 c 0x6f58
 298 418 292 286 292 107 c 2
 292 105 l 2
 292 78 293 77 329 77 c 2
 337 77 l 2
 352 77 373 76 400 75 c 0
 418 74 424 68 424 60 c 0
 424 41 390 11 390 11 c 1
 336 1 289 -3 241 -3 c 0x9f28
 193 -3 145 1 91 3 c 0
 69 4 53 15 53 29 c 0
 53 32 54 35 55 38 c 0x4f28
64.2893603287 34.2460126201 m 0
 63.7058777738 32.4736843594 63 29.4710898954 63 29 c 0
 63 23.6735539718 71.1499835872 13.9125987213 91.4540766092 12.9896854021 c 0x6f88
 145.552794561 10.9860291817 193.613097725 7 241 7 c 0
 287.744941805 7 332.367908915 10.6870512663 385.371043239 20.317024788 c 1
 392.461021197 26.953853702 414 51.1474684524 414 60 c 0
 414 60.3449529479 415.998222451 64.0957896542 399.537552125 65.010271339 c 1
 372.705532164 66.0040498561 351.520398121 67 337 67 c 0
 329 67 l 0
 310.593669894 67 297.417345551 65.4539709059 288.431149901 75.2033172579 c 0
 280.903901403 83.3698156902 282 93.5924595641 282 105 c 0
 282 107 l 0x9fa8
 282 286.248900649 288 418.264214487 288 587 c 0
 288 618.790649836 287 651.808690906 287 687 c 0
 287 701.760711193 284.250221676 714.138876873 279.05572809 724.527864045 c 0
 272.082180104 738.474960017 l 1
 287.666851698 738.99444907 l 0
 317.867279747 740.001130005 342.738847439 740.009453503 368.233035011 741.970544855 c 0
 393.73587578 743.792176338 413.555499311 758.454854158 416 768.952780885 c 1
 416 772 l 0
 416 778.104439582 407.243109627 788 386 788 c 0
 381.295640464 788 l 1
 347.653727431 786.042647834 309.027513498 785 268 785 c 0
 221.983089604 785 171.481541878 786.012447019 118.811387876 788 c 1
 117 788 l 0
 93.2813437413 788 87.8136552184 762.251102532 87.0584630675 742.549699359 c 1
 87.1441031573 742.536318095 90.0107964579 742.05506495 91.2851915116 741.736466186 c 1
 167.876627357 724.923711976 201.847194311 736.49521448 203 673.090901579 c 1
 203 638.082014948 204 606.265815877 204 574 c 0x9f58
 204 405.734807792 198 272.753517994 198 93 c 0
 198 83.6653273052 198.828434501 77.0395733594 201.578262852 67.8734788557 c 0
 205.629257596 54.3701630431 l 1
 191.545923391 55.0103145979 l 0
 169.448150285 56.01475883 144.080004406 58.0279907296 118.807763375 59 c 1
 116 59 l 0
 93.3623284383 59 70.9220856682 46.671638412 64.2893603287 34.2460126201 c 0
EndSplineSet
EndChar

StartChar: J
Encoding: 74 74 46
Width: 540
GlyphClass: 2
Flags: W
HStem: -14 10<172.107 271.726> 55 9<206.147 264.995> 129 10<52.7437 100.592> 730 9.98752<388 459.247> 788 10<177.15 482.723>
VStem: 16 10<81.7759 107.25> 152 10.0373<740.922 769.227> 318 10<146.01 424.861> 412 10<149.382 435.084> 492 10<761.367 779.694>
LayerCount: 2
Back
Fore
SplineSet
422 229 m 0
 422 134 413 4 251 -13 c 0
 241 -14 230 -14 220 -14 c 0
 130 -14 56 31 21 78 c 0
 17 83 16 88 16 94 c 0
 16 108 27 123 46 132 c 0
 56 137 67 139 78 139 c 0
 95 139 111 133 119 122 c 0
 142 91 196 64 236 64 c 0
 242 64 247 65 251 65 c 0
 291 69 318 102 318 216 c 0
 318 336 310 565 298 671 c 0
 291 728 245 710 152 734 c 1
 152 739 l 2
 152 754 155 798 192 798 c 2
 194 798 l 2
 247 796 297 795 343 795 c 0
 384 795 422 796 456 798 c 2
 461 798 l 2
 485 798 502 786 502 771 c 2
 502 768 l 2
 499 750 472 734 444 732 c 0
 426 731 408 731 388 730 c 1
 395 719 400 705 402 689 c 0
 414 579 422 351 422 229 c 0
412 229 m 0
 412 350.511909945 403.958455196 578.83698608 392.067488165 687.837517199 c 1
 390.253011114 702.353333603 385.641361978 715.080138591 379.563385123 724.631245078 c 0
 370.337313349 739.129357865 l 1
 387.500623831 739.987523389 l 0
 407.752754371 741.000129916 425.927916215 741.011415555 443.366375063 741.980218824 c 1
 468.804260421 743.797210636 489.57327626 758.662327109 492 768.960385898 c 1
 492 771 l 0
 492 777.339019753 482.946782491 788 461 788 c 0
 456.295640464 788 l 1
 422.653727431 786.042647834 384.027513498 785 343 785 c 0
 296.983089604 785 246.481541878 786.012447019 193.811387876 788 c 1
 192 788 l 0
 167.723087304 788 162.560331267 760.487330093 162.037300318 741.80268214 c 1
 243.025903876 722.488165682 299.957845239 737.097854566 307.925434553 672.218913015 c 0
 320.049962961 565.118912077 328 336.510468856 328 216 c 0
 328 101.766997788 300.14244602 59.8643689809 251.99503719 55.0496280979 c 0
 251.498756211 55 l 1
 251 55 l 0
 248.604188756 55 243.067596765 54 236 54 c 0
 192.296960236 54 136.269627925 81.9407110005 110.969019718 116.041530758 c 0
 105.554320744 123.486741847 93.0023398782 129 78 129 c 0
 68.1433187255 129 58.8947663947 127.26704331 50.3769948924 123.008157559 c 1
 33.4077814404 114.970109081 26 102.689350682 26 94 c 0
 26 89.0485705217 26.3958269527 87.2630269027 28.9169360566 84.1116405228 c 1
 62.1077801708 39.5410784266 133.258877532 -4 220 -4 c 0
 229.988811315 -4 240.711876639 -3.97893671499 250.00496281 -3.0496280979 c 0
 403.63049664 13.0715698967 412 133.633397094 412 229 c 0
EndSplineSet
EndChar

StartChar: K
Encoding: 75 75 47
Width: 780
GlyphClass: 2
Flags: W
HStem: -14 10<144.81 192.388> -9 10<658.044 706.586> 799 10<121.892 171.44 617.392 665.688>
VStem: 64 10<442.124 452.839> 86 10<751.496 777.509> 116 9.99635<26.2543 420.881 484.81 529.038> 211.01 9.9904<544 626.9> 219 10<18.354 367> 679 10<761.974 788.413> 734 10<23.0273 48.3576>
LayerCount: 2
Back
Fore
SplineSet
129 807 m 0xbdc0
 135 809 142 809 148 809 c 0
 170 809 188 800 193 784 c 0
 207 738 216 658 221 544 c 1
 379 632 529 734 595 792 c 0
 607 803 625 809 642 809 c 0
 653 809 664 807 672 802 c 0
 684 796 689 786 689 776 c 0
 689 767 685 757 675 748 c 0
 589 673 413 559 232 463 c 1
 475 353 702 97 738 54 c 0
 742 49 744 43 744 37 c 0
 744 23 734 8 716 -1 c 0
 705 -6 693 -9 681 -9 c 0x7ec0
 665 -9 650 -4 642 6 c 0
 613 41 422 253 226 367 c 1
 228 270 229 158 229 31 c 0
 229 10 205 -11 175 -14 c 2
 167 -14 l 2
 141 -14 121 0 121 19 c 0
 121 174 119 308 116 419 c 0
 112 421 107 422 103 423 c 2
 103 423 64 429 64 446 c 0
 64 455 74 466 104 481 c 0
 107 483 110 484 113 486 c 0
 108 622 100 714 87 756 c 0
 86 758 86 761 86 764 c 0
 86 782 104 801 129 807 c 0xbdc0
132.16227766 797.513167019 m 2
 131.753115302 797.376779567 l 1
 131.333729525 797.27612698 l 0
 109.177796147 791.95870297 96 775.447281697 96 764 c 0
 96 762.127837963 96.0510002235 760.653674304 96.1354008594 760.089878056 c 1
 96.310632604 759.739414567 l 1
 96.5528589069 758.956837281 l 0
 110.270060347 714.639724936 117.981091452 622.698073948 122.993248625 486.367398847 c 0
 123.198645899 480.780593014 l 1
 118.547001962 477.679497057 l 0
 114.184286412 474.771020023 111.184286412 473.771020023 109.547001962 472.679497057 c 0
 109.028986184 472.334153205 l 1
 108.472135955 472.05572809 l 0
 78.030285484 456.834802855 74 447.301916577 74 446 c 0
 74 441.85405968 100.478626878 433.522916041 104.56179327 432.877287167 c 0
 104.997453158 432.808400775 l 1
 105.42535625 432.701425001 l 0
 109.086301015 431.78618881 114.766745147 430.796967314 120.472135955 427.94427191 c 0
 125.834377276 425.263151249 l 1
 125.996349699 419.270171613 l 0
 128.998971368 308.173169847 131 174.086227671 131 19 c 0
 131 8.24764846191 143.544314246 -4 167 -4 c 0
 174.496218029 -4 l 1
 200.560984197 -1.01341220991 219 17.2937313974 219 31 c 0xbdc0
 219 157.947252892 218.000277316 269.883468321 216.002124947 366.793858246 c 0
 215.635048394 384.597071051 l 1
 231.027737581 375.644180402 l 0
 429.132154503 260.420182804 620.031008142 48.1878428325 649.755024095 12.3140304742 c 1
 655.069380042 5.67108554096 666.743696359 1 681 1 c 0
 691.239202632 1 702.168971113 3.69775593639 711.693441947 8.02706086096 c 1
 726.926050374 15.6433650743 734 27.8648813899 734 37 c 0
 734 40.7398427901 732.687259925 44.6331145003 730.260907172 47.6660554418 c 1
 694.886721786 89.9185546525 467.960014151 345.209964834 227.876098487 453.889926657 c 0
 209.319472088 462.290045603 l 1
 227.314396511 471.834314911 l 0
 407.697850641 567.507307157 583.626833409 681.582656629 668.368456819 755.485235184 c 1
 676.470650594 762.777209581 679 770.090076483 679 776 c 0
 679 782.475536515 676.26125299 788.689033617 667.527864045 793.05572809 c 0
 667.102907779 793.268206223 l 1
 666.7000106 793.52001696 l 0
 661.125533873 797.004064914 651.886860683 799 642 799 c 0
 627.177715387 799 611.561712635 793.615886086 601.67993093 784.557586189 c 1
 534.449415327 725.476223992 384.502486719 623.618250078 225.865815949 535.263648636 c 0
 211.719136908 527.384485626 l 1
 211.009604489 543.561824758 l 0
 206.025302775 657.203903849 196.892881559 736.863916935 183.433261196 781.088383842 c 0
 180.38443966 790.844612758 167.897124708 799 148 799 c 0
 141.987227321 799 136.012076339 798.796433246 132.16227766 797.513167019 c 2
EndSplineSet
EndChar

StartChar: L
Encoding: 76 76 48
Width: 660
GlyphClass: 2
Flags: W
HStem: -23 10<231.42 422.872> -9 9.99201<488.076 596.453> 45 10<256.213 408.565> 59 10<487.327 610.633> 794 10<167.763 214.792>
VStem: 126 10<51.7212 166.307> 131 10<712.477 772.723> 144 10<321.827 670.121> 224 10<71.8024 104.644> 242 10<330.968 691.76> 624 10<22.4687 47.6568>
LayerCount: 2
Back
Fore
SplineSet
634 32 m 2xfbe0
 631 11 605 -8 575 -9 c 0
 475 -13 382 -23 307 -23 c 0
 198 -23 126 -3 126 84 c 2
 126 96 l 1xfde0
 132 188 144 355 144 514 c 0
 144 601 140 686 131 756 c 1
 131 760 l 2
 131 780 153 798 180 803 c 0
 184 804 188 804 192 804 c 0
 216 804 236 792 239 774 c 0
 249 701 252 613 252 525 c 0
 252 363 240 197 234 104 c 1
 234 94 l 2
 234 64 247 55 302 55 c 0
 353 55 440 63 585 69 c 1
 588 69 l 2
 615 69 634 55 634 36 c 2
 634 32 l 2xfbe0
624 32.7679379571 m 1
 624 36 l 0
 624 46.9438656756 612.391917862 59 588 59 c 0
 585.206808063 59 l 1
 440.824569586 53.0255625458 353.787148916 45 302 45 c 0
 246.665853967 45 224 56.6738036669 224 94 c 0
 224 104.32224567 l 1
 224.02074691 104.64382278 l 0
 230.023806341 197.691243955 242 363.465567 242 525 c 0
 242 612.669919789 238.959134275 700.616571712 229.112213249 772.499095202 c 1
 227.328207164 783.203131712 213.483689345 794 192 794 c 0
 187.972403683 794 184.893320053 793.915565949 182.42535625 793.298574999 c 0
 182.125157357 793.223525275 l 1
 181.820892602 793.16717995 l 0
 156.752952958 788.524968905 141 772.410812067 141 760 c 0
 141 756.638962452 l 1xfbe0
 149.837503862 687.463833322 154 600.911465834 154 514 c 0
 154 354.685396638 142.063057966 188.56045707 136 95.6742619019 c 1
 136 84 l 0
 136 6.34462093612 197.386536451 -13 307 -13 c 0
 381.148262058 -13 474.205701875 -3.02377512246 574.600319617 0.992009587218 c 0
 600.912839894 1.86909359646 621.167392375 18.2307364277 624 32.7679379571 c 1
EndSplineSet
EndChar

StartChar: M
Encoding: 77 77 49
Width: 900
GlyphClass: 2
Flags: W
HStem: -19 10<89.3669 136.453> -9 10<750.207 797.237> 137 10<426.62 459.3> 604.099 20G<197.657 208.831> 783 10<164.762 199.159> 795 10<738.339 781.971>
VStem: 66 10<2.34323 63.1883> 102 9.99635<515.998 750.418> 197.007 9.99329<465.183 586> 691 9.99429<477.651 598> 785 10<584.66 791.756> 824 10<22.2773 73.0931>
LayerCount: 2
Back
Fore
SplineSet
115 -19 m 2xbff0
 112 -19 l 2xbff0
 85 -19 66 -5 66 14 c 2
 66 18 l 1
 84 169 95 440 102 650 c 0
 103 687 105 723 106 755 c 1
 106 755 153 793 186 793 c 0
 196 793 205 789 211 779 c 0
 229 747 246 716 262 687 c 0
 356 514 421 353 458 270 c 1
 504 372 583 567 695 784 c 1
 695 784 737 805 766 805 c 0
 782 805 794 799 794 781 c 0
 794 771 795 761 795 751 c 0
 800 517 816 170 834 39 c 1
 834 35 l 2
 834 15 812 -3 785 -8 c 0
 781 -9 777 -9 773 -9 c 0x7ff0
 749 -9 729 3 726 21 c 0
 712 128 698 391 691 598 c 1
 569 352 527 195 485 158 c 0
 467 142 453 137 442 137 c 0
 425 137 414 149 410 153 c 0
 377 184 337 337 207 586 c 1
 200 395 190 154 174 22 c 0
 171 1 145 -18 115 -19 c 2xbff0
114.833379604 -9 m 2
 141.724374649 -8.1036334985 162.103338055 9.43404450568 164.085461941 23.3089117025 c 1
 179.959085478 154.266305884 190.012970981 395.537107051 197.006709067 586.366246265 c 0
 198.389599492 624.099399292 l 1
 215.864578563 590.628093226 l 0
 346.103136659 341.171162718 388.821921306 186.614839285 416.960609338 160.181526286 c 1
 421.484127499 155.658008124 429.804330739 147 442 147 c 0
 449.775395866 147 461.431133083 150.429445606 478.356361612 165.474093187 c 0
 515.320201187 198.03747567 559.724407297 355.804182283 682.041208399 602.442977948 c 0
 699.654471107 637.958245375 l 1
 700.994287146 598.337971063 l 0
 707.983002109 391.671685734 721.915178789 129.837653352 735.897620157 22.4332091131 c 1
 737.973468963 11.8782067158 751.287515482 1 773 1 c 0x7ff0
 777.027596317 1 780.106679947 1.08443405081 782.57464375 1.70142500145 c 0
 782.874842643 1.77647472486 l 1
 783.179107398 1.83282004984 l 0
 808.247047042 6.47503109496 824 22.5891879335 824 35 c 0
 824 38.3173734764 l 1
 805.992882496 170.6618606 790.004331247 516.690472247 785 750.893174585 c 1
 785 760.47561378 784 770.263340073 784 781 c 0
 784 792.07883265 779.518428446 795 766 795 c 0
 745.236919805 795 713.421083583 781.597868219 702.350942141 776.43642716 c 1
 592.070291834 562.330523403 512.898932101 367.407891649 467.115867569 265.888922469 c 0
 457.947116761 245.558214156 l 1
 448.866428075 265.928407696 l 0
 411.732791621 349.228186769 346.920519979 509.764543741 253.2132917 682.22571919 c 0
 237.320522315 711.0313637 220.139062043 742.355489978 202.352959339 773.97522812 c 1
 198.365759106 780.620561841 193.140835941 783 186 783 c 0
 163.690037138 783 128.193053086 759.26188599 115.841907241 749.971633771 c 1
 114.791272919 719.197416371 112.942604347 684.741250386 111.996349699 649.729828387 c 0
 104.995777519 439.712662986 94.0820938785 169.663050931 76 17.4069358405 c 1
 76 14 l 0
 76 3.05613432441 87.6080821378 -9 112 -9 c 0
 114.833379604 -9 l 2
EndSplineSet
EndChar

StartChar: N
Encoding: 78 78 50
Width: 820
GlyphClass: 2
Flags: W
HStem: -14 10<134.81 182.388> -8 10<641.521 695.663> 794 10<155.051 188.565 636.633 686.412>
VStem: 97 10.0078<677.743 757.585> 111 10<7.46612 404.455> 209 10<18.354 242.486 251.768 602> 601 10<680.396 772.828> 613 10<177 453.135> 699.042 9.95798<692.597 782.23> 711 10<19.6031 462.77>
LayerCount: 2
Back
Fore
SplineSet
165 -14 m 2xbfc0
 157 -14 l 2xbfc0
 131 -14 111 0 111 19 c 0
 111 76 112 136 112 197 c 0
 112 398 108 609 97 747 c 0
 97 752 96 757 96 762 c 1
 96 762 141 804 175 804 c 0
 184 804 193 801 199 792 c 0
 313 638 498 345 613 177 c 1
 613 249 l 2
 613 431 610 652 601 757 c 1
 601 760 l 2
 601 780 623 800 652 804 c 0
 655 804 659 805 662 805 c 0
 687 805 707 792 709 773 c 0
 718 661 721 441 721 258 c 0
 721 170 720 90 719 35 c 0
 718 1 696 -8 673 -8 c 0x7fc0
 648 -8 621 3 621 3 c 2
 617 7 614 9 611 13 c 0
 563 70 372 375 215 602 c 1
 219 496 220 369 220 246 c 0
 220 171 219 98 219 31 c 0
 219 10 195 -11 165 -14 c 2xbfc0
164.496218029 -4 m 1
 190.560984197 -1.01341220991 209 17.2937313974 209 31 c 0
 209 98.0980140311 210 171.087619629 210 246 c 0
 210 368.941525209 208.998370333 495.854574058 205.007112376 601.622909901 c 0
 203.713703232 635.898252216 l 1
 223.224529714 607.688331124 l 0
 380.214978935 380.702140212 572.019125159 74.8144668089 618.649111981 19.4413574578 c 0
 618.830779871 19.2256268386 l 1
 619 19 l 0
 620.839843443 16.5468754091 622.113780264 15.7239119834 626.509876307 11.5920621507 c 1
 631.848934908 9.60505379754 654.229962201 2 673 2 c 0x7fc0
 693.204994807 2 708.195498613 7.79397986129 709.002672641 35.237896818 c 1
 709.999319389 90.0534679789 711 170.112658587 711 258 c 0
 711 440.755390917 707.961793976 661.074313552 699.042020383 772.075940491 c 1
 697.833485933 783.55701776 684.314845122 795 662 795 c 0
 660.61192415 795 658.602568444 794.333194863 652.70114088 793.999151793 c 1
 627.784013932 790.202030396 611 772.879200067 611 760 c 0
 611 757.426995348 l 1
 619.92279461 652.60054551 623 430.91021991 623 249 c 0
 623 144.68780219 l 1
 604.748132363 171.351400129 l 0
 489.586667064 339.58727987 304.54322949 632.616711233 190.962579347 786.050221075 c 0
 190.816079465 786.248124425 l 1
 190.679497057 786.452998038 l 0
 186.917328967 792.096250172 181.818050684 794 175 794 c 0
 152.234789183 794 117.687604879 767.634274354 106.232736201 757.721230387 c 1
 106.514401473 754.787217139 106.865287756 753.025065942 107.007783946 747.299772588 c 1
 117.916144346 609.868563309 122 397.845195606 122 197 c 0
 122 135.891595932 121 75.8840148421 121 19 c 0
 121 8.24764846191 133.544314246 -4 157 -4 c 0
 164.496218029 -4 l 1
EndSplineSet
EndChar

StartChar: O
Encoding: 79 79 51
Width: 830
GlyphClass: 2
Flags: W
HStem: -22 10<357.483 463.456> 47 10<389.499 466.48> 742 10<377.084 464.042> 811 10<380.918 493.305>
VStem: 66 10<316.879 458.29> 164 10<326.816 470.722> 572 10<578.949 604.652> 659 10<308.944 429.404> 690 10<630.255 656.801> 757 10<316.769 455.087>
LayerCount: 2
Back
Fore
SplineSet
593 623 m 1
 567 703 493 742 421 742 c 0
 403 742 386 740 369 735 c 0
 284 713 174 620 174 397 c 0
 174 154 320 57 428 57 c 0
 434 57 441 57 447 58 c 0
 536 68 659 155 659 378 c 0
 659 457 620 549 601 559 c 0
 584 564 572 576 572 591 c 0
 572 596 573 602 577 608 c 0
 581 614 586 619 593 623 c 1
686 616 m 1
 745 572 767 472 767 390 c 0
 767 156 632 0 447 -20 c 0
 434 -21 422 -22 409 -22 c 0
 219 -22 66 131 66 385 c 0
 66 620 185 766 346 809 c 0
 377 817 408 821 438 821 c 0
 561 821 666 755 699 652 c 0
 700 649 700 647 700 644 c 0
 700 635 695 624 686 616 c 1
602.510340687 626.090860723 m 2
 605.024871161 618.35384388 l 1
 597.961389384 614.317568579 l 0
 592.328014839 611.09849741 588.598437202 607.369899426 585.320502943 602.452998038 c 0
 582.647088139 598.442875832 582 594.672951743 582 591 c 0
 582 581.971384817 589.35221605 572.849374777 603.82166324 568.593655016 c 0
 604.776616217 568.312786493 l 1
 605.657464328 567.849182224 l 0
 632.082485718 553.941276229 669 458.492315488 669 378 c 0
 669 150.91075292 542.326876872 58.6479596789 448.549767002 48.1112057609 c 1
 441.526612778 47.0778261203 433.994132082 47 428 47 c 0
 313.82402258 47 164 149.550985528 164 397 c 0
 164 623.581089199 276.757120752 721.45489139 366.335618079 744.639914227 c 1
 384.036296469 749.845996106 402.353978103 752 421 752 c 0
 496.384224265 752 574.931964435 710.947403038 602.510340687 626.090860723 c 2
680.021761203 607.983725249 m 2
 670.183680578 615.320598935 l 1
 679.356361612 623.474093187 l 0
 686.436502145 629.767551439 690 638.494011703 690 644 c 0
 690 647.178565746 690.075714083 647.150081148 689.4946748 648.893198998 c 1
 658.058034099 747.013623004 557.623769357 811 438 811 c 0
 408.888627408 811 378.718403095 807.115839125 348.49878019 799.317226763 c 0
 192.460234439 757.642335662 76 616.408702008 76 385 c 0
 76 135.219586865 225.287027416 -12 409 -12 c 0
 421.376776748 -12 433.387233464 -11.0175937255 446.078888181 -10.0413125935 c 1
 625.057985607 9.30777902022 757 159.991108878 757 390 c 0
 757 470.960406352 734.443226346 567.39822582 680.021761203 607.983725249 c 2
EndSplineSet
EndChar

StartChar: P
Encoding: 80 80 52
Width: 760
GlyphClass: 2
Flags: W
HStem: -24 10<149.81 196.396> 302 10<272.951 419.952> 369 10<302.077 425.555> 429 10<73.9244 122.528> 634 10<152.763 199.792> 661 10<50.3747 98.2329> 744 10<318.619 434.849> 813 10<325.931 461.181>
VStem: 26 10<682.932 707.293> 36 10<382.035 408.174> 116 10<546.423 612.723> 130 10<-6.11519 340.336 433 479.984> 228.003 9.9973<16.0781 312 395.805 519.933> 592 10<521.591 602.022> 693 10<530.118 620.534>
LayerCount: 2
Back
Fore
SplineSet
179 -24 m 2xffbe
 172 -24 l 2
 146 -24 126 -10 126 9 c 2
 126 10 l 2
 129 91 130 178 130 262 c 2
 130 339 l 1
 107 346 82 355 58 365 c 0
 44 371 36 382 36 394 c 0
 36 402 39 410 46 418 c 0xff7e
 58 431 79 439 99 439 c 0
 107 439 115 438 122 435 c 0
 124 434 125 434 127 433 c 1
 125 498 121 554 116 596 c 1
 116 600 l 2
 116 620 138 638 165 643 c 0
 169 644 173 644 177 644 c 0
 201 644 221 632 224 614 c 0
 232 559 236 483 238 397 c 1
 288 384 331 379 368 379 c 0
 459 379 516 411 549 447 c 0
 578 479 592 521 592 562 c 0
 592 629 555 696 480 726 c 0
 453 737 420 744 379 744 c 0
 310 744 219 724 105 668 c 0
 95 663 84 661 73 661 c 0
 56 661 41 667 32 677 c 0
 28 682 26 688 26 694 c 0
 26 708 37 723 55 732 c 0
 184 795 300 823 396 823 c 0
 452 823 501 813 543 796 c 0
 650 753 703 665 703 576 c 0
 703 519 681 460 637 412 c 0
 575 344 476 302 350 302 c 0
 315 302 278 305 239 312 c 1
 239 216 237 114 234 20 c 0
 233 -1 209 -21 179 -24 c 2xffbe
178.497551609 -14 m 1
 204.685371801 -11.0154176869 223.348766655 6.56206017743 224.007589667 20.3973434285 c 1
 226.998923392 114.125800137 229 216.189735237 229 312 c 0
 229 323.954673208 l 1
 240.766640628 321.84271207 l 0
 279.172860584 314.949287975 315.571562947 312 350 312 c 0
 473.817222615 312 569.861850786 353.206826114 629.610441561 418.737538577 c 0
 672.00424114 464.985319936 693 521.563460334 693 576 c 0
 693 660.860160546 642.759019834 745.13264114 539.271146756 786.721225648 c 0
 498.471555912 803.235345751 450.819204391 813 396 813 c 0
 301.931337772 813 187.330441447 785.497670368 59.3883529851 723.01432484 c 0
 43.7146035321 715.177450114 36 702.727348852 36 694 c 0xffbe
 36 690.294763467 36.8743106256 687.192742462 39.6187688004 683.481894194 c 1
 46.10002629 676.597638893 58.1602230996 671 73 671 c 0
 82.8065735878 671 92.2143282348 672.787504005 100.527864045 676.94427191 c 0
 215.691587376 733.515925476 308.033907712 754 379 754 c 0
 421.137182427 754 455.496021152 746.781161558 483.772968873 735.260923598 c 0
 562.672543708 703.701093664 602 632.666254972 602 562 c 0
 602 518.775818737 587.275263057 474.343171041 556.409869514 440.284805753 c 0
 521.372043096 402.061722387 461.441796065 369 368 369 c 0
 330.095958223 369 286.229517166 374.127852454 235.483661482 387.321774932 c 0
 228.178198637 389.221195272 l 1
 228.002703068 396.767504723 l 0
 226.008703861 482.509470606 221.969335325 558.487353479 214.119039023 612.45814056 c 1
 212.323261186 623.23280758 198.48517687 634 177 634 c 0
 172.972403683 634 169.893320053 633.915565949 167.42535625 633.298574999 c 0
 167.125157357 633.223525275 l 1
 166.820892602 633.16717995 l 0
 141.752952958 628.524968905 126 612.410812067 126 600 c 0
 126 596.591840349 l 1
 130.853635195 555.553720775 134.999828065 498.159397661 136.995269631 433.307546758 c 0
 137.510442176 416.564439024 l 1
 122.527864045 424.05572809 l 0
 122.394629768 424.122345229 120.556149994 424.56087821 118.060807014 425.8085497 c 1
 112.85757881 428.038504645 106.197507195 429 99 429 c 0
 81.4675811648 429 62.837577326 421.497537092 53.4382153243 411.314894924 c 1
 47.8723595597 404.953916907 46 399.316105273 46 394 c 0
 46 386.807447965 50.7053655278 379.005947782 61.8927727037 374.211344707 c 1
 85.4983808317 364.375674653 110.277853665 355.455275215 132.911616158 348.566738804 c 0
 140 346.409404591 l 1
 140 262 l 0
 140 178.042798753 138.990723149 90.5644033093 136 9.81487827787 c 1
 136 9 l 0
 136 -1.75235153809 148.544314246 -14 172 -14 c 0
 178.497551609 -14 l 1
EndSplineSet
EndChar

StartChar: Q
Encoding: 81 81 53
Width: 830
GlyphClass: 2
Flags: W
HStem: -206 10<700.903 744.181> -17 10<357.558 466.519> 46 10<392.867 459.812> 514 10<574.429 619.615> 576 10<568.701 651.294> 598 10<616.242 661.412> 742 10<377.084 464.022> 811 10<380.918 493.305>
VStem: 66 10<317.246 458.29> 164 10<331.793 470.722> 407 10<238.957 383.675> 491 10<247.951 389.228> 675 10<309.472 430.403> 690 10<630.672 656.801> 760 10<322.056 444.368> 769 10<-177.424 -152.654>
LayerCount: 2
Back
Fore
SplineSet
547 93 m 1xfffc
 616 138 675 228 675 380 c 0
 675 471 637 514 598 514 c 0
 566 514 526 489 508 401 c 0
 503 376 501 348 501 320 c 0
 501 248 516 167 547 93 c 1xfffc
460 58 m 1
 425 141 407 232 407 312 c 0
 407 344 409 373 415 401 c 0
 433 488 484 586 612 586 c 0
 737 586 770 477 770 390 c 0xfffe
 770 222 694 91 580 27 c 1
 623 -47 683 -109 759 -138 c 0
 772 -143 779 -153 779 -164 c 0xfffd
 779 -171 776 -179 770 -186 c 0xfffe
 759 -198 739 -206 721 -206 c 0
 714 -206 707 -205 701 -202 c 0
 611 -164 542 -92 493 -7 c 1
 479 -10 464 -13 449 -15 c 0
 435 -17 421 -17 408 -17 c 0
 219 -17 66 132 66 385 c 0
 66 620 185 766 346 809 c 0
 377 817 408 821 438 821 c 0
 561 821 666 755 699 652 c 0
 700 649 700 647 700 644 c 0
 700 626 683 608 658 601 c 0
 652 599 645 598 639 598 c 0
 617 598 598 608 593 624 c 0
 567 704 493 742 421 742 c 0
 403 742 386 740 369 735 c 0
 284 713 174 620 174 397 c 0
 174 154 322 56 432 56 c 0
 438 56 443 56 449 57 c 0
 453 57 456 57 460 58 c 1
552.462677805 84.6238940316 m 2
 542.412643233 78.0695236583 l 1
 537.776622901 89.1361528371 l 0
 506.220563975 164.463519306 491 246.635758691 491 320 c 0
 491 348.476794941 493.014673993 377.063565098 498.194193243 402.961161351 c 0
 516.667733258 493.276245867 559.620632213 524 598 524 c 0
 645.747219997 524 685 472.62495848 685 380 c 0
 685 225.324343499 624.589824615 131.663337603 552.462677805 84.6238940316 c 2
469.214262717 61.885532471 m 2
 473.749854869 51.1296996532 l 1
 462.42535625 48.2985749985 l 0
 457.5541409 47.080771161 454.008159176 47.0092206359 449.805679774 47.0001635682 c 1
 444.769580121 46.2426773689 437.448729159 46 432 46 c 0
 315.904664421 46 164 149.459820736 164 397 c 0
 164 623.581089199 276.757120752 721.45489139 366.335618079 744.639914227 c 1
 384.036296469 749.845996106 402.353978103 752 421 752 c 0
 496.284991231 752 574.89501728 712.061086591 602.527876921 627.036903081 c 1
 605.659108022 617.016963559 619.353674492 608 639 608 c 0
 643.912951439 608 650.079889114 608.900888572 654.83772234 610.486832981 c 0
 655.068971026 610.563915876 l 1
 655.303700745 610.629640197 l 0
 677.818659241 616.933828576 690 632.439775797 690 644 c 0
 690 647.178565746 690.075714083 647.150081148 689.4946748 648.893198998 c 1
 658.058034099 747.013623004 557.623769357 811 438 811 c 0
 408.888627408 811 378.718403095 807.115839125 348.49878019 799.317226763 c 0
 192.460234439 757.642335662 76 616.408702008 76 385 c 0
 76 136.322011913 225.155369943 -7 408 -7 c 0
 420.998150351 -7 434.504387703 -6.96927631115 447.585786438 -5.10050506339 c 0
 462.370805974 -3.12916912525 476.942165114 -0.213949573317 490.904709113 2.77802414077 c 0
 498.026157798 4.30404885903 l 1
 501.663552211 -2.00571696045 l 0
 549.885622902 -85.6562477501 617.427369885 -155.858956403 704.88972037 -192.787504386 c 0
 705.185230076 -192.91227515 l 1
 705.472135955 -193.05572809 l 0
 709.476500729 -195.057910477 714.906182608 -196 721 -196 c 0
 736.277777415 -196 754.11921091 -188.525569374 762.515869093 -179.36557863 c 1
 766.949482144 -174.19303007 769 -168.130590257 769 -164 c 0xfffd
 769 -157.61896697 765.292607396 -151.134378442 755.410209207 -147.333456062 c 0
 676.61047741 -117.26513735 615.111589111 -53.3283658747 571.35374768 21.9758263546 c 0
 566.254475738 30.751317604 l 1
 575.104652433 35.7198378539 l 0
 685.543964291 97.7208550372 760 225.013961216 760 390 c 0
 760 471.174365342 731.414129331 565.159197255 630.435636764 575.119066062 c 0
 624.564427044 575.698164413 618.423268773 576 612 576 c 0
 490.785250993 576 442.455471438 484.344468967 424.792604195 398.97394396 c 0
 418.961582908 371.762511287 417 343.635666936 417 312 c 0
 417 233.470648186 434.74846397 143.618712356 469.214262717 61.885532471 c 2
EndSplineSet
EndChar

StartChar: R
Encoding: 82 82 54
Width: 780
GlyphClass: 2
Flags: W
HStem: -29 10<658.843 708.134> -24 10<149.81 196.396> 332 10<402 468.844> 401 10<368.894 475.766> 430 10<251.26 288.244> 634 10<152.763 199.792> 661 10<49.4061 97.2661> 745 10<329.385 449.345> 812 10<337.833 474.885>
VStem: 26 10<681.822 707.252> 116 10<551.995 612.723> 126 10<-2.53388 463.914> 228 10<16.0781 350 426 516.773> 605 10<534.845 613.574> 705 10<537.855 626.612> 734 10<1.86168 28.2791>
LayerCount: 2
Back
Fore
SplineSet
179 -24 m 2x7fef
 172 -24 l 2
 146 -24 126 -10 126 9 c 2
 126 10 l 2x7fdf
 129 88 130 173 130 255 c 0
 130 391 126 519 116 596 c 1
 116 600 l 2
 116 620 138 638 165 643 c 0
 169 644 173 644 177 644 c 0
 201 644 221 632 224 614 c 0
 231 565 235 500 237 426 c 1
 245 434 254 440 268 440 c 0
 274 440 281 439 289 436 c 0
 343 418 388 411 425 411 c 0
 463 411 492 418 514 428 c 0
 570 454 605 513 605 574 c 0
 605 606 596 639 574 668 c 0
 542 711 485 745 393 745 c 0
 320 745 225 724 104 668 c 0
 94 663 83 661 72 661 c 0
 55 661 39 667 31 678 c 0
 27 683 26 688 26 694 c 0
 26 708 37 723 56 732 c 0
 193 795 312 822 409 822 c 0
 534 822 624 778 672 713 c 0
 700 675 715 629 715 582 c 0
 715 498 667 412 562 364 c 0
 518 344 465 332 409 332 c 2
 402 332 l 1
 496 242 645 104 732 39 c 0
 740 33 744 25 744 16 c 0
 744 5 738 -7 725 -16 c 0
 713 -25 697 -29 682 -29 c 0
 669 -29 657 -26 648 -19 c 0xbfef
 524 73 310 280 238 350 c 1
 238 273 l 2
 238 189 237 101 234 20 c 0
 233 -1 209 -21 179 -24 c 2x7fef
178.497551609 -14 m 1
 204.686605847 -11.0152770448 223.347734788 6.54039096908 224.008806449 20.4228958458 c 1
 226.997469909 101.116809277 228 189.115297018 228 273 c 0
 228 373.669322456 l 1
 244.970783933 357.169949188 l 0
 316.892752534 287.245813048 530.902732294 80.3303980179 654.0497186 -11.0367208541 c 1
 660.882706823 -16.3512672505 670.409838082 -19 682 -19 c 0
 695.393411567 -19 709.095991953 -15.428006035 719.151844011 -7.88611699158 c 1
 730.213341841 -0.228156955742 734 8.690628294 734 16 c 0
 734 21.8393655829 731.765373181 26.6759701143 726 31 c 0
 638.165761428 96.6232816916 489.251676266 234.616651673 395.084285009 324.776919898 c 0
 377.09573468 342 l 1
 409 342 l 0
 463.576610744 342 515.230994485 353.725948378 557.861970557 373.103664775 c 0
 659.583240983 419.604816969 705 501.991433171 705 582 c 0
 705 626.8739796 690.674328165 670.798520746 663.949441626 707.06800962 c 0
 618.312673022 768.867800438 531.737323689 812 409 812 c 0
 313.874025418 812 196.120788595 785.428446841 60.2295487577 722.938314653 c 1
 43.5365943239 715.03112571 36 702.666869278 36 694 c 0
 36 689.107103465 36.5063646038 687.124854839 38.8086880944 684.246950476 c 0
 38.9522203387 684.06753517 l 1
 39.087360843 683.881716977 l 0
 44.3950629657 676.583626558 57.0168478051 671 72 671 c 0
 81.8776914347 671 91.0594902114 672.710084993 99.662897769 677.011788772 c 1
 221.882252309 733.576118146 318.008025251 755 393 755 c 0
 487.556835387 755 547.994924759 719.694436459 582.022332213 673.970107693 c 0
 605.358904943 643.208261822 615 607.833870386 615 574 c 0
 615 509.306952871 578.021095632 446.6988308 518.211113065 418.929910323 c 0
 494.62579353 408.209310534 464.264854456 401 425 401 c 0
 386.63103 401 340.893907149 408.161105416 285.662100454 426.571707648 c 1
 278.39787359 429.295792722 272.978273446 430 268 430 c 0
 257.242861732 430 251.170611877 426.028476253 244.071067812 418.928932188 c 0
 227.63176382 402.489628196 l 1
 227.003650301 425.729828387 l 0
 225.011475702 499.440288562 220.982248323 564.413583621 214.116947184 612.470691591 c 1
 212.324776939 623.223713062 198.484721 634 177 634 c 0
 172.972403683 634 169.893320053 633.915565949 167.42535625 633.298574999 c 0
 167.125157357 633.223525275 l 1
 166.820892602 633.16717995 l 0
 141.752952958 628.524968905 126 612.410812067 126 600 c 0
 126 596.644423518 l 1xbfef
 135.860384217 520.15584919 140 390.837799558 140 255 c 0
 140 173.045791589 138.990111597 87.5506648843 136 9.80776337485 c 1
 136 9 l 0
 136 -1.75235153809 148.544314246 -14 172 -14 c 0
 178.497551609 -14 l 1
EndSplineSet
EndChar

StartChar: S
Encoding: 83 83 55
Width: 700
GlyphClass: 2
Flags: W
HStem: -22 10<295.366 416.439> 46 10<322.812 424.454> 192 10<104.884 153.09> 584 10<517.81 563.188> 744 10<317.894 410.554> 812 10<325.47 443.87>
VStem: 60 10<555.116 626.823> 68 10<146.152 170.315> 159 10<573.258 630.743> 494 10<605.466 667.876> 555 10<169.912 234.029> 594 10<619.16 682.591> 654 10<176.73 254.716>
LayerCount: 2
Back
Fore
SplineSet
108 199 m 0xfdf8
 116 201 124 202 131 202 c 0
 151 202 168 194 174 179 c 0
 205 102 274 56 375 56 c 0
 447 56 497 84 527 124 c 0
 545 148 555 176 555 203 c 0
 555 254 521 305 440 330 c 0
 402 343 269 389 226 404 c 0
 113 442 60 515 60 590 c 0
 60 601 61 611 63 622 c 0
 84 725 209 822 390 822 c 0
 529 822 604 737 604 648 c 0
 604 640 603 633 602 625 c 0
 599 604 571 585 542 584 c 2
 540 584 l 2
 514 584 494 598 494 617 c 2
 494 621 l 2
 495 626 495 631 495 636 c 0
 495 695 443 744 374 744 c 0
 253 744 184 686 171 622 c 0
 170 615 169 609 169 602 c 0
 169 555 203 509 284 482 c 0
 329 467 460 420 496 408 c 0
 612 371 664 294 664 216 c 0
 664 174 648 131 620 94 c 0
 570 29 476 -22 359 -22 c 0
 206 -22 109 50 70 147 c 0xfef8
 69 150 68 154 68 157 c 0
 68 174 84 192 108 199 c 0xfdf8
110.613662463 189.345651552 m 0
 89.29914394 183.128916983 78 167.740338525 78 157 c 0xfdf8
 78 155.930245084 78.3787383678 153.695875714 79.3847677875 150.464387275 c 1
 116.847796941 58.1169498443 209.113638341 -12 359 -12 c 0
 473.114975548 -12 564.165129126 37.8158873312 612.073760109 100.097107608 c 0
 638.856765737 135.488936474 654 176.575297772 654 216 c 0
 654 289.035402721 605.89798089 362.449958111 492.899322554 398.492633615 c 1
 456.498448855 410.626258181 325.65483306 457.574130113 280.83772234 472.513167019 c 0
 197.585805685 500.263805904 159 549.362207141 159 602 c 0
 159 609.985272468 160.12532751 616.587970686 161.100505063 623.414213562 c 0
 161.141883672 623.703863824 l 1
 161.200126804 623.990599243 l 0
 175.441033937 694.099680513 250.03834778 754 374 754 c 0
 447.638243002 754 505 701.314369408 505 636 c 0
 505 631.206828651 505.09456515 626.344852049 504 620.062271471 c 1
 504 617 l 0
 504 606.247648462 516.544314246 594 540 594 c 0
 541.827637429 594 l 1
 567.602643705 594.88879332 590.155200117 612.797078937 592.088100636 626.327382568 c 1
 593.079615565 634.259502005 594 640.914153598 594 648 c 0
 594 730.723919791 524.671590865 812 390 812 c 0
 212.085508838 812 92.4771357971 716.521675477 72.8196708885 620.106490449 c 1
 70.9486035227 609.815619938 70 600.323245249 70 590 c 0
 70 520.286601567 118.85612391 450.580974896 229.240678283 413.460505284 c 1
 272.227281985 398.465178411 405.442735451 352.391214518 443.093719899 339.510614576 c 1
 526.848477127 313.660380863 565 259.051902463 565 203 c 0
 565 173.534449426 554.153618863 143.538158484 535 118 c 0
 503.032550302 75.3767337365 449.699296866 46 375 46 c 0
 270.729068734 46 197.333530276 94.2663848385 164.723564821 175.265331291 c 0
 160.855940108 184.934393074 148.809963498 192 131 192 c 0
 125.05748645 192 117.427559852 191.049125899 110.613662463 189.345651552 c 0
EndSplineSet
EndChar

StartChar: T
Encoding: 84 84 56
Width: 720
GlyphClass: 2
Flags: W
HStem: -19 10<330.796 376.495> 722 9.99913<402 540.186> 731 9.99056<523.169 646.031> 790 10<222.947 540.08> 800 10<85 216.968 544.337 657.395>
VStem: 25 10<759.832 776.954> 301 9.98168<336.819 694.005> 306 10<3.22061 667.951> 407 10<17.2129 683.235> 674 10<762.535 786.884>
LayerCount: 2
Back
Fore
SplineSet
684 772 m 2x96c0
 681 751 654 732 625 731 c 0xb6c0
 556 728 478 723 402 722 c 1
 406 711 408 701 409 688 c 0
 415 601 417 488 417 341 c 0
 417 249 416 145 414 25 c 0
 414 4 389 -16 359 -19 c 2
 352 -19 l 2
 326 -19 306 -4 306 15 c 0xc5c0
 308 135 309 239 309 330 c 0
 309 476 307 586 301 672 c 0
 299 705 285 707 268 709 c 0
 199 717 91 715 52 738 c 0
 32 750 25 760 25 769 c 0
 25 795 85 808 85 808 c 2
 93 809 103 810 115 810 c 0xcec0
 167 810 257 800 382 800 c 0
 463 800 552 806 635 809 c 2
 637 809 l 2
 663 809 684 795 684 776 c 2
 684 772 l 2x96c0
674 772.772597654 m 1
 674 776 l 0
 674 786.479514058 660.668403219 799 637 799 c 0
 635.180663905 799 l 1
 552.810337853 796.022759299 463.361737382 790 382 790 c 0xb5c0
 256.559400809 790 165.908706396 800 115 800 c 0
 103.734079598 800 95.0700809011 799.162507453 86.7173709901 798.136676004 c 1
 77.4587973466 795.998676432 35 781.757387832 35 769 c 0
 35 765.842404239 37.7567033586 758.207881775 57.1449575543 746.574929257 c 0
 91.1062288152 726.546487231 199.012799664 727.065504379 269.151705201 718.93345736 c 0
 287.512161838 716.773403638 308.673325844 710.69287613 310.981684966 672.604950604 c 0x8ec0
 316.997170109 586.382996891 319 476.034279045 319 330 c 0
 319 238.98288528 317.99743404 134.762714838 316 14.9166724529 c 1
 316 4.03364337172 328.926002183 -9 352 -9 c 0
 358.497003777 -9 l 1
 385.039553144 -5.98168869547 404 11.6623294461 404 25.0833275471 c 1
 406.002426102 145.228893655 407 249.022883745 407 341 c 0
 407 487.905008757 404.993739719 600.746355535 399.023696716 687.311979084 c 0
 398.084373703 699.523178251 396.278145673 708.473349623 392.602065765 718.582569369 c 0
 387.790672525 731.813900778 l 1
 401.868432441 731.999134461 l 0xcdc0
 477.527842975 732.994653021 555.419069968 737.984189506 624.565627757 740.990561584 c 0
 649.971223026 741.866616593 671.165577714 758.386477672 674 772.772597654 c 1
EndSplineSet
EndChar

StartChar: U
Encoding: 85 85 57
Width: 820
GlyphClass: 2
Flags: W
HStem: -24 10<333.318 465.166> 44 10<356.72 472.626> 789 10<143.612 191.19 638.792 686.865>
VStem: 96 10<235.336 503.837> 107 10<549.288 766.646> 194 10<243.275 513.909> 205 10<559.337 777.595> 603 10<579.219 767.646> 616 10<238.8 490.719> 704.203 9.7968<198.803 242.162 562.782 772.56> 714 10<245.711 504.615>
LayerCount: 2
Back
Fore
SplineSet
656 799 m 2xffc0
 664 799 l 2
 691 799 711 785 711 766 c 0
 714 595 724 425 724 326 c 0xffa0
 724 287 721 249 714 214 c 0
 688 87 596 -24 402 -24 c 0
 190 -24 96 88 96 314 c 0
 96 413 107 615 107 754 c 0
 107 775 131 796 161 799 c 2
 169 799 l 2
 195 799 215 785 215 766 c 0
 215 625 204 421 204 326 c 0
 204 110 280 54 418 54 c 0
 532 54 585 102 607 214 c 0
 613 244 616 278 616 314 c 0
 616 409 606 581 603 754 c 0
 603 775 626 796 656 799 c 2xffc0
656.503217763 789 m 1
 630.633072063 786.028880971 613 767.884132185 613 754.086698685 c 1
 615.992914002 581.495324587 626 409.528026321 626 314 c 0
 626 277.444184437 622.964263399 242.831121857 616.805806757 212.038838649 c 0
 594.133050133 96.6138958385 536.177031529 44 418 44 c 0
 274.854795975 44 194 106.570735463 194 326 c 0
 194 421.554394993 205 625.397565571 205 766 c 0
 205 776.752351538 192.455685754 789 169 789 c 0
 161.503781971 789 l 1
 135.439015803 786.01341221 117 767.706268603 117 754 c 0
 117 614.593838952 106 412.453301219 106 314 c 0
 106 91.6993536257 195.506636444 -14 402 -14 c 0
 591.26247094 -14 678.988546633 92.8417856498 704.203195027 216.005645113 c 0xffc0
 711.020117694 250.090258448 714 287.532651488 714 326 c 0
 714 424.490421981 704.007516722 594.483834277 701 765.91228745 c 1
 701 776.706977626 688.605130609 789 664 789 c 0
 656.503217763 789 l 1
EndSplineSet
EndChar

StartChar: V
Encoding: 86 86 58
Width: 810
GlyphClass: 2
Flags: W
HStem: -21 10<371.264 407.058> 781 10<699.638 745.71> 794 10<76.1862 124.603>
VStem: 41 10<748.181 772.619> 759 10<740.935 769.02>
LayerCount: 2
Back
Fore
SplineSet
727 791 m 2
 752 790 769 775 769 757 c 0
 769 754 769 752 768 749 c 0
 735 637 607 294 455 11 c 1
 455 11 417 -21 386 -21 c 0
 372 -21 359 -14 352 6 c 0
 351 10 350 14 348 19 c 0
 290 188 150 573 45 745 c 0
 42 749 41 754 41 759 c 0
 41 774 54 791 74 799 c 0
 83 803 92 804 101 804 c 0
 120 804 138 797 145 785 c 0
 237 633 348 335 417 142 c 1
 537 388 636 665 662 755 c 0
 668 775 696 791 724 791 c 2
 727 791 l 2
726.800079936 781 m 2
 724 781 l 0
 698.851473001 781 675.66997272 765.765554038 671.592953055 752.175488488 c 1
 645.371439308 661.408710132 546.342790787 384.343731657 425.987684456 137.61576368 c 0
 415.577324439 116.274525645 l 1
 407.583685219 138.633545493 l 0
 338.650629654 331.446295118 227.542130424 629.313669461 136.403040646 779.891296051 c 1
 132.140089864 787.199211677 118.168456043 794 101 794 c 0
 92.6205647675 794 85.5268873781 793.179885722 77.8890287238 789.785281875 c 1
 60.2844532309 782.743451678 51 768.45082222 51 759 c 0
 51 755.234319597 51.8073809871 752.590158684 53 751 c 0
 53.2864839636 750.618021382 l 1
 53.535270697 750.210485019 l 0
 159.47835001 576.665631287 299.519468593 191.068390455 357.310434816 22.6774716315 c 1
 359.393640309 17.2198725769 360.363324704 13.7568811468 361.593655371 8.85727019374 c 1
 367.402483978 -6.79637126245 375.773395691 -11 386 -11 c 0
 408.06713897 -11 439.372156953 11.3213541742 447.136596021 17.4948800875 c 1
 597.473852704 297.913668006 725.807864114 641.184398966 758.457480215 751.995217248 c 1
 759.118309771 753.977705914 759 753.762654069 759 757 c 0
 759 767.847579074 748.096077589 780.148160094 726.800079936 781 c 2
EndSplineSet
EndChar

StartChar: W
Encoding: 87 87 59
Width: 1100
GlyphClass: 2
Flags: W
HStem: -10 10<262.703 311.446 755.812 792.037> 762 10<526.903 560.2> 790 10<84.588 129.758 987.605 1028.64>
VStem: 46 10<739.998 767.355> 1045 10<752.097 776.595>
LayerCount: 2
Back
Fore
SplineSet
1014 799 m 2
 1038 797 1055 782 1055 765 c 0
 1055 762 1054 758 1053 755 c 0
 983 561 930 342 846 23 c 1
 846 23 802 -10 770 -10 c 0
 757 -10 747 -5 742 10 c 0
 741 13 740 17 739 20 c 0
 693 149 600 448 541 608 c 1
 482 430 391 116 356 16 c 1
 356 16 311 -13 280 -13 c 0
 266 -13 255 -8 251 8 c 0
 186 269 99 587 47 746 c 0
 46 749 46 751 46 754 c 0
 46 772 63 790 88 797 c 0
 94 799 101 800 107 800 c 0
 129 800 148 790 153 774 c 0
 194 648 266 386 318 169 c 1
 380 377 470 694 495 736 c 0
 511 763 528 772 543 772 c 0
 569 772 590 746 590 746 c 1
 617 704 724 384 794 168 c 1
 847 392 895 606 952 765 c 0
 960 785 982 799 1009 799 c 2
 1014 799 l 2
1013.59306143 789 m 1
 1009 789 l 0
 985.327256898 789 967.427364707 776.642587731 961.35215886 761.454573116 c 1
 904.836774977 603.806397019 856.715914863 389.632412166 803.731315408 165.697501265 c 0
 795.503530677 130.923467685 l 1
 784.487073448 164.917107136 l 0
 715.037441917 379.218827289 607.559185999 698.800943545 581.904434135 740.091907799 c 1
 578.895047826 743.564881034 560.968519644 762 543 762 c 0
 532.554031467 762 518.57847858 756.17323907 503.602915336 730.901976097 c 0
 480.73695321 692.487159725 389.429175299 373.626301909 327.583320258 166.143433385 c 0
 316.949889686 130.469988884 l 1
 308.275314 166.669660498 l 0
 256.334971726 383.420704216 184.352140441 645.331756168 143.472658311 770.961384177 c 1
 140.340436416 780.98449424 126.646488754 790 107 790 c 0
 102.087048561 790 95.9201108859 789.099111428 91.1622776602 787.513167019 c 0
 90.9310289743 787.436084124 l 1
 90.6962992552 787.370359803 l 0
 68.1813407588 781.066171424 56 765.560224203 56 754 c 0
 56 750.850658295 55.9454634297 750.786386313 56.4868329805 749.16227766 c 0
 108.69431976 589.52784693 195.641410452 271.666354574 260.703608032 10.4166073644 c 0
 263.428440014 -0.482720562398 268.651266613 -3 280 -3 c 0
 301.74140092 -3 335.870178904 15.4949481063 347.71992083 22.6326162566 c 1
 382.87521824 124.24656298 473.081389117 434.876620028 531.507847839 611.146275155 c 0
 540.497283732 638.266946154 l 1
 550.382429601 611.459770915 l 0
 609.565389861 450.963607499 702.510315018 152.102855141 748.453972212 23.2608599663 c 1
 749.715299541 19.476877979 750.6532292 15.6630890016 751.486832981 13.1622776602 c 0
 755.114910212 2.27804596476 760.076061745 0 770 0 c 0
 792.18467921 0 825.991943358 21.143578444 837.24352301 29.0176677883 c 1
 920.224667325 344.285256362 973.767515974 564.876055073 1043.55196213 758.278662999 c 1
 1044.25750147 760.395281016 1045 764.110651645 1045 765 c 0
 1045 774.61334995 1034.92265727 786.849845977 1013.59306143 789 c 1
EndSplineSet
EndChar

StartChar: X
Encoding: 88 88 60
Width: 780
GlyphClass: 2
Flags: W
HStem: -9 10<62.1623 102.464> 4 10<659.777 707.553> 789 10<126.698 175.419 625.606 674.966>
VStem: 31 10<12.2036 38.8417> 91 10<743.288 768.841> 687 10<751.686 778.737> 734 10<34.6042 60.6498>
LayerCount: 2
Back
Fore
SplineSet
122 793 m 0
 132 797 142 799 152 799 c 0
 170 799 186 793 194 781 c 0
 262 681 322 595 382 513 c 1
 447 595 516 681 598 777 c 0
 610 791 632 800 652 800 c 0
 659 800 666 798 673 796 c 0
 689 790 697 779 697 766 c 0
 697 758 694 750 688 743 c 0
 592 629 513 532 439 436 c 1
 525 321 616 207 737 67 c 0
 742 61 744 55 744 48 c 0
 744 34 734 21 717 12 c 0
 706 7 694 4 683 4 c 0
 667 4 652 9 643 19 c 0
 536 143 452 248 374 350 c 1
 296 246 221 140 133 16 c 0
 122 0 99 -9 77 -9 c 0
 71 -9 65 -9 59 -7 c 0
 41 -2 31 11 31 25 c 0
 31 31 33 38 37 44 c 0
 138 187 224 306 316 427 c 1
 245 523 176 622 96 739 c 0
 93 744 91 750 91 755 c 0
 91 770 102 784 122 793 c 0
125.910529709 783.793882269 m 0
 107.916901876 775.696749744 101 764.629385286 101 755 c 0
 101 752.514051868 101.928103482 748.822651178 104.408001402 744.420236241 c 1
 184.029000188 627.984552061 253.260853506 528.647674137 324.04002054 432.946265191 c 0
 328.499156353 426.917011134 l 1
 323.960354045 420.947499403 l 0
 232.11088583 300.145481424 146.031279066 181.03721551 45.245794601 38.3409355241 c 1
 42.519394131 34.2513348192 41 28.7983245514 41 25 c 0
 41 16.1691160271 47.0886707407 6.68733684551 61.6764386379 2.6351790963 c 0
 61.9212426874 2.56717797143 l 1
 62.1622776602 2.48683298051 l 0
 66.238482509 1.12809803089 70.9439583666 1 77 1 c 0
 96.7042343583 1 116.335278961 9.41175834179 124.801799396 21.7266971569 c 1
 212.895725819 145.859048026 287.85744007 251.809920093 366 356 c 0
 373.922602299 366.563469732 l 1
 381.94357833 356.074501076 l 0
 459.808306849 254.251394551 543.793608519 149.275013823 650.502775834 25.6120535698 c 1
 656.763993662 18.6551448722 668.908808285 14 683 14 c 0
 692.26201208 14 701.661102385 16.1491653937 712.600997205 20.9829784782 c 1
 727.222820439 28.9930243331 734 39.0162082817 734 48 c 0
 734 52.9248529828 732.915541096 56.2808513327 729.375376987 60.5290482632 c 1
 608.377681122 200.526382322 517.087508987 314.882965974 430.991651221 430.01114787 c 0
 426.444519553 436.091614636 l 1
 431.079898028 442.105078603 l 0
 505.193663668 538.252666461 584.293047462 635.372671796 680.350888019 749.441357458 c 0
 685.080170955 754.958854217 687 760.520349583 687 766 c 0
 687 774.168166004 683.256679625 781.172104638 669.876873792 786.492351295 c 1
 663.685799639 788.257218562 656.878025836 790 652 790 c 0
 634.710272881 790 615.209612037 781.711973281 605.592566024 770.492086265 c 0
 523.73493418 674.65876118 454.80417235 588.747191366 389.836580957 506.788076071 c 0
 381.681743951 496.50043554 l 1
 373.929696743 507.094900056 l 0
 313.837381446 589.221064296 253.768974701 675.3206649 185.730734979 775.376899786 c 0
 180.286279048 783.543583684 168.131432746 789 152 789 c 0
 143.452738671 789 134.411667642 787.194337443 125.910529709 783.793882269 c 0
EndSplineSet
EndChar

StartChar: Y
Encoding: 89 89 61
Width: 720
GlyphClass: 2
Flags: W
HStem: -20 10<340.465 386.024> 789 10<614.537 662.641> 800 10<73.668 119.7>
VStem: 35 10<753.153 777.328> 310 10<29.22 289.161> 408 10<44.2103 290.53> 414 10<12.1723 191.467> 675 10<753 778.607>
LayerCount: 2
Back
Fore
SplineSet
647 799 m 2xfb
 670 797 685 783 685 766 c 0
 685 762 684 758 682 754 c 0
 627 626 577 537 536 472 c 0
 457 348 420 317 419 265 c 0
 418 241 418 218 418 194 c 0xfd
 418 140 420 86 424 28 c 1
 424 25 l 2
 424 5 402 -15 373 -19 c 0
 370 -19 366 -20 363 -20 c 0
 338 -20 318 -7 316 12 c 0
 312 71 310 127 310 183 c 0
 310 207 310 231 311 255 c 0
 311 273 314 289 319 305 c 1
 267 332 223 383 182 448 c 0
 126 535 75 646 37 755 c 0
 36 758 35 761 35 764 c 0
 35 782 52 800 77 807 c 0
 84 809 90 810 97 810 c 0
 119 810 138 800 143 785 c 0
 179 680 230 571 282 490 c 0
 309 449 337 404 360 382 c 1
 381 413 408 449 438 496 c 0
 477 557 525 642 578 766 c 0
 586 785 614 799 640 799 c 2
 647 799 l 2xfb
646.571969298 789 m 1
 640 789 l 0
 616.536592913 789 592.893095509 775.601691675 587.216353751 762.119429999 c 0
 533.961918347 637.524147166 485.714738338 552.066217032 446.425221488 490.613382983 c 0
 416.220434495 443.292550028 389.06485836 407.075128792 368.279186905 376.391518548 c 0
 361.64097703 366.592256352 l 1
 353.08777354 374.773581429 l 0
 328.346724022 398.438933142 300.643205522 443.507817232 273.616282403 484.548700487 c 1
 220.966111116 566.561467298 169.802724167 675.992054514 133.540540541 781.756756757 c 0
 130.520392841 790.817199855 116.698831713 800 97 800 c 0
 90.9752433445 800 86.1530420264 799.21499788 79.747211279 797.384760524 c 0
 57.1473542153 791.056800546 45 775.56269513 45 764 c 0
 45 763.24712934 45.4957281231 761.135592232 46.4651745605 758.22725292 c 1
 84.1929721674 650.008043995 135.017716999 539.466220005 190.408643048 453.412459893 c 0
 231.107439709 388.889977381 274.10468563 339.578684058 323.608152706 313.874960768 c 0
 331.043825041 310.014130902 l 1
 328.54479978 302.017250069 l 0
 323.734871021 286.625478038 321 272.136143952 321 254.791757011 c 1
 319.994821215 230.667466162 320 207.080038483 320 183 c 0
 320 127.361803914 322.007483151 71.2282179451 325.964519723 12.8619285019 c 1
 327.162211584 1.4838558217 340.686311752 -10 363 -10 c 0
 364.38807585 -10 366.397431556 -9.33319486288 372.29885912 -8.99915179324 c 1
 397.215986068 -5.20203039597 414 12.1207999328 414 25 c 0
 414 27.6546282443 l 1xfb
 410.061804717 85.056951753 408 139.976606668 408 194 c 0
 408 217.911268381 408.004061278 241.305713653 409.004003501 265.304327016 c 1
 410.106677265 322.643362743 449.569166685 354.947452565 527.566186873 477.373155138 c 0
 568.267052856 541.898918282 618.023978265 630.44056526 672.812266498 757.947854239 c 0
 672.926417567 758.213514908 l 1
 673.05572809 758.472135955 l 0
 674.459892969 761.280465713 675 763.688685522 675 766 c 0
 675 776.144932304 666.55728418 786.904140328 646.571969298 789 c 1
EndSplineSet
EndChar

StartChar: Z
Encoding: 90 90 62
Width: 750
GlyphClass: 2
Flags: W
HStem: -13 10<202.274 468.372> 64 10<216.184 562.741> 75 10<584.601 683.756> 709 10<115.084 513.316> 779 10<152.665 518.965> 785 10<114.339 344.279> 790 10<541.898 673.125>
VStem: 46 10<45.3838 82.0732> 66 10<736.031 758.153> 679 10<765.061 784.598> 699 10<41.0671 63.0085>
LayerCount: 2
Back
Fore
SplineSet
709 51 m 2xfbe0
 707 29 676 8 641 5 c 0
 577 -1 442 -13 316 -13 c 0
 175 -13 46 2 46 58 c 0
 46 152 277 410 517 715 c 1
 444 711 383 709 318 709 c 0
 257 709 192 711 111 715 c 0
 84 717 66 729 66 746 c 0
 66 750 67 754 69 758 c 0
 78 779 112 795 144 795 c 2
 149 795 l 1xf5e0
 228 791 289 789 347 789 c 0
 433 789 511 793 626 800 c 1
 640 800 l 2
 678 800 689 790 689 778 c 0
 689 764 675 749 675 749 c 1
 434 441 201 162 176 85 c 1
 207 77 281 74 365 74 c 0
 464 74 577 78 649 85 c 1
 658 85 l 2
 687 85 709 72 709 53 c 2
 709 51 l 2xfbe0
699 51.5101534828 m 1
 699 53 l 0
 699 62.7031560005 685.662195101 75 658 75 c 0
 649.484269279 75 l 1
 578.013184471 68.1000109743 463.979227684 64 365 64 c 0
 280.603127653 64 206.894271726 66.6996649782 173.50121981 75.3172267629 c 0
 163.205061206 77.974299951 l 1
 166.488751981 88.0880675386 l 0
 193.150518952 170.20630981 425.954892811 446.945748192 667.12441044 755.16239313 c 0
 667.370273856 755.476608616 l 1
 667.640388695 755.770237915 l 0
 667.640388695 755.770237915 679 769.658326972 679 778 c 0
 679 780.566391746 678.046025677 790 640 790 c 0
 626.304312005 790 l 1
 511.941565139 783.044180552 433.158737864 779 347 779 c 0xfbe0
 289.114988464 779 226.900100512 781.055691113 149 785 c 1
 144 785 l 0
 114.320113863 785 84.6511753216 769.133498731 78.1914503002 754.060807014 c 0
 78.0756917336 753.790703692 l 1
 77.94427191 753.527864045 l 0
 76.5401070309 750.719534287 76 748.311314478 76 746 c 0
 76 737.60769612 86.0897121165 726.872603822 111.616064662 724.981762892 c 1
 192.23378754 721.000640775 257.303069316 719 318 719 c 0
 382.79208192 719 443.571284355 720.991509678 516.452875533 724.985021523 c 0
 538.533865514 726.194938782 l 1
 524.858710842 708.816096387 l 0
 284.123156373 402.881329248 56 143.529226719 56 58 c 0
 56 16.4427592336 169.624991664 -3 316 -3 c 0
 441.39666432 -3 576.169301417 8.96597118282 640.066592913 14.9563422606 c 0
 672.871435693 17.7681859274 697.358630253 37.6437112406 699 51.5101534828 c 1
EndSplineSet
EndChar

StartChar: bracketleft
Encoding: 91 91 63
Width: 360
GlyphClass: 2
Flags: W
HStem: -91 10<91.4839 269.31> -44 10<156 286.077> 830 10<153 269.96> 877 10<86.7454 285.791>
VStem: 71 10<-69.6208 -57.3691 806.936 871.558> 92 10<203.388 610.558> 161 10<202.038 615.044> 289 10<-66.5442 -46.7536 853.688 873.512>
LayerCount: 2
Back
Fore
SplineSet
299 -60 m 2
 296 -76 275 -89 254 -89 c 0
 239 -89 189 -91 135 -91 c 2
 108 -91 l 2
 88 -91 75 -79 75 -66 c 2
 75 -65 l 1
 87 104 92 265 92 407 c 0
 92 594 83 749 71 853 c 1
 71 858 l 2
 71 868 75 889 114 889 c 2
 118 889 l 2
 147 888 188 887 219 887 c 0
 238 887 254 887 262 888 c 2
 267 888 l 2
 286 888 300 878 300 864 c 2
 300 863 l 2
 299 847 280 834 258 832 c 0
 241 831 215 830 186 830 c 2
 153 830 l 1
 164 724 171 577 171 406 c 0
 171 272 167 124 156 -34 c 1
 203 -34 247 -31 266 -31 c 0
 285 -31 299 -42 299 -56 c 2
 299 -60 l 2
289 -58.9299358899 m 1
 289 -56 l 0
 289 -49.6374655782 281.848371659 -41 266 -41 c 0
 247.753953249 -41 203.328270002 -44 156 -44 c 0
 145.279591866 -44 l 1
 146.024147153 -33.3054785993 l 0
 157.005770788 124.43056997 161 272.19911817 161 406 c 0
 161 576.718690067 154.002082364 723.462455106 143.053413762 828.967807088 c 0
 141.908563554 840 l 1
 186 840 l 0
 214.642642617 840 240.838476279 841.007784702 257.253521222 841.973375581 c 1
 276.472156605 843.720524252 289.173065512 855.012301032 290 863.351773666 c 1
 290 864 l 0
 290 870.01760243 283.372057163 878 267 878 c 0
 262.594979201 878 l 1
 254.73356953 877.103875499 237.686281769 877 219 877 c 0
 187.911399487 877 146.523142717 878.010499818 117.827637429 879 c 1
 114 879 l 0
 80.5513799778 879 81 864.186534761 81 858 c 0
 81 853.574284549 l 1
 92.8707805993 750.352830823 102 593.965971791 102 407 c 0
 102 264.588579156 97.0818860885 105.185453597 85 -65.3550021797 c 1
 85 -66 l 0
 85 -71.689586485 91.5499753936 -81 108 -81 c 0
 135 -81 l 0
 188.860288861 -81 238.469668969 -79 254 -79 c 0
 271.300392133 -79 286.648008815 -67.9390778614 289 -58.9299358899 c 1
EndSplineSet
EndChar

StartChar: backslash
Encoding: 92 92 64
Width: 480
GlyphClass: 2
Flags: W
HStem: -29 10<376.854 414.031> 819 10<65.5996 103.486>
VStem: 40 10<794.288 806.209> 430 10<-5.19248 11.1189>
LayerCount: 2
Back
Fore
SplineSet
71 827 m 0
 76 828 80 829 85 829 c 0
 101 829 115 822 119 810 c 0
 210 535 312 276 438 13 c 0
 439 10 440 8 440 5 c 0
 440 -7 428 -20 412 -26 c 0
 406 -28 401 -29 395 -29 c 0
 381 -29 367 -23 362 -13 c 0
 236 252 132 513 41 790 c 0
 40 792 40 794 40 796 c 0
 40 809 53 822 71 827 c 0
73.2974606469 817.260740585 m 0
 58.3572438782 812.803522135 50 802.446932569 50 796 c 0
 50 795.166183698 49.9861515233 795.19350302 50.0364719166 794.287735942 c 1
 50.2718482257 793.816983324 l 1
 50.5004627826 793.121090661 l 0
 141.356702092 516.558691885 245.264168365 255.803909312 370.988579883 -8.61647999107 c 1
 373.346534148 -13.332388521 383.207907117 -19 395 -19 c 0
 399.747670397 -19 403.666524752 -18.2368995487 408.662100454 -16.5717076481 c 1
 422.211713418 -11.4906027865 430 -0.553246011054 430 5 c 0
 430 5.86642526577 430.214666695 4.99719844604 428.713018963 9.23994918009 c 1
 303.173316629 271.386137877 200.495908222 531.889802171 109.506285113 806.858443437 c 0
 107.495971367 812.889384675 98.7174739472 819 85 819 c 0
 81.1846268026 819 79.7254012171 818.574627808 73.2974606469 817.260740585 c 0
EndSplineSet
EndChar

StartChar: bracketright
Encoding: 93 93 65
Width: 360
GlyphClass: 2
Flags: W
HStem: -90 10<75.5443 272.285> -42 10<90.0403 207> 829 10<77.2298 204> 879 10<90.69 268.516>
VStem: 61 10<-75.512 -55.6884 844.754 864.544> 189 10<182.956 595.962> 258 10<187.442 594.612> 279 10<-73.558 -8.93644 855.369 867.621>
LayerCount: 2
Back
Fore
SplineSet
61 858 m 2
 64 874 85 887 106 887 c 0
 121 887 171 889 225 889 c 2
 252 889 l 2
 272 889 285 877 285 864 c 2
 285 863 l 1
 273 694 268 533 268 391 c 0
 268 204 277 49 289 -55 c 1
 289 -60 l 2
 289 -70 285 -91 246 -91 c 2
 242 -91 l 2
 213 -90 172 -89 141 -89 c 0
 122 -89 106 -89 98 -90 c 2
 93 -90 l 2
 74 -90 60 -80 60 -66 c 2
 60 -65 l 2
 61 -49 80 -36 102 -34 c 0
 119 -33 145 -32 174 -32 c 2
 207 -32 l 1
 196 74 189 221 189 392 c 0
 189 526 193 674 204 832 c 1
 157 832 113 829 94 829 c 0
 75 829 61 840 61 854 c 2
 61 858 l 2
71 856.92993589 m 1
 71 854 l 0
 71 847.637465578 78.1516283408 839 94 839 c 0
 112.246046751 839 156.671729998 842 204 842 c 0
 214.720408134 842 l 1
 213.975852847 831.305478599 l 0
 202.994229212 673.56943003 199 525.80088183 199 392 c 0
 199 221.281309933 205.997917636 74.537544894 216.946586238 -30.9678070885 c 0
 218.091436446 -42 l 1
 174 -42 l 0
 145.357357383 -42 119.161523721 -43.0077847023 102.746478778 -43.9733755812 c 1
 83.5278433952 -45.7205242524 70.8269344878 -57.0123010318 70 -65.3517736657 c 1
 70 -66 l 0
 70 -72.0176024305 76.6279428365 -80 93 -80 c 0
 97.4050207992 -80 l 1
 105.26643047 -79.1038754986 122.313718231 -79 141 -79 c 0
 172.088600513 -79 213.476857283 -80.0104998176 242.172362571 -81 c 1
 246 -81 l 0
 279.448620022 -81 279 -66.1865347613 279 -60 c 0
 279 -55.5742845494 l 1
 267.129219401 47.6471691773 258 204.034028209 258 391 c 0
 258 533.411420844 262.918113911 692.814546403 275 863.35500218 c 1
 275 864 l 0
 275 869.689586485 268.450024606 879 252 879 c 0
 225 879 l 0
 171.139711139 879 121.530331031 877 106 877 c 0
 88.6996078667 877 73.3519911848 865.939077861 71 856.92993589 c 1
EndSplineSet
EndChar

StartChar: asciicircum
Encoding: 94 94 66
Width: 510
GlyphClass: 2
Flags: W
HStem: 532 10<33.1884 73.6125 431.408 458.937> 839 10<242.856 272.103>
VStem: 23 10<542.388 562.247>
LayerCount: 2
Back
Fore
SplineSet
288 834 m 0
 376 746 473 594 483 573 c 1
 483 573 475 531 447 531 c 0
 441 531 435 532 427 537 c 0
 399 554 326 649 256 724 c 1
 186 645 111 558 76 538 c 1
 76 538 59 532 44 532 c 0
 33 532 23 535 23 547 c 0
 23 552 25 558 28 565 c 0
 40 591 148 731 221 826 c 1
 221 826 235 849 257 849 c 0
 266 849 277 845 288 834 c 0
280.928932188 826.928932188 m 0
 271.43071483 836.427149546 262.96285251 839 257 839 c 0
 241.882110392 839 229.56200736 820.83232947 229.502480195 820.736177195 c 0
 229.23683548 820.307090005 l 1
 228.929341718 819.90692689 l 0
 156.329614641 725.427830009 47.4876554442 583.360218357 37.1372514845 560.934343111 c 1
 34.4068445397 554.563393573 33 549.332361433 33 547 c 0
 33 543.724232424 33.5290537858 542 44 542 c 0
 54.6330123019 542 67.943323056 545.879017681 71.8471570275 547.152776197 c 1
 103.484325044 566.122672293 179.140284498 652.337026158 248.515461888 730.631869213 c 0
 255.807823836 738.861820554 l 1
 263.310552682 730.823182504 l 0
 333.482538622 655.638911855 408.287865767 560.059752466 432.245105078 545.514285742 c 1
 438.892945836 541.359385268 442.235809165 541 447 541 c 0
 460.480016202 541 469.136318907 559.6551447 472.416651978 571.704684993 c 1
 456.534413583 600.832848551 363.818927597 744.038936779 280.928932188 826.928932188 c 0
EndSplineSet
EndChar

StartChar: underscore
Encoding: 95 95 67
Width: 600
GlyphClass: 2
Flags: W
HStem: -69 10<117.845 527.065> -6 10<95.5735 550.836> 1 10<65.3438 361.935>
VStem: 30 10<-41.2953 -18.6152> 559 10<-36.772 -13.5122>
LayerCount: 2
Back
Fore
SplineSet
32 -21 m 0xd8
 39 -3 63 11 88 11 c 2
 93 11 l 1xb8
 147 6 259 4 367 4 c 0
 423 4 479 4 525 6 c 2
 527 6 l 2
 551 6 569 -7 569 -24 c 2
 569 -28 l 2
 566 -47 542 -65 515 -66 c 0
 459 -68 393 -69 327 -69 c 0
 225 -69 124 -66 67 -61 c 0
 45 -59 30 -46 30 -30 c 0
 30 -27 31 -24 32 -21 c 0xd8
41.3979636753 -24.4241047147 m 0
 40.5794189638 -26.9104342759 40 -29.3505289073 40 -30 c 0
 40 -38.8403821214 48.7964290255 -49.3038926231 67.9053574604 -51.0410679353 c 0
 124.238152198 -55.9825411579 225.247509482 -59 327 -59 c 0
 392.897599844 -59 458.802048461 -58.0006941792 514.643084695 -56.0063714565 c 0
 537.701657155 -55.1523502543 556.264518083 -39.8328253166 559 -27.132284682 c 1
 559 -24 l 0
 559 -15.1667369503 548.403788876 -4 527 -4 c 0
 525.217288664 -4 l 1
 479.324846292 -5.99532358139 422.904650489 -6 367 -6 c 0xd8
 259.111870629 -6 147.909041672 -4.0646966806 92.5399736384 1 c 1
 88 1 l 0
 66.0981595696 1 46.2233869898 -12.0158733346 41.3979636753 -24.4241047147 c 0
EndSplineSet
EndChar

StartChar: grave
Encoding: 96 96 68
Width: 360
GlyphClass: 2
Flags: W
HStem: 541 10<281.909 304.286> 838 10<73.9183 103.72>
VStem: 20 10<772.043 791.719>
LayerCount: 2
Back
Fore
SplineSet
27 798 m 2
 53 828 l 1
 53 828 68 848 89 848 c 0
 98 848 108 844 119 834 c 0
 207 751 312 606 323 583 c 1
 323 583 321 541 296 541 c 0
 291 541 285 542 277 547 c 0
 248 564 111 699 29 764 c 0
 23 769 20 776 20 782 c 0
 20 788 23 793 27 798 c 2
34.685764243 791.59939471 m 2
 31.0689605165 787.078390052 30 784.445395998 30 782 c 0
 30 779.233920394 31.7252527695 774.746038819 35.3078285471 771.760559004 c 1
 117.451867882 706.646381483 256.24098398 570.760620642 282.17963534 555.555204328 c 1
 288.994974135 551.295617581 292.438184664 551 296 551 c 0
 305.685189035 551 311.373642956 568.252768977 312.792851331 580.945647222 c 1
 297.091024269 608.975928427 195.801389448 747.816082949 112.205374489 826.66232433 c 1
 102.544549726 835.444892297 94.846865877 838 89 838 c 0
 74.0734979531 838 60.9531494621 821.938035497 60.9531494621 821.938035497 c 0
 60.7626765124 821.688139636 l 1
 34.685764243 791.59939471 l 2
EndSplineSet
EndChar

StartChar: a
Encoding: 97 97 69
Width: 680
GlyphClass: 2
Flags: W
HStem: -21 10<233.49 331.836> -11 10<585.776 627.303> 41 10<264.412 324.021> 362 10<462.362 516.098> 432 10<461.737 506.531> 549 10<337.553 392.288> 611 10<335.612 426.228>
VStem: 60 10<173.775 297.208> 149 10<190.529 301.889> 441 9.97966<283.994 349.044 451.512 485.312> 529 10<459.912 505.726> 649 10<16.5668 42.1539>
LayerCount: 2
Back
Fore
SplineSet
540 360 m 1xbff0
 582 92 616 63 633 59 c 0
 650 55 659 43 659 30 c 0
 659 24 658 18 654 13 c 0
 644 -1 626 -11 607 -11 c 0x7ff0
 602 -11 597 -10 592 -9 c 0
 547 4 518 43 491 150 c 1
 464 64 412 -21 283 -21 c 0
 117 -21 60 105 60 232 c 0
 60 262 63 292 69 320 c 0
 96 455 195 621 386 621 c 0
 526 621 539 496 539 472 c 0
 539 453 517 435 490 432 c 2
 483 432 l 2
 459 432 441 445 441 462 c 0
 441 488 414 549 372 549 c 0
 283 549 195 456 167 320 c 0
 162 294 159 268 159 244 c 0
 159 131 215 51 297 51 c 0
 356 51 404 111 427 226 c 0
 434 263 439 301 441 336 c 0
 442 350 454 372 473 372 c 0
 514 372 540 360 540 360 c 1xbff0
531.263657241 351.204075192 m 1
 535.849135618 350.902180213 l 0
 535.849135618 350.902180213 512.657327126 362 473 362 c 0
 462.267248438 362 451.781235366 346.580606642 450.97965513 335.358483337 c 1
 448.955698918 299.93924963 443.903160734 261.550505642 436.816020862 224.089909173 c 1
 413.66456142 108.332611964 364.108781522 41 297 41 c 0
 206.969735756 41 149 128.56737844 149 244 c 0
 149 268.880472628 152.069172453 295.312505934 157.192264541 321.952584791 c 1
 185.689743188 460.368909647 275.802469393 559 372 559 c 0
 423.553785828 559 451 490.506196048 451 462 c 0
 451 453.16673695 461.596211124 442 483 442 c 0
 489.435014127 442 l 1
 513.179992845 444.998286534 529 460.573993243 529 472 c 0
 529 494.882403537 517.284776019 611 386 611 c 0
 201.975641006 611 105.396735784 450.993483784 78.792374775 317.971678739 c 1
 72.9229206663 290.580892898 70 261.375724231 70 232 c 0
 70 107.568530869 124.290770655 -11 283 -11 c 0xbff0
 406.108219727 -11 454.936549286 68.5159650928 481.459156625 152.99538106 c 0
 492.04741938 186.720958723 l 1
 500.696071131 152.446672154 l 0
 527.484257398 46.2860821329 554.752160243 12.4285338335 594.382218824 0.721380668578 c 1
 598.441578591 -0.0868829649178 603.589355234 -1 607 -1 c 0
 622.56316046 -1 637.754906708 7.46151992567 645.862665288 18.8123819372 c 0
 646.021067063 19.0341444227 l 1
 646.191311906 19.2469504755 l 0
 648.155325366 21.7019673005 649 24.9928042193 649 30 c 0
 649 37.946254376 643.948404392 46.1508170863 630.709606663 49.2658283167 c 0
 604.635746171 55.4008543147 572.429413127 91.8563649719 531.263657241 351.204075192 c 1
EndSplineSet
EndChar

StartChar: b
Encoding: 98 98 70
Width: 670
GlyphClass: 2
Flags: W
HStem: -21 10<228.314 324.735> 41 10<260.505 327.902> 524 10<232.447 276.065> 546 10<318.091 389.137> 607 10<318.042 422.09> 836 10<113.183 156.914>
VStem: 81 10<762.438 817.35> 91 10<96.332 679.712> 179 10<113.128 716.402> 211 10<545.201 566.497> 504 10<275.424 390.206> 593 10<286.621 410.823>
LayerCount: 2
Back
Fore
SplineSet
214 542 m 0xfef0
 212 546 211 550 211 554 c 0
 211 568 223 583 242 591 c 0
 287 608 330 617 371 617 c 2
 373 617 l 2
 541 617 603 482 603 350 c 0
 603 321 600 292 594 264 c 0
 568 133 469 -21 273 -21 c 0
 172 -21 91 47 91 125 c 0xfdf0
 91 232 93 356 93 470 c 0
 93 616 91 745 81 801 c 1
 81 805 l 2
 81 823 99 840 124 845 c 0
 128 846 132 846 136 846 c 0
 158 846 176 835 179 819 c 0
 189 761 192 642 192 507 c 0
 192 385 189 251 189 135 c 0
 189 89 246 51 287 51 c 0
 390 51 471 136 497 264 c 0
 502 289 504 313 504 336 c 0
 504 455 442 546 357 546 c 0
 336 546 310 541 278 529 c 0
 270 526 261 524 253 524 c 0
 236 524 221 531 214 542 c 0xfef0
222.710325521 546.950887559 m 0
 226.990076574 540.635158939 238.406644951 534 253 534 c 0
 259.368952476 534 267.412798137 535.709803983 274.488765584 538.363291776 c 0
 307.28780698 550.662932299 334.413153051 556 357 556 c 0
 450.368241033 556 514 457.325738408 514 336 c 0
 514 312.420631759 511.946822081 287.743915267 506.805806757 262.038838649 c 0
 480.238574869 131.24631243 396.338843902 41 287 41 c 0
 242.110517887 41 179 81.0204310518 179 135 c 0
 179 251.163379184 182 385.15556857 182 507 c 0
 182 522.992043346 181.957854157 538.757205149 181.866929974 554.219945191 c 0
 181.191923947 669.012757946 177.695067969 767.712849902 169.15781309 817.228928199 c 1
 167.464412865 826.260396067 155.420102443 836 136 836 c 0
 131.972403683 836 128.893320053 835.915565949 126.42535625 835.298574999 c 0
 126.194500737 835.24086112 l 1
 125.961161351 835.194193243 l 0
 103.504942069 830.702949387 91 816.053130617 91 805 c 0
 91 801.877051041 l 1xfef0
 100.982054192 744.545994247 103 615.608292663 103 470 c 0
 103 355.888851941 101 231.881783367 101 125 c 0
 101 54.340940128 175.787856676 -11 273 -11 c 0
 462.622282324 -11 558.706051411 137.540194426 584.206086753 266.021141726 c 1
 590.08914433 293.475410417 593 321.642435885 593 350 c 0
 593 479.497845303 533.487681952 607 373 607 c 0
 371 607 l 0
 331.573017295 607 289.452667457 598.23677351 245.708578914 581.711228949 c 1
 229.306433735 574.805062558 221 562.257355613 221 554 c 0
 221 551.766197462 221.345483065 549.928725645 222.710325521 546.950887559 c 0
EndSplineSet
EndChar

StartChar: c
Encoding: 99 99 71
Width: 600
GlyphClass: 2
Flags: W
HStem: -22 10<271.304 375.758> 44 10<301.477 377.34> 133 10<493.883 538.744> 433 10<456.485 502.591> 548 10<301.657 370.544> 614 10<302.788 398.839>
VStem: 58 10<225.713 351.889> 152 10<232.578 364.23> 433 10<454.61 491.88> 527 10<462.912 507.721> 552 10<98.0657 122.059>
LayerCount: 2
Back
Fore
SplineSet
532 141 m 0
 551 137 562 124 562 110 c 0
 562 105 560 99 557 94 c 0
 519 32 441 -11 357 -20 c 0
 346 -21 334 -22 323 -22 c 0
 179 -22 58 80 58 290 c 0
 58 490 178 607 322 622 c 0
 332 623 342 624 351 624 c 0
 454 624 537 565 537 475 c 0
 537 455 513 436 485 433 c 2
 478 433 l 2
 453 433 433 447 433 465 c 0
 433 520 386 548 337 548 c 0
 332 548 327 548 322 547 c 0
 264 541 162 485 162 300 c 0
 162 105 267 54 340 54 c 0
 346 54 352 54 357 55 c 0
 401 60 442 82 463 116 c 0
 473 132 495 143 517 143 c 0
 522 143 527 142 532 141 c 0
529.989315635 131.204097846 m 0
 524.978016246 132.206357724 520.668499565 133 517 133 c 0
 498.010833444 133 479.203848823 123.058195852 471.47998304 110.7000106 c 0
 448.593822292 73.646226531 405.707936944 50.7516939131 358.610742503 45.1183960059 c 1
 352.886394746 44.1268986947 345.830331395 44 340 44 c 0
 261.525322212 44 152 100.467805453 152 300 c 0
 152 488.845191448 257.186514589 550.076122272 320.428509471 556.889584576 c 1
 325.855358281 557.835062235 332.219535653 558 337 558 c 0
 389.2055813 558 443 527.262902615 443 465 c 0
 443 455.366308605 455.545191396 443 478 443 c 0
 484.456326233 443 l 1
 509.436872656 446.042466573 527 462.750299326 527 475 c 0
 527 557.570602218 450.802382287 614 351 614 c 0
 342.728914026 614 332.988354846 613.048959863 322.99503719 612.049628098 c 0
 184.369760866 597.609495147 68 485.573544436 68 290 c 0
 68 84.4959685425 184.712482392 -12 323 -12 c 0
 333.353005539 -12 345.262853781 -11.0257760043 356.014591988 -10.0483452582 c 1
 437.374035651 -1.33126200861 512.549464255 40.6119247974 548.473987476 99.2256205793 c 0
 550.607416473 102.781335574 552 107.580841596 552 110 c 0
 552 118.286562786 545.473590253 127.944250558 529.989315635 131.204097846 c 0
EndSplineSet
EndChar

StartChar: d
Encoding: 100 100 72
Width: 720
GlyphClass: 2
Flags: W
HStem: -21 10<265.073 356.435 613.277 656.084> 41 10<293.374 351.467> 544 10<314.274 387.927> 606 10<310.919 416.297> 836 10<511.24 553.349>
VStem: 61 10<214.163 337.779> 149 10<229.988 346.36> 476 10<253.829 424.07 586 816.189> 564 10<259.616 826.682> 679 10<8.58626 31.147>
LayerCount: 2
Back
Fore
SplineSet
523 845 m 0
 526 845 530 846 533 846 c 0
 556 846 573 834 574 817 c 0
 577 770 577 721 577 672 c 0
 577 568 574 463 574 381 c 2
 574 336 l 2
 576 257 586 192 600 144 c 0
 620 77 652 51 660 49 c 0
 678 45 689 34 689 20 c 0
 689 15 688 10 685 5 c 0
 676 -10 655 -21 634 -21 c 0
 629 -21 624 -20 620 -19 c 0
 564 -5 534 51 514 120 c 0
 513 123 513 125 512 128 c 1
 480 60 427 -21 313 -21 c 0
 128 -21 61 139 61 275 c 0
 61 302 64 330 69 357 c 0
 93 478 183 616 367 616 c 0
 415 616 452 604 479 586 c 1
 479 662 l 2
 479 711 479 758 476 803 c 2
 476 804 l 2
 476 823 497 841 523 845 c 0
476 422 m 1
 465 474 436 544 353 544 c 0
 261 544 189 474 166 357 c 0
 161 334 159 309 159 285 c 0
 159 151 232 51 327 51 c 0
 360 51 403 79 437 151 c 0
 457 193 470 242 478 285 c 0
 477 298 476 310 476 324 c 2
 476 371 l 1
 476 422 l 1
523.830582511 835.006478678 m 0
 501.406084014 831.212111657 486 815.761604054 486 804 c 0
 486 803.335222781 l 1
 488.936068097 758.6346346 489 710.786843301 489 662 c 0
 489 567.314829082 l 1
 473.452998038 577.679497057 l 0
 448.283840302 594.458935547 413.331935992 606 367 606 c 0
 189.173236285 606 102.246410352 473.218483482 78.8212618527 355.116693134 c 1
 73.9427457351 328.772706099 71 301.221677128 71 275 c 0
 71 141.285390514 135.89061859 -11 313 -11 c 0
 421.118227654 -11 471.282748029 64.9612073463 502.951812978 132.257970363 c 0
 513.587787086 154.859415343 l 1
 521.486832981 131.16227766 l 0
 523.030893986 126.530094643 522.916161884 124.87429095 523.549496688 122.974286537 c 1
 543.530214547 54.0408099247 572.319654416 3.22785045994 622.42535625 -9.29857499855 c 0
 626.041603656 -10.2026368499 630.31543329 -11 634 -11 c 0
 651.858809655 -11 669.677908849 -1.10031226867 676.425070743 10.1449575543 c 0
 678.38082072 13.4045408489 679 16.3425944927 679 20 c 0
 679 27.8588672972 673.278219378 35.8053462968 657.702271986 39.2666679394 c 1
 643.05412579 42.9287044884 610.848091909 72.6981998933 590.417809866 141.139644736 c 0
 576.043906955 190.421597572 566.025982106 255.847144816 564 335.873437997 c 1
 564 381 l 0
 564 463.22766484 567 568.180672185 567 672 c 0
 567 720.998612864 566.992297373 769.801849967 564.020309171 816.362998458 c 0
 563.452063636 826.023172553 553.220316382 836 533 836 c 0
 531.690430413 836 529.440506197 835.324021528 523.830582511 835.006478678 c 0
485.783497031 424.06958591 m 2
 486 423.046117331 l 1
 486 324 l 0
 486 310.486322929 486.966473888 298.819887566 487.970544855 285.766964989 c 0
 488.071094826 284.459815368 l 1
 487.831300495 283.170920838 l 0
 479.725419161 239.601808669 466.593831679 189.887639826 446.028605188 146.700664196 c 0
 411.29150345 73.1397428679 365.802885241 41 327 41 c 0
 223.896447671 41 149 148.34854855 149 285 c 0
 149 309.482473293 151.056348694 335.333613176 156.20704093 359.026797461 c 1
 179.759563464 478.83745557 255.022506687 554 353 554 c 0
 443.499014314 554 474.625227784 476.817767807 485.783497031 424.06958591 c 2
EndSplineSet
EndChar

